G75*
G70*
%OFA0B0*%
%FSLAX24Y24*%
%IPPOS*%
%LPD*%
%AMOC8*
5,1,8,0,0,1.08239X$1,22.5*
%
%ADD10C,0.0000*%
%ADD11C,0.0060*%
%ADD12C,0.0050*%
%ADD13C,0.0020*%
%ADD14C,0.0080*%
%ADD15C,0.0300*%
%ADD16R,0.0001X0.0104*%
%ADD17R,0.0001X0.0106*%
%ADD18R,0.0001X0.0107*%
%ADD19R,0.0001X0.0108*%
%ADD20R,0.0001X0.0109*%
%ADD21R,0.0001X0.0110*%
%ADD22R,0.0001X0.0113*%
%ADD23R,0.0001X0.0115*%
%ADD24R,0.0001X0.0116*%
%ADD25R,0.0001X0.0119*%
%ADD26R,0.0001X0.0121*%
%ADD27R,0.0001X0.0124*%
%ADD28R,0.0001X0.0125*%
%ADD29R,0.0001X0.0126*%
%ADD30R,0.0001X0.0127*%
%ADD31R,0.0001X0.0128*%
%ADD32R,0.0001X0.0130*%
%ADD33R,0.0001X0.0132*%
%ADD34R,0.0001X0.0133*%
%ADD35R,0.0001X0.0134*%
%ADD36R,0.0001X0.0136*%
%ADD37R,0.0001X0.0137*%
%ADD38R,0.0001X0.0138*%
%ADD39R,0.0001X0.0140*%
%ADD40R,0.0001X0.0143*%
%ADD41R,0.0001X0.0144*%
%ADD42R,0.0001X0.0145*%
%ADD43R,0.0001X0.0146*%
%ADD44R,0.0001X0.0149*%
%ADD45R,0.0001X0.0151*%
%ADD46R,0.0001X0.0154*%
%ADD47R,0.0001X0.0155*%
%ADD48R,0.0001X0.0156*%
%ADD49R,0.0001X0.0157*%
%ADD50R,0.0001X0.0160*%
%ADD51R,0.0001X0.0161*%
%ADD52R,0.0001X0.0162*%
%ADD53R,0.0001X0.0163*%
%ADD54R,0.0001X0.0166*%
%ADD55R,0.0001X0.0168*%
%ADD56R,0.0001X0.0169*%
%ADD57R,0.0001X0.0172*%
%ADD58R,0.0001X0.0174*%
%ADD59R,0.0001X0.0175*%
%ADD60R,0.0001X0.0176*%
%ADD61R,0.0001X0.0178*%
%ADD62R,0.0001X0.0179*%
%ADD63R,0.0001X0.0180*%
%ADD64R,0.0001X0.0182*%
%ADD65R,0.0001X0.0184*%
%ADD66R,0.0001X0.0186*%
%ADD67R,0.0001X0.0188*%
%ADD68R,0.0001X0.0191*%
%ADD69R,0.0001X0.0192*%
%ADD70R,0.0001X0.0193*%
%ADD71R,0.0001X0.0194*%
%ADD72R,0.0001X0.0197*%
%ADD73R,0.0001X0.0198*%
%ADD74R,0.0001X0.0199*%
%ADD75R,0.0001X0.0200*%
%ADD76R,0.0001X0.0203*%
%ADD77R,0.0001X0.0205*%
%ADD78R,0.0001X0.0206*%
%ADD79R,0.0001X0.0208*%
%ADD80R,0.0001X0.0209*%
%ADD81R,0.0001X0.0211*%
%ADD82R,0.0001X0.0102*%
%ADD83R,0.0001X0.0101*%
%ADD84R,0.0001X0.0109*%
%ADD85R,0.0001X0.0108*%
%ADD86R,0.0001X0.0112*%
%ADD87R,0.0001X0.0113*%
%ADD88R,0.0001X0.0114*%
%ADD89R,0.0001X0.0097*%
%ADD90R,0.0001X0.0094*%
%ADD91R,0.0001X0.0090*%
%ADD92R,0.0001X0.0088*%
%ADD93R,0.0001X0.0085*%
%ADD94R,0.0001X0.0082*%
%ADD95R,0.0001X0.0114*%
%ADD96R,0.0001X0.0078*%
%ADD97R,0.0001X0.0074*%
%ADD98R,0.0001X0.0072*%
%ADD99R,0.0001X0.0068*%
%ADD100R,0.0001X0.0065*%
%ADD101R,0.0001X0.0061*%
%ADD102R,0.0001X0.0059*%
%ADD103R,0.0001X0.0056*%
%ADD104R,0.0001X0.0053*%
%ADD105R,0.0001X0.0049*%
%ADD106R,0.0001X0.0046*%
%ADD107R,0.0001X0.0043*%
%ADD108R,0.0001X0.0040*%
%ADD109R,0.0001X0.0036*%
%ADD110R,0.0001X0.0032*%
%ADD111R,0.0001X0.0030*%
%ADD112R,0.0001X0.0026*%
%ADD113R,0.0001X0.0024*%
%ADD114R,0.0001X0.0020*%
%ADD115R,0.0001X0.0017*%
%ADD116R,0.0001X0.0014*%
%ADD117R,0.0001X0.0011*%
%ADD118R,0.0001X0.0007*%
%ADD119R,0.0001X0.0004*%
%ADD120R,0.0001X0.0001*%
%ADD121R,0.0001X0.0118*%
%ADD122R,0.0001X0.0119*%
%ADD123R,0.0001X0.0118*%
%ADD124R,0.0001X0.0120*%
%ADD125R,0.0001X0.0103*%
%ADD126R,0.0001X0.0100*%
%ADD127R,0.0001X0.0094*%
%ADD128R,0.0001X0.0091*%
%ADD129R,0.0001X0.0083*%
%ADD130R,0.0001X0.0079*%
%ADD131R,0.0001X0.0077*%
%ADD132R,0.0001X0.0076*%
%ADD133R,0.0001X0.0073*%
%ADD134R,0.0001X0.0071*%
%ADD135R,0.0001X0.0068*%
%ADD136R,0.0001X0.0062*%
%ADD137R,0.0001X0.0059*%
%ADD138R,0.0001X0.0054*%
%ADD139R,0.0001X0.0052*%
%ADD140R,0.0001X0.0048*%
%ADD141R,0.0001X0.0044*%
%ADD142R,0.0001X0.0042*%
%ADD143R,0.0001X0.0037*%
%ADD144R,0.0001X0.0034*%
%ADD145R,0.0001X0.0031*%
%ADD146R,0.0001X0.0029*%
%ADD147R,0.0001X0.0028*%
%ADD148R,0.0001X0.0025*%
%ADD149R,0.0001X0.0023*%
%ADD150R,0.0001X0.0019*%
%ADD151R,0.0001X0.0014*%
%ADD152R,0.0001X0.0012*%
%ADD153R,0.0001X0.0008*%
%ADD154R,0.0001X0.0006*%
%ADD155R,0.0001X0.0002*%
%ADD156C,0.0010*%
%ADD157C,0.0300*%
%ADD158C,0.0200*%
D10*
X000232Y000101D02*
X000232Y021361D01*
X027791Y021361D01*
X027791Y020455D01*
X029759Y020455D01*
X029759Y021361D01*
X057318Y021361D01*
X057318Y000101D01*
X000232Y000101D01*
X001570Y002069D02*
X001572Y002119D01*
X001578Y002169D01*
X001588Y002218D01*
X001602Y002266D01*
X001619Y002313D01*
X001640Y002358D01*
X001665Y002402D01*
X001693Y002443D01*
X001725Y002482D01*
X001759Y002519D01*
X001796Y002553D01*
X001836Y002583D01*
X001878Y002610D01*
X001922Y002634D01*
X001968Y002655D01*
X002015Y002671D01*
X002063Y002684D01*
X002113Y002693D01*
X002162Y002698D01*
X002213Y002699D01*
X002263Y002696D01*
X002312Y002689D01*
X002361Y002678D01*
X002409Y002663D01*
X002455Y002645D01*
X002500Y002623D01*
X002543Y002597D01*
X002584Y002568D01*
X002623Y002536D01*
X002659Y002501D01*
X002691Y002463D01*
X002721Y002423D01*
X002748Y002380D01*
X002771Y002336D01*
X002790Y002290D01*
X002806Y002242D01*
X002818Y002193D01*
X002826Y002144D01*
X002830Y002094D01*
X002830Y002044D01*
X002826Y001994D01*
X002818Y001945D01*
X002806Y001896D01*
X002790Y001848D01*
X002771Y001802D01*
X002748Y001758D01*
X002721Y001715D01*
X002691Y001675D01*
X002659Y001637D01*
X002623Y001602D01*
X002584Y001570D01*
X002543Y001541D01*
X002500Y001515D01*
X002455Y001493D01*
X002409Y001475D01*
X002361Y001460D01*
X002312Y001449D01*
X002263Y001442D01*
X002213Y001439D01*
X002162Y001440D01*
X002113Y001445D01*
X002063Y001454D01*
X002015Y001467D01*
X001968Y001483D01*
X001922Y001504D01*
X001878Y001528D01*
X001836Y001555D01*
X001796Y001585D01*
X001759Y001619D01*
X001725Y001656D01*
X001693Y001695D01*
X001665Y001736D01*
X001640Y001780D01*
X001619Y001825D01*
X001602Y001872D01*
X001588Y001920D01*
X001578Y001969D01*
X001572Y002019D01*
X001570Y002069D01*
X001570Y019392D02*
X001572Y019442D01*
X001578Y019492D01*
X001588Y019541D01*
X001602Y019589D01*
X001619Y019636D01*
X001640Y019681D01*
X001665Y019725D01*
X001693Y019766D01*
X001725Y019805D01*
X001759Y019842D01*
X001796Y019876D01*
X001836Y019906D01*
X001878Y019933D01*
X001922Y019957D01*
X001968Y019978D01*
X002015Y019994D01*
X002063Y020007D01*
X002113Y020016D01*
X002162Y020021D01*
X002213Y020022D01*
X002263Y020019D01*
X002312Y020012D01*
X002361Y020001D01*
X002409Y019986D01*
X002455Y019968D01*
X002500Y019946D01*
X002543Y019920D01*
X002584Y019891D01*
X002623Y019859D01*
X002659Y019824D01*
X002691Y019786D01*
X002721Y019746D01*
X002748Y019703D01*
X002771Y019659D01*
X002790Y019613D01*
X002806Y019565D01*
X002818Y019516D01*
X002826Y019467D01*
X002830Y019417D01*
X002830Y019367D01*
X002826Y019317D01*
X002818Y019268D01*
X002806Y019219D01*
X002790Y019171D01*
X002771Y019125D01*
X002748Y019081D01*
X002721Y019038D01*
X002691Y018998D01*
X002659Y018960D01*
X002623Y018925D01*
X002584Y018893D01*
X002543Y018864D01*
X002500Y018838D01*
X002455Y018816D01*
X002409Y018798D01*
X002361Y018783D01*
X002312Y018772D01*
X002263Y018765D01*
X002213Y018762D01*
X002162Y018763D01*
X002113Y018768D01*
X002063Y018777D01*
X002015Y018790D01*
X001968Y018806D01*
X001922Y018827D01*
X001878Y018851D01*
X001836Y018878D01*
X001796Y018908D01*
X001759Y018942D01*
X001725Y018979D01*
X001693Y019018D01*
X001665Y019059D01*
X001640Y019103D01*
X001619Y019148D01*
X001602Y019195D01*
X001588Y019243D01*
X001578Y019292D01*
X001572Y019342D01*
X001570Y019392D01*
X054720Y019392D02*
X054722Y019442D01*
X054728Y019492D01*
X054738Y019541D01*
X054752Y019589D01*
X054769Y019636D01*
X054790Y019681D01*
X054815Y019725D01*
X054843Y019766D01*
X054875Y019805D01*
X054909Y019842D01*
X054946Y019876D01*
X054986Y019906D01*
X055028Y019933D01*
X055072Y019957D01*
X055118Y019978D01*
X055165Y019994D01*
X055213Y020007D01*
X055263Y020016D01*
X055312Y020021D01*
X055363Y020022D01*
X055413Y020019D01*
X055462Y020012D01*
X055511Y020001D01*
X055559Y019986D01*
X055605Y019968D01*
X055650Y019946D01*
X055693Y019920D01*
X055734Y019891D01*
X055773Y019859D01*
X055809Y019824D01*
X055841Y019786D01*
X055871Y019746D01*
X055898Y019703D01*
X055921Y019659D01*
X055940Y019613D01*
X055956Y019565D01*
X055968Y019516D01*
X055976Y019467D01*
X055980Y019417D01*
X055980Y019367D01*
X055976Y019317D01*
X055968Y019268D01*
X055956Y019219D01*
X055940Y019171D01*
X055921Y019125D01*
X055898Y019081D01*
X055871Y019038D01*
X055841Y018998D01*
X055809Y018960D01*
X055773Y018925D01*
X055734Y018893D01*
X055693Y018864D01*
X055650Y018838D01*
X055605Y018816D01*
X055559Y018798D01*
X055511Y018783D01*
X055462Y018772D01*
X055413Y018765D01*
X055363Y018762D01*
X055312Y018763D01*
X055263Y018768D01*
X055213Y018777D01*
X055165Y018790D01*
X055118Y018806D01*
X055072Y018827D01*
X055028Y018851D01*
X054986Y018878D01*
X054946Y018908D01*
X054909Y018942D01*
X054875Y018979D01*
X054843Y019018D01*
X054815Y019059D01*
X054790Y019103D01*
X054769Y019148D01*
X054752Y019195D01*
X054738Y019243D01*
X054728Y019292D01*
X054722Y019342D01*
X054720Y019392D01*
X054720Y002069D02*
X054722Y002119D01*
X054728Y002169D01*
X054738Y002218D01*
X054752Y002266D01*
X054769Y002313D01*
X054790Y002358D01*
X054815Y002402D01*
X054843Y002443D01*
X054875Y002482D01*
X054909Y002519D01*
X054946Y002553D01*
X054986Y002583D01*
X055028Y002610D01*
X055072Y002634D01*
X055118Y002655D01*
X055165Y002671D01*
X055213Y002684D01*
X055263Y002693D01*
X055312Y002698D01*
X055363Y002699D01*
X055413Y002696D01*
X055462Y002689D01*
X055511Y002678D01*
X055559Y002663D01*
X055605Y002645D01*
X055650Y002623D01*
X055693Y002597D01*
X055734Y002568D01*
X055773Y002536D01*
X055809Y002501D01*
X055841Y002463D01*
X055871Y002423D01*
X055898Y002380D01*
X055921Y002336D01*
X055940Y002290D01*
X055956Y002242D01*
X055968Y002193D01*
X055976Y002144D01*
X055980Y002094D01*
X055980Y002044D01*
X055976Y001994D01*
X055968Y001945D01*
X055956Y001896D01*
X055940Y001848D01*
X055921Y001802D01*
X055898Y001758D01*
X055871Y001715D01*
X055841Y001675D01*
X055809Y001637D01*
X055773Y001602D01*
X055734Y001570D01*
X055693Y001541D01*
X055650Y001515D01*
X055605Y001493D01*
X055559Y001475D01*
X055511Y001460D01*
X055462Y001449D01*
X055413Y001442D01*
X055363Y001439D01*
X055312Y001440D01*
X055263Y001445D01*
X055213Y001454D01*
X055165Y001467D01*
X055118Y001483D01*
X055072Y001504D01*
X055028Y001528D01*
X054986Y001555D01*
X054946Y001585D01*
X054909Y001619D01*
X054875Y001656D01*
X054843Y001695D01*
X054815Y001736D01*
X054790Y001780D01*
X054769Y001825D01*
X054752Y001872D01*
X054738Y001920D01*
X054728Y001969D01*
X054722Y002019D01*
X054720Y002069D01*
D11*
X050516Y003304D02*
X050442Y003231D01*
X050296Y003231D01*
X050222Y003304D01*
X050222Y003451D01*
X050442Y003451D01*
X050516Y003378D01*
X050516Y003304D01*
X050369Y003598D02*
X050222Y003451D01*
X050055Y003451D02*
X049982Y003378D01*
X049762Y003378D01*
X049909Y003378D02*
X050055Y003231D01*
X050055Y003451D02*
X050055Y003598D01*
X049982Y003671D01*
X049762Y003671D01*
X049762Y003231D01*
X050369Y003598D02*
X050516Y003671D01*
X048116Y005398D02*
X047822Y005104D01*
X047822Y005031D01*
X047655Y005031D02*
X047509Y005178D01*
X047582Y005178D02*
X047362Y005178D01*
X047362Y005031D02*
X047362Y005471D01*
X047582Y005471D01*
X047655Y005398D01*
X047655Y005251D01*
X047582Y005178D01*
X048116Y005398D02*
X048116Y005471D01*
X047822Y005471D01*
X048712Y005331D02*
X049005Y005331D01*
X049172Y005331D02*
X049392Y005331D01*
X049466Y005404D01*
X049466Y005698D01*
X049392Y005771D01*
X049172Y005771D01*
X049172Y005331D01*
X048712Y005331D02*
X048712Y005771D01*
X049633Y005698D02*
X049706Y005771D01*
X049853Y005771D01*
X049926Y005698D01*
X049926Y005624D01*
X049853Y005551D01*
X049926Y005478D01*
X049926Y005404D01*
X049853Y005331D01*
X049706Y005331D01*
X049633Y005404D01*
X049779Y005551D02*
X049853Y005551D01*
X051362Y005404D02*
X051435Y005331D01*
X051582Y005331D01*
X051655Y005404D01*
X051655Y005698D01*
X051582Y005771D01*
X051435Y005771D01*
X051362Y005698D01*
X051362Y005404D01*
X051509Y005478D02*
X051655Y005331D01*
X051822Y005551D02*
X052116Y005551D01*
X052042Y005771D02*
X051822Y005551D01*
X052042Y005331D02*
X052042Y005771D01*
X056562Y006331D02*
X056562Y006501D01*
X056618Y006558D01*
X056845Y006558D01*
X056902Y006501D01*
X056902Y006331D01*
X056562Y006331D01*
X056562Y006699D02*
X056562Y006813D01*
X056562Y006756D02*
X056902Y006756D01*
X056902Y006699D02*
X056902Y006813D01*
X056845Y006945D02*
X056902Y007001D01*
X056902Y007115D01*
X056845Y007171D01*
X056788Y007171D01*
X056732Y007115D01*
X056732Y007001D01*
X056675Y006945D01*
X056618Y006945D01*
X056562Y007001D01*
X056562Y007115D01*
X056618Y007171D01*
X056562Y007313D02*
X056562Y007483D01*
X056618Y007540D01*
X056732Y007540D01*
X056788Y007483D01*
X056788Y007313D01*
X056902Y007313D02*
X056562Y007313D01*
X056845Y007681D02*
X056845Y007738D01*
X056902Y007738D01*
X056902Y007681D01*
X056845Y007681D01*
X056902Y007865D02*
X056562Y008092D01*
X056732Y008234D02*
X056732Y008461D01*
X056732Y008602D02*
X056732Y008829D01*
X056845Y008715D02*
X056618Y008715D01*
X055626Y009581D02*
X055333Y009581D01*
X055479Y009581D02*
X055479Y010021D01*
X055333Y009874D01*
X055166Y010021D02*
X055166Y009581D01*
X055019Y009728D01*
X054872Y009581D01*
X054872Y010021D01*
X054705Y009948D02*
X054632Y010021D01*
X054485Y010021D01*
X054412Y009948D01*
X054412Y009874D01*
X054485Y009801D01*
X054632Y009801D01*
X054705Y009728D01*
X054705Y009654D01*
X054632Y009581D01*
X054485Y009581D01*
X054412Y009654D01*
X056618Y012631D02*
X056845Y012631D01*
X056902Y012687D01*
X056902Y012801D01*
X056845Y012858D01*
X056845Y012999D02*
X056902Y013056D01*
X056902Y013169D01*
X056845Y013226D01*
X056618Y013226D01*
X056562Y013169D01*
X056562Y013056D01*
X056618Y012999D01*
X056845Y012999D01*
X056618Y012858D02*
X056562Y012801D01*
X056562Y012687D01*
X056618Y012631D01*
X056562Y013367D02*
X056902Y013594D01*
X056562Y013594D01*
X056562Y013736D02*
X056562Y013963D01*
X056562Y014104D02*
X056562Y014217D01*
X056562Y014161D02*
X056902Y014161D01*
X056902Y014217D02*
X056902Y014104D01*
X056845Y014350D02*
X056902Y014406D01*
X056902Y014520D01*
X056845Y014576D01*
X056732Y014576D01*
X056732Y014463D01*
X056845Y014350D02*
X056618Y014350D01*
X056562Y014406D01*
X056562Y014520D01*
X056618Y014576D01*
X056845Y014718D02*
X056845Y014775D01*
X056902Y014775D01*
X056902Y014718D01*
X056845Y014718D01*
X056902Y014902D02*
X056562Y015129D01*
X055626Y015981D02*
X055333Y015981D01*
X055626Y016274D01*
X055626Y016348D01*
X055553Y016421D01*
X055406Y016421D01*
X055333Y016348D01*
X055166Y016421D02*
X055166Y015981D01*
X055019Y016128D01*
X054872Y015981D01*
X054872Y016421D01*
X054705Y016348D02*
X054632Y016421D01*
X054485Y016421D01*
X054412Y016348D01*
X054412Y016274D01*
X054485Y016201D01*
X054632Y016201D01*
X054705Y016128D01*
X054705Y016054D01*
X054632Y015981D01*
X054485Y015981D01*
X054412Y016054D01*
X053176Y016104D02*
X053103Y016031D01*
X052956Y016031D01*
X052883Y016104D01*
X052883Y016251D02*
X053029Y016324D01*
X053103Y016324D01*
X053176Y016251D01*
X053176Y016104D01*
X052883Y016251D02*
X052883Y016471D01*
X053176Y016471D01*
X052716Y016471D02*
X052716Y016031D01*
X052422Y016471D01*
X052422Y016031D01*
X052255Y016104D02*
X052182Y016031D01*
X052035Y016031D01*
X051962Y016104D01*
X051962Y016398D01*
X052035Y016471D01*
X052182Y016471D01*
X052255Y016398D01*
X049679Y015221D02*
X049679Y014781D01*
X049533Y014781D02*
X049826Y014781D01*
X049533Y015074D02*
X049679Y015221D01*
X049366Y015221D02*
X049366Y015148D01*
X049219Y015001D01*
X049219Y014781D01*
X049219Y015001D02*
X049072Y015148D01*
X049072Y015221D01*
X048905Y015148D02*
X048905Y015001D01*
X048832Y014928D01*
X048612Y014928D01*
X048759Y014928D02*
X048905Y014781D01*
X048612Y014781D02*
X048612Y015221D01*
X048832Y015221D01*
X048905Y015148D01*
X047176Y016104D02*
X047176Y016178D01*
X047103Y016251D01*
X046883Y016251D01*
X046883Y016104D01*
X046956Y016031D01*
X047103Y016031D01*
X047176Y016104D01*
X046883Y016251D02*
X047029Y016398D01*
X047176Y016471D01*
X046716Y016471D02*
X046716Y016031D01*
X046422Y016471D01*
X046422Y016031D01*
X046255Y016104D02*
X046182Y016031D01*
X046035Y016031D01*
X045962Y016104D01*
X045962Y016398D01*
X046035Y016471D01*
X046182Y016471D01*
X046255Y016398D01*
X043826Y015148D02*
X043753Y015221D01*
X043606Y015221D01*
X043533Y015148D01*
X043366Y015148D02*
X043366Y015221D01*
X043366Y015148D02*
X043219Y015001D01*
X043219Y014781D01*
X043219Y015001D02*
X043072Y015148D01*
X043072Y015221D01*
X042905Y015148D02*
X042905Y015001D01*
X042832Y014928D01*
X042612Y014928D01*
X042759Y014928D02*
X042905Y014781D01*
X042612Y014781D02*
X042612Y015221D01*
X042832Y015221D01*
X042905Y015148D01*
X043533Y014781D02*
X043826Y015074D01*
X043826Y015148D01*
X043826Y014781D02*
X043533Y014781D01*
X042116Y013898D02*
X042116Y013824D01*
X042042Y013751D01*
X042116Y013678D01*
X042116Y013604D01*
X042042Y013531D01*
X041896Y013531D01*
X041822Y013604D01*
X041655Y013604D02*
X041655Y013898D01*
X041582Y013971D01*
X041362Y013971D01*
X041362Y013531D01*
X041582Y013531D01*
X041655Y013604D01*
X041822Y013898D02*
X041896Y013971D01*
X042042Y013971D01*
X042116Y013898D01*
X042042Y013751D02*
X041969Y013751D01*
X037826Y014854D02*
X037753Y014781D01*
X037606Y014781D01*
X037533Y014854D01*
X037679Y015001D02*
X037753Y015001D01*
X037826Y014928D01*
X037826Y014854D01*
X037753Y015001D02*
X037826Y015074D01*
X037826Y015148D01*
X037753Y015221D01*
X037606Y015221D01*
X037533Y015148D01*
X037366Y015148D02*
X037366Y015221D01*
X037366Y015148D02*
X037219Y015001D01*
X037219Y014781D01*
X037219Y015001D02*
X037072Y015148D01*
X037072Y015221D01*
X036905Y015148D02*
X036905Y015001D01*
X036832Y014928D01*
X036612Y014928D01*
X036759Y014928D02*
X036905Y014781D01*
X036612Y014781D02*
X036612Y015221D01*
X036832Y015221D01*
X036905Y015148D01*
X039962Y016104D02*
X040035Y016031D01*
X040182Y016031D01*
X040255Y016104D01*
X040422Y016031D02*
X040422Y016471D01*
X040716Y016031D01*
X040716Y016471D01*
X040883Y016471D02*
X041176Y016471D01*
X041176Y016398D01*
X040883Y016104D01*
X040883Y016031D01*
X040255Y016398D02*
X040182Y016471D01*
X040035Y016471D01*
X039962Y016398D01*
X039962Y016104D01*
X036042Y013971D02*
X035822Y013751D01*
X036116Y013751D01*
X036042Y013531D02*
X036042Y013971D01*
X035655Y013898D02*
X035582Y013971D01*
X035362Y013971D01*
X035362Y013531D01*
X035582Y013531D01*
X035655Y013604D01*
X035655Y013898D01*
X034717Y010971D02*
X034717Y010631D01*
X034830Y010631D02*
X034603Y010631D01*
X034462Y010687D02*
X034405Y010631D01*
X034292Y010631D01*
X034235Y010687D01*
X034462Y010914D01*
X034462Y010687D01*
X034603Y010858D02*
X034717Y010971D01*
X034462Y010914D02*
X034405Y010971D01*
X034292Y010971D01*
X034235Y010914D01*
X034235Y010687D01*
X034094Y010687D02*
X034037Y010631D01*
X033923Y010631D01*
X033867Y010687D01*
X033867Y010801D02*
X033980Y010858D01*
X034037Y010858D01*
X034094Y010801D01*
X034094Y010687D01*
X033867Y010801D02*
X033867Y010971D01*
X034094Y010971D01*
X033725Y010801D02*
X033498Y010801D01*
X033357Y010914D02*
X033300Y010971D01*
X033130Y010971D01*
X033130Y010631D01*
X033300Y010631D01*
X033357Y010687D01*
X033357Y010914D01*
X032989Y010858D02*
X032989Y010631D01*
X032989Y010801D02*
X032762Y010801D01*
X032762Y010858D02*
X032875Y010971D01*
X032989Y010858D01*
X032762Y010858D02*
X032762Y010631D01*
X027616Y009898D02*
X027616Y009824D01*
X027542Y009751D01*
X027616Y009678D01*
X027616Y009604D01*
X027542Y009531D01*
X027396Y009531D01*
X027322Y009604D01*
X027155Y009604D02*
X027082Y009531D01*
X026935Y009531D01*
X026862Y009604D01*
X026862Y009898D01*
X026935Y009971D01*
X027082Y009971D01*
X027155Y009898D01*
X027322Y009898D02*
X027396Y009971D01*
X027542Y009971D01*
X027616Y009898D01*
X027542Y009751D02*
X027469Y009751D01*
X024230Y009214D02*
X024230Y009158D01*
X024003Y008931D01*
X024230Y008931D01*
X023862Y008987D02*
X023805Y008931D01*
X023692Y008931D01*
X023635Y008987D01*
X023494Y008987D02*
X023437Y008931D01*
X023323Y008931D01*
X023267Y008987D01*
X023494Y009214D01*
X023494Y008987D01*
X023267Y008987D02*
X023267Y009214D01*
X023323Y009271D01*
X023437Y009271D01*
X023494Y009214D01*
X023635Y009214D02*
X023692Y009271D01*
X023805Y009271D01*
X023862Y009214D01*
X023862Y009158D01*
X023805Y009101D01*
X023862Y009044D01*
X023862Y008987D01*
X023805Y009101D02*
X023748Y009101D01*
X024003Y009214D02*
X024060Y009271D01*
X024173Y009271D01*
X024230Y009214D01*
X023125Y009214D02*
X023125Y009158D01*
X022898Y008931D01*
X023125Y008931D01*
X022757Y008931D02*
X022644Y009044D01*
X022700Y009044D02*
X022530Y009044D01*
X022530Y008931D02*
X022530Y009271D01*
X022700Y009271D01*
X022757Y009214D01*
X022757Y009101D01*
X022700Y009044D01*
X022898Y009214D02*
X022955Y009271D01*
X023069Y009271D01*
X023125Y009214D01*
X022389Y009214D02*
X022332Y009271D01*
X022219Y009271D01*
X022162Y009214D01*
X022162Y008987D01*
X022219Y008931D01*
X022332Y008931D01*
X022389Y008987D01*
X021116Y008531D02*
X020822Y008531D01*
X020969Y008531D02*
X020969Y008971D01*
X020822Y008824D01*
X020655Y008971D02*
X020655Y008604D01*
X020582Y008531D01*
X020435Y008531D01*
X020362Y008604D01*
X020362Y008971D01*
X017776Y009304D02*
X017703Y009231D01*
X017556Y009231D01*
X017483Y009304D01*
X017316Y009231D02*
X017022Y009231D01*
X017169Y009231D02*
X017169Y009671D01*
X017022Y009524D01*
X016855Y009451D02*
X016782Y009378D01*
X016562Y009378D01*
X016709Y009378D02*
X016855Y009231D01*
X016855Y009451D02*
X016855Y009598D01*
X016782Y009671D01*
X016562Y009671D01*
X016562Y009231D01*
X016116Y008898D02*
X016042Y008971D01*
X015896Y008971D01*
X015822Y008898D01*
X015655Y008971D02*
X015655Y008604D01*
X015582Y008531D01*
X015435Y008531D01*
X015362Y008604D01*
X015362Y008971D01*
X015822Y008531D02*
X016116Y008824D01*
X016116Y008898D01*
X016116Y008531D02*
X015822Y008531D01*
X015016Y007971D02*
X014869Y007898D01*
X014722Y007751D01*
X014942Y007751D01*
X015016Y007678D01*
X015016Y007604D01*
X014942Y007531D01*
X014796Y007531D01*
X014722Y007604D01*
X014722Y007751D01*
X014555Y007898D02*
X014482Y007971D01*
X014335Y007971D01*
X014262Y007898D01*
X014262Y007604D01*
X014335Y007531D01*
X014482Y007531D01*
X014555Y007604D01*
X011929Y006971D02*
X011929Y006531D01*
X011783Y006531D02*
X012076Y006531D01*
X011616Y006604D02*
X011616Y006898D01*
X011542Y006971D01*
X011322Y006971D01*
X011322Y006531D01*
X011542Y006531D01*
X011616Y006604D01*
X011783Y006824D02*
X011929Y006971D01*
X011155Y006531D02*
X010862Y006531D01*
X010862Y006971D01*
X010516Y006831D02*
X010222Y006831D01*
X010369Y006831D02*
X010369Y007271D01*
X010222Y007124D01*
X010055Y007051D02*
X009982Y006978D01*
X009762Y006978D01*
X009909Y006978D02*
X010055Y006831D01*
X010055Y007051D02*
X010055Y007198D01*
X009982Y007271D01*
X009762Y007271D01*
X009762Y006831D01*
X007969Y006171D02*
X007969Y005731D01*
X007822Y005731D02*
X008116Y005731D01*
X007822Y006024D02*
X007969Y006171D01*
X007655Y006171D02*
X007362Y006171D01*
X007362Y005731D01*
X007362Y005951D02*
X007509Y005951D01*
X013262Y004771D02*
X013262Y004698D01*
X013409Y004551D01*
X013409Y004331D01*
X013409Y004551D02*
X013555Y004698D01*
X013555Y004771D01*
X013722Y004698D02*
X013796Y004771D01*
X013942Y004771D01*
X014016Y004698D01*
X014016Y004624D01*
X013722Y004331D01*
X014016Y004331D01*
X018862Y002471D02*
X019082Y002471D01*
X019155Y002398D01*
X019155Y002251D01*
X019082Y002178D01*
X018862Y002178D01*
X019009Y002178D02*
X019155Y002031D01*
X019322Y002031D02*
X019616Y002324D01*
X019616Y002398D01*
X019542Y002471D01*
X019396Y002471D01*
X019322Y002398D01*
X019322Y002031D02*
X019616Y002031D01*
X018862Y002031D02*
X018862Y002471D01*
X019235Y002831D02*
X019382Y002831D01*
X019455Y002904D01*
X019622Y002904D02*
X019622Y002831D01*
X019622Y002904D02*
X019916Y003198D01*
X019916Y003271D01*
X019622Y003271D01*
X019455Y003198D02*
X019382Y003271D01*
X019235Y003271D01*
X019162Y003198D01*
X019162Y002904D01*
X019235Y002831D01*
X019235Y003831D02*
X019382Y003831D01*
X019455Y003904D01*
X019622Y003904D02*
X019622Y003978D01*
X019696Y004051D01*
X019842Y004051D01*
X019916Y003978D01*
X019916Y003904D01*
X019842Y003831D01*
X019696Y003831D01*
X019622Y003904D01*
X019696Y004051D02*
X019622Y004124D01*
X019622Y004198D01*
X019696Y004271D01*
X019842Y004271D01*
X019916Y004198D01*
X019916Y004124D01*
X019842Y004051D01*
X019455Y004198D02*
X019382Y004271D01*
X019235Y004271D01*
X019162Y004198D01*
X019162Y003904D01*
X019235Y003831D01*
X024581Y002671D02*
X024581Y002231D01*
X024581Y002378D02*
X024801Y002378D01*
X024874Y002451D01*
X024874Y002598D01*
X024801Y002671D01*
X024581Y002671D01*
X025041Y002524D02*
X025188Y002671D01*
X025188Y002231D01*
X025041Y002231D02*
X025335Y002231D01*
X025501Y002231D02*
X025795Y002524D01*
X025795Y002598D01*
X025722Y002671D01*
X025575Y002671D01*
X025501Y002598D01*
X025501Y002231D02*
X025795Y002231D01*
X024874Y002231D02*
X024727Y002378D01*
X026462Y002198D02*
X026462Y001904D01*
X026535Y001831D01*
X026682Y001831D01*
X026755Y001904D01*
X026922Y002051D02*
X027216Y002051D01*
X027142Y001831D02*
X027142Y002271D01*
X026922Y002051D01*
X026755Y002198D02*
X026682Y002271D01*
X026535Y002271D01*
X026462Y002198D01*
X029582Y002601D02*
X029982Y002601D01*
X029982Y002951D01*
X030132Y002951D02*
X030332Y002951D01*
X030332Y002251D01*
X030132Y002251D01*
X030132Y002951D01*
X030482Y002951D02*
X030482Y002601D01*
X030882Y002601D01*
X030482Y002601D02*
X030482Y002251D01*
X029982Y002251D02*
X029982Y002601D01*
X030009Y003631D02*
X030009Y003851D01*
X030155Y003998D01*
X030155Y004071D01*
X030322Y003924D02*
X030469Y004071D01*
X030469Y003631D01*
X030322Y003631D02*
X030616Y003631D01*
X030009Y003851D02*
X029862Y003998D01*
X029862Y004071D01*
X026216Y004124D02*
X025922Y003831D01*
X026216Y003831D01*
X026216Y004124D02*
X026216Y004198D01*
X026142Y004271D01*
X025996Y004271D01*
X025922Y004198D01*
X025755Y004198D02*
X025682Y004271D01*
X025535Y004271D01*
X025462Y004198D01*
X025462Y003904D01*
X025535Y003831D01*
X025682Y003831D01*
X025755Y003904D01*
X033262Y002198D02*
X033262Y001904D01*
X033335Y001831D01*
X033482Y001831D01*
X033555Y001904D01*
X033722Y001904D02*
X033796Y001831D01*
X033942Y001831D01*
X034016Y001904D01*
X034016Y002051D01*
X033942Y002124D01*
X033869Y002124D01*
X033722Y002051D01*
X033722Y002271D01*
X034016Y002271D01*
X033555Y002198D02*
X033482Y002271D01*
X033335Y002271D01*
X033262Y002198D01*
X037562Y003231D02*
X037562Y003671D01*
X037782Y003671D01*
X037855Y003598D01*
X037855Y003451D01*
X037782Y003378D01*
X037562Y003378D01*
X037709Y003378D02*
X037855Y003231D01*
X038022Y003231D02*
X038316Y003231D01*
X038169Y003231D02*
X038169Y003671D01*
X038022Y003524D01*
X038483Y003598D02*
X038483Y003304D01*
X038776Y003598D01*
X038776Y003304D01*
X038703Y003231D01*
X038556Y003231D01*
X038483Y003304D01*
X038483Y003598D02*
X038556Y003671D01*
X038703Y003671D01*
X038776Y003598D01*
X036376Y005031D02*
X036083Y005031D01*
X036229Y005031D02*
X036229Y005471D01*
X036083Y005324D01*
X035916Y005031D02*
X035622Y005031D01*
X035769Y005031D02*
X035769Y005471D01*
X035622Y005324D01*
X035455Y005251D02*
X035382Y005178D01*
X035162Y005178D01*
X035309Y005178D02*
X035455Y005031D01*
X035455Y005251D02*
X035455Y005398D01*
X035382Y005471D01*
X035162Y005471D01*
X035162Y005031D01*
X036712Y005331D02*
X037005Y005331D01*
X037172Y005331D02*
X037392Y005331D01*
X037466Y005404D01*
X037466Y005698D01*
X037392Y005771D01*
X037172Y005771D01*
X037172Y005331D01*
X036712Y005331D02*
X036712Y005771D01*
X037633Y005771D02*
X037633Y005551D01*
X037779Y005624D01*
X037853Y005624D01*
X037926Y005551D01*
X037926Y005404D01*
X037853Y005331D01*
X037706Y005331D01*
X037633Y005404D01*
X037633Y005771D02*
X037926Y005771D01*
X039362Y005698D02*
X039362Y005404D01*
X039435Y005331D01*
X039582Y005331D01*
X039655Y005404D01*
X039655Y005698D01*
X039582Y005771D01*
X039435Y005771D01*
X039362Y005698D01*
X039509Y005478D02*
X039655Y005331D01*
X039822Y005404D02*
X039896Y005331D01*
X040042Y005331D01*
X040116Y005404D01*
X040116Y005478D01*
X040042Y005551D01*
X039822Y005551D01*
X039822Y005404D01*
X039822Y005551D02*
X039969Y005698D01*
X040116Y005771D01*
X041362Y005471D02*
X041362Y005031D01*
X041362Y005178D02*
X041582Y005178D01*
X041655Y005251D01*
X041655Y005398D01*
X041582Y005471D01*
X041362Y005471D01*
X041822Y005398D02*
X041896Y005471D01*
X042042Y005471D01*
X042116Y005398D01*
X042116Y005104D01*
X042042Y005031D01*
X041896Y005031D01*
X041822Y005104D01*
X041896Y005251D02*
X042116Y005251D01*
X041896Y005251D02*
X041822Y005324D01*
X041822Y005398D01*
X041509Y005178D02*
X041655Y005031D01*
X042712Y005331D02*
X043005Y005331D01*
X043172Y005331D02*
X043392Y005331D01*
X043466Y005404D01*
X043466Y005698D01*
X043392Y005771D01*
X043172Y005771D01*
X043172Y005331D01*
X042712Y005331D02*
X042712Y005771D01*
X043633Y005551D02*
X043926Y005551D01*
X043853Y005331D02*
X043853Y005771D01*
X043633Y005551D01*
X045362Y005404D02*
X045362Y005698D01*
X045435Y005771D01*
X045582Y005771D01*
X045655Y005698D01*
X045655Y005404D01*
X045582Y005331D01*
X045435Y005331D01*
X045362Y005404D01*
X045509Y005478D02*
X045655Y005331D01*
X045822Y005404D02*
X045896Y005331D01*
X046042Y005331D01*
X046116Y005404D01*
X046116Y005551D01*
X046042Y005624D01*
X045969Y005624D01*
X045822Y005551D01*
X045822Y005771D01*
X046116Y005771D01*
X044442Y003671D02*
X044516Y003598D01*
X044516Y003524D01*
X044442Y003451D01*
X044296Y003451D01*
X044222Y003524D01*
X044222Y003598D01*
X044296Y003671D01*
X044442Y003671D01*
X044442Y003451D02*
X044516Y003378D01*
X044516Y003304D01*
X044442Y003231D01*
X044296Y003231D01*
X044222Y003304D01*
X044222Y003378D01*
X044296Y003451D01*
X044055Y003451D02*
X044055Y003598D01*
X043982Y003671D01*
X043762Y003671D01*
X043762Y003231D01*
X043762Y003378D02*
X043982Y003378D01*
X044055Y003451D01*
X043909Y003378D02*
X044055Y003231D01*
X017776Y009304D02*
X017776Y009378D01*
X017703Y009451D01*
X017629Y009451D01*
X017703Y009451D02*
X017776Y009524D01*
X017776Y009598D01*
X017703Y009671D01*
X017556Y009671D01*
X017483Y009598D01*
X013616Y010531D02*
X013322Y010531D01*
X013616Y010824D01*
X013616Y010898D01*
X013542Y010971D01*
X013396Y010971D01*
X013322Y010898D01*
X013155Y010898D02*
X013155Y010604D01*
X013082Y010531D01*
X012935Y010531D01*
X012862Y010604D01*
X012862Y010898D01*
X012935Y010971D01*
X013082Y010971D01*
X013155Y010898D01*
X013009Y010678D02*
X013155Y010531D01*
X011616Y010531D02*
X011322Y010531D01*
X011469Y010531D02*
X011469Y010971D01*
X011322Y010824D01*
X011155Y010898D02*
X011155Y010604D01*
X011082Y010531D01*
X010935Y010531D01*
X010862Y010604D01*
X010862Y010898D01*
X010935Y010971D01*
X011082Y010971D01*
X011155Y010898D01*
X011009Y010678D02*
X011155Y010531D01*
X007916Y010448D02*
X007842Y010521D01*
X007696Y010521D01*
X007622Y010448D01*
X007455Y010521D02*
X007162Y010521D01*
X007162Y010081D01*
X007162Y010301D02*
X007309Y010301D01*
X007622Y010081D02*
X007916Y010374D01*
X007916Y010448D01*
X007916Y010081D02*
X007622Y010081D01*
X006576Y009498D02*
X006576Y009424D01*
X006503Y009351D01*
X006576Y009278D01*
X006576Y009204D01*
X006503Y009131D01*
X006356Y009131D01*
X006283Y009204D01*
X006116Y009131D02*
X006116Y009571D01*
X006283Y009498D02*
X006356Y009571D01*
X006503Y009571D01*
X006576Y009498D01*
X006503Y009351D02*
X006429Y009351D01*
X006116Y009131D02*
X005822Y009571D01*
X005822Y009131D01*
X005655Y009204D02*
X005582Y009131D01*
X005435Y009131D01*
X005362Y009204D01*
X005362Y009498D01*
X005435Y009571D01*
X005582Y009571D01*
X005655Y009498D01*
X015362Y013504D02*
X015435Y013431D01*
X015582Y013431D01*
X015655Y013504D01*
X015655Y013871D01*
X015822Y013798D02*
X015896Y013871D01*
X016042Y013871D01*
X016116Y013798D01*
X016116Y013724D01*
X016042Y013651D01*
X016116Y013578D01*
X016116Y013504D01*
X016042Y013431D01*
X015896Y013431D01*
X015822Y013504D01*
X015969Y013651D02*
X016042Y013651D01*
X015362Y013504D02*
X015362Y013871D01*
X010816Y014304D02*
X010742Y014231D01*
X010596Y014231D01*
X010522Y014304D01*
X010355Y014304D02*
X010282Y014231D01*
X010135Y014231D01*
X010062Y014304D01*
X010062Y014598D01*
X010135Y014671D01*
X010282Y014671D01*
X010355Y014598D01*
X010355Y014304D01*
X010355Y014231D02*
X010209Y014378D01*
X010522Y014598D02*
X010596Y014671D01*
X010742Y014671D01*
X010816Y014598D01*
X010816Y014524D01*
X010742Y014451D01*
X010816Y014378D01*
X010816Y014304D01*
X010742Y014451D02*
X010669Y014451D01*
X009216Y015031D02*
X008922Y015031D01*
X009069Y015031D02*
X009069Y015471D01*
X008922Y015324D01*
X008755Y015398D02*
X008682Y015471D01*
X008462Y015471D01*
X008462Y015031D01*
X008682Y015031D01*
X008755Y015104D01*
X008755Y015398D01*
X008116Y015251D02*
X007822Y015251D01*
X008042Y015471D01*
X008042Y015031D01*
X007655Y015031D02*
X007509Y015178D01*
X007582Y015178D02*
X007362Y015178D01*
X007362Y015031D02*
X007362Y015471D01*
X007582Y015471D01*
X007655Y015398D01*
X007655Y015251D01*
X007582Y015178D01*
X010662Y017031D02*
X010955Y017031D01*
X011122Y017031D02*
X011342Y017031D01*
X011416Y017104D01*
X011416Y017398D01*
X011342Y017471D01*
X011122Y017471D01*
X011122Y017031D01*
X010662Y017031D02*
X010662Y017471D01*
X011583Y017398D02*
X011656Y017471D01*
X011803Y017471D01*
X011876Y017398D01*
X011876Y017324D01*
X011583Y017031D01*
X011876Y017031D01*
X013362Y017031D02*
X013362Y017471D01*
X013582Y017471D01*
X013655Y017398D01*
X013655Y017251D01*
X013582Y017178D01*
X013362Y017178D01*
X013509Y017178D02*
X013655Y017031D01*
X013822Y017104D02*
X013896Y017031D01*
X014042Y017031D01*
X014116Y017104D01*
X014116Y017178D01*
X014042Y017251D01*
X013969Y017251D01*
X014042Y017251D02*
X014116Y017324D01*
X014116Y017398D01*
X014042Y017471D01*
X013896Y017471D01*
X013822Y017398D01*
X016862Y017398D02*
X016862Y017104D01*
X016935Y017031D01*
X017082Y017031D01*
X017155Y017104D01*
X017322Y017104D02*
X017396Y017031D01*
X017542Y017031D01*
X017616Y017104D01*
X017616Y017398D01*
X017542Y017471D01*
X017396Y017471D01*
X017322Y017398D01*
X017322Y017324D01*
X017396Y017251D01*
X017616Y017251D01*
X017155Y017398D02*
X017082Y017471D01*
X016935Y017471D01*
X016862Y017398D01*
X013116Y019354D02*
X013042Y019281D01*
X012896Y019281D01*
X012822Y019354D01*
X012822Y019501D02*
X012969Y019574D01*
X013042Y019574D01*
X013116Y019501D01*
X013116Y019354D01*
X012822Y019501D02*
X012822Y019721D01*
X013116Y019721D01*
X012655Y019648D02*
X012655Y019501D01*
X012582Y019428D01*
X012362Y019428D01*
X012509Y019428D02*
X012655Y019281D01*
X012362Y019281D02*
X012362Y019721D01*
X012582Y019721D01*
X012655Y019648D01*
X011376Y019951D02*
X011083Y019951D01*
X011303Y020171D01*
X011303Y019731D01*
X010916Y019731D02*
X010916Y020171D01*
X010622Y020171D02*
X010916Y019731D01*
X010622Y019731D02*
X010622Y020171D01*
X010455Y020098D02*
X010382Y020171D01*
X010235Y020171D01*
X010162Y020098D01*
X010162Y019804D01*
X010235Y019731D01*
X010382Y019731D01*
X010455Y019804D01*
X005757Y017971D02*
X005530Y017631D01*
X005389Y017631D02*
X005275Y017744D01*
X005332Y017744D02*
X005162Y017744D01*
X005162Y017631D02*
X005162Y017971D01*
X005332Y017971D01*
X005389Y017914D01*
X005389Y017801D01*
X005332Y017744D01*
X005530Y017971D02*
X005757Y017631D01*
X005898Y017631D02*
X005955Y017631D01*
X005955Y017687D01*
X005898Y017687D01*
X005898Y017631D01*
X019962Y019931D02*
X020182Y019931D01*
X020255Y020004D01*
X020255Y020078D01*
X020182Y020151D01*
X019962Y020151D01*
X020182Y020151D02*
X020255Y020224D01*
X020255Y020298D01*
X020182Y020371D01*
X019962Y020371D01*
X019962Y019931D01*
X020422Y019931D02*
X020422Y020224D01*
X020569Y020371D01*
X020716Y020224D01*
X020716Y019931D01*
X020716Y020151D02*
X020422Y020151D01*
X020883Y020371D02*
X021176Y020371D01*
X021029Y020371D02*
X021029Y019931D01*
X021490Y019931D02*
X021490Y020371D01*
X021636Y020371D02*
X021343Y020371D01*
X028062Y017598D02*
X028062Y017304D01*
X028135Y017231D01*
X028282Y017231D01*
X028355Y017304D01*
X028522Y017231D02*
X028522Y017671D01*
X028816Y017231D01*
X028816Y017671D01*
X028983Y017598D02*
X028983Y017524D01*
X029056Y017451D01*
X029203Y017451D01*
X029276Y017378D01*
X029276Y017304D01*
X029203Y017231D01*
X029056Y017231D01*
X028983Y017304D01*
X028983Y017378D01*
X029056Y017451D01*
X029203Y017451D02*
X029276Y017524D01*
X029276Y017598D01*
X029203Y017671D01*
X029056Y017671D01*
X028983Y017598D01*
X028355Y017598D02*
X028282Y017671D01*
X028135Y017671D01*
X028062Y017598D01*
X029705Y019481D02*
X029705Y019921D01*
X029925Y019921D01*
X029999Y019848D01*
X029999Y019701D01*
X029925Y019628D01*
X029705Y019628D01*
X029852Y019628D02*
X029999Y019481D01*
X030165Y019481D02*
X030165Y019921D01*
X030386Y019921D01*
X030459Y019848D01*
X030459Y019701D01*
X030386Y019628D01*
X030165Y019628D01*
X032562Y020204D02*
X032562Y020498D01*
X032635Y020571D01*
X032782Y020571D01*
X032855Y020498D01*
X033022Y020571D02*
X033022Y020131D01*
X032855Y020204D02*
X032782Y020131D01*
X032635Y020131D01*
X032562Y020204D01*
X033022Y020571D02*
X033316Y020131D01*
X033316Y020571D01*
X033483Y020498D02*
X033556Y020571D01*
X033703Y020571D01*
X033776Y020498D01*
X033776Y020424D01*
X033483Y020131D01*
X033776Y020131D01*
X047362Y013971D02*
X047582Y013971D01*
X047655Y013898D01*
X047655Y013604D01*
X047582Y013531D01*
X047362Y013531D01*
X047362Y013971D01*
X047822Y013898D02*
X047896Y013971D01*
X048042Y013971D01*
X048116Y013898D01*
X048116Y013824D01*
X047822Y013531D01*
X048116Y013531D01*
X056562Y013367D02*
X056902Y013367D01*
X056902Y013736D02*
X056562Y013736D01*
X056732Y013736D02*
X056732Y013849D01*
X017776Y011751D02*
X017483Y011751D01*
X017703Y011971D01*
X017703Y011531D01*
X017316Y011531D02*
X017022Y011531D01*
X017169Y011531D02*
X017169Y011971D01*
X017022Y011824D01*
X016855Y011898D02*
X016855Y011751D01*
X016782Y011678D01*
X016562Y011678D01*
X016709Y011678D02*
X016855Y011531D01*
X016562Y011531D02*
X016562Y011971D01*
X016782Y011971D01*
X016855Y011898D01*
X006429Y003471D02*
X006283Y003324D01*
X006429Y003471D02*
X006429Y003031D01*
X006283Y003031D02*
X006576Y003031D01*
X006116Y003031D02*
X006116Y003471D01*
X005822Y003471D02*
X006116Y003031D01*
X005822Y003031D02*
X005822Y003471D01*
X005655Y003398D02*
X005582Y003471D01*
X005435Y003471D01*
X005362Y003398D01*
X005362Y003104D01*
X005435Y003031D01*
X005582Y003031D01*
X005655Y003104D01*
X012162Y001398D02*
X012162Y001104D01*
X012235Y001031D01*
X012382Y001031D01*
X012455Y001104D01*
X012622Y001031D02*
X012916Y001031D01*
X012769Y001031D02*
X012769Y001471D01*
X012622Y001324D01*
X012455Y001398D02*
X012382Y001471D01*
X012235Y001471D01*
X012162Y001398D01*
D12*
X012011Y001557D02*
X010732Y001557D01*
X010732Y001509D02*
X011969Y001509D01*
X011926Y001460D02*
X010732Y001460D01*
X010732Y001411D02*
X011878Y001411D01*
X011901Y001432D02*
X011738Y001289D01*
X011559Y001169D01*
X011365Y001073D01*
X011160Y001004D01*
X010948Y000961D01*
X010732Y000947D01*
X010732Y004254D01*
X010948Y004240D01*
X011160Y004198D01*
X011365Y004128D01*
X011559Y004033D01*
X010732Y004033D01*
X010732Y004081D02*
X011460Y004081D01*
X011559Y004033D02*
X011738Y003913D01*
X011901Y003770D01*
X012044Y003607D01*
X012164Y003428D01*
X012259Y003234D01*
X012329Y003029D01*
X012371Y002817D01*
X012385Y002601D01*
X012371Y002385D01*
X012329Y002173D01*
X012259Y001968D01*
X012164Y001774D01*
X012044Y001594D01*
X011901Y001432D01*
X011823Y001363D02*
X010732Y001363D01*
X010732Y001314D02*
X011767Y001314D01*
X011704Y001266D02*
X010732Y001266D01*
X010732Y001217D02*
X011631Y001217D01*
X011559Y001169D02*
X010732Y001169D01*
X010732Y001120D02*
X011460Y001120D01*
X011360Y001072D02*
X010732Y001072D01*
X010732Y001023D02*
X011217Y001023D01*
X011014Y000975D02*
X010732Y000975D01*
X010732Y001606D02*
X012051Y001606D01*
X012084Y001654D02*
X010732Y001654D01*
X010732Y001703D02*
X012116Y001703D01*
X012149Y001751D02*
X010732Y001751D01*
X010732Y001800D02*
X012177Y001800D01*
X012201Y001848D02*
X010732Y001848D01*
X010732Y001897D02*
X012224Y001897D01*
X012248Y001945D02*
X010732Y001945D01*
X010732Y001994D02*
X012268Y001994D01*
X012285Y002043D02*
X010732Y002043D01*
X010732Y002091D02*
X012301Y002091D01*
X012318Y002140D02*
X010732Y002140D01*
X010732Y002188D02*
X012332Y002188D01*
X012342Y002237D02*
X010732Y002237D01*
X010732Y002285D02*
X012351Y002285D01*
X012361Y002334D02*
X010732Y002334D01*
X010732Y002382D02*
X012371Y002382D01*
X012374Y002431D02*
X010732Y002431D01*
X010732Y002479D02*
X012377Y002479D01*
X012381Y002528D02*
X010732Y002528D01*
X010732Y002576D02*
X012384Y002576D01*
X012384Y002625D02*
X010732Y002625D01*
X009078Y002601D02*
X009080Y002682D01*
X009086Y002763D01*
X009096Y002844D01*
X009110Y002924D01*
X009128Y003003D01*
X009149Y003081D01*
X009175Y003158D01*
X009204Y003234D01*
X009237Y003308D01*
X009273Y003381D01*
X009313Y003451D01*
X009357Y003520D01*
X009403Y003586D01*
X009453Y003650D01*
X009506Y003712D01*
X009562Y003771D01*
X009621Y003827D01*
X009683Y003880D01*
X009747Y003930D01*
X009813Y003976D01*
X009882Y004020D01*
X009952Y004060D01*
X010025Y004096D01*
X010099Y004129D01*
X010175Y004158D01*
X010252Y004184D01*
X010330Y004205D01*
X010409Y004223D01*
X010489Y004237D01*
X010570Y004247D01*
X010651Y004253D01*
X010732Y004255D01*
X010813Y004253D01*
X010894Y004247D01*
X010975Y004237D01*
X011055Y004223D01*
X011134Y004205D01*
X011212Y004184D01*
X011289Y004158D01*
X011365Y004129D01*
X011439Y004096D01*
X011512Y004060D01*
X011582Y004020D01*
X011651Y003976D01*
X011717Y003930D01*
X011781Y003880D01*
X011843Y003827D01*
X011902Y003771D01*
X011958Y003712D01*
X012011Y003650D01*
X012061Y003586D01*
X012107Y003520D01*
X012151Y003451D01*
X012191Y003381D01*
X012227Y003308D01*
X012260Y003234D01*
X012289Y003158D01*
X012315Y003081D01*
X012336Y003003D01*
X012354Y002924D01*
X012368Y002844D01*
X012378Y002763D01*
X012384Y002682D01*
X012386Y002601D01*
X012384Y002520D01*
X012378Y002439D01*
X012368Y002358D01*
X012354Y002278D01*
X012336Y002199D01*
X012315Y002121D01*
X012289Y002044D01*
X012260Y001968D01*
X012227Y001894D01*
X012191Y001821D01*
X012151Y001751D01*
X012107Y001682D01*
X012061Y001616D01*
X012011Y001552D01*
X011958Y001490D01*
X011902Y001431D01*
X011843Y001375D01*
X011781Y001322D01*
X011717Y001272D01*
X011651Y001226D01*
X011582Y001182D01*
X011512Y001142D01*
X011439Y001106D01*
X011365Y001073D01*
X011289Y001044D01*
X011212Y001018D01*
X011134Y000997D01*
X011055Y000979D01*
X010975Y000965D01*
X010894Y000955D01*
X010813Y000949D01*
X010732Y000947D01*
X010651Y000949D01*
X010570Y000955D01*
X010489Y000965D01*
X010409Y000979D01*
X010330Y000997D01*
X010252Y001018D01*
X010175Y001044D01*
X010099Y001073D01*
X010025Y001106D01*
X009952Y001142D01*
X009882Y001182D01*
X009813Y001226D01*
X009747Y001272D01*
X009683Y001322D01*
X009621Y001375D01*
X009562Y001431D01*
X009506Y001490D01*
X009453Y001552D01*
X009403Y001616D01*
X009357Y001682D01*
X009313Y001751D01*
X009273Y001821D01*
X009237Y001894D01*
X009204Y001968D01*
X009175Y002044D01*
X009149Y002121D01*
X009128Y002199D01*
X009110Y002278D01*
X009096Y002358D01*
X009086Y002439D01*
X009080Y002520D01*
X009078Y002601D01*
X007866Y002644D02*
X007598Y002644D01*
X007558Y002646D01*
X007519Y002651D01*
X007480Y002660D01*
X007442Y002672D01*
X007405Y002687D01*
X007369Y002705D01*
X007336Y002727D01*
X007304Y002751D01*
X007275Y002778D01*
X007248Y002807D01*
X007224Y002839D01*
X007202Y002873D01*
X007184Y002908D01*
X007169Y002945D01*
X007157Y002983D01*
X007148Y003022D01*
X007143Y003061D01*
X007141Y003101D01*
X007141Y005101D01*
X007143Y005141D01*
X007148Y005180D01*
X007157Y005219D01*
X007169Y005257D01*
X007184Y005294D01*
X007202Y005330D01*
X007224Y005363D01*
X007248Y005395D01*
X007275Y005424D01*
X007304Y005451D01*
X007336Y005475D01*
X007370Y005497D01*
X007405Y005515D01*
X007442Y005530D01*
X007480Y005542D01*
X007519Y005551D01*
X007558Y005556D01*
X007598Y005558D01*
X007598Y005557D02*
X007866Y005557D01*
X007866Y005558D02*
X007906Y005556D01*
X007945Y005551D01*
X007984Y005542D01*
X008022Y005530D01*
X008059Y005515D01*
X008095Y005497D01*
X008128Y005475D01*
X008160Y005451D01*
X008189Y005424D01*
X008216Y005395D01*
X008240Y005363D01*
X008262Y005329D01*
X008280Y005294D01*
X008295Y005257D01*
X008307Y005219D01*
X008316Y005180D01*
X008321Y005141D01*
X008323Y005101D01*
X008322Y005101D02*
X008322Y003101D01*
X008323Y003101D02*
X008321Y003061D01*
X008316Y003022D01*
X008307Y002983D01*
X008295Y002945D01*
X008280Y002908D01*
X008262Y002872D01*
X008240Y002839D01*
X008216Y002807D01*
X008189Y002778D01*
X008160Y002751D01*
X008128Y002727D01*
X008094Y002705D01*
X008059Y002687D01*
X008022Y002672D01*
X007984Y002660D01*
X007945Y002651D01*
X007906Y002646D01*
X007866Y002644D01*
X007732Y003401D02*
X007732Y003501D01*
X007432Y003601D01*
X008032Y003801D01*
X007432Y004001D01*
X008032Y004201D01*
X007432Y004401D01*
X008032Y004601D01*
X007732Y004701D01*
X007732Y004801D01*
X007332Y004601D02*
X008132Y003601D01*
X006712Y003699D02*
X000137Y003699D01*
X000137Y008502D01*
X006712Y008502D01*
X006712Y003699D01*
X004787Y004501D02*
X004787Y007701D01*
X007232Y008760D02*
X009232Y008760D01*
X008732Y009051D02*
X008832Y009351D01*
X008932Y009351D01*
X009232Y009942D02*
X009272Y009940D01*
X009311Y009935D01*
X009350Y009926D01*
X009388Y009914D01*
X009425Y009899D01*
X009461Y009881D01*
X009494Y009859D01*
X009526Y009835D01*
X009555Y009808D01*
X009582Y009779D01*
X009606Y009747D01*
X009628Y009713D01*
X009646Y009678D01*
X009661Y009641D01*
X009673Y009603D01*
X009682Y009564D01*
X009687Y009525D01*
X009689Y009485D01*
X009689Y009217D01*
X009687Y009177D01*
X009682Y009138D01*
X009673Y009099D01*
X009661Y009061D01*
X009646Y009024D01*
X009628Y008988D01*
X009606Y008955D01*
X009582Y008923D01*
X009555Y008894D01*
X009526Y008867D01*
X009494Y008843D01*
X009460Y008821D01*
X009425Y008803D01*
X009388Y008788D01*
X009350Y008776D01*
X009311Y008767D01*
X009272Y008762D01*
X009232Y008760D01*
X008732Y009051D02*
X008532Y009651D01*
X008332Y009051D01*
X008132Y009651D01*
X007932Y009051D01*
X007732Y009651D01*
X007632Y009351D01*
X007532Y009351D01*
X007232Y009942D02*
X007192Y009940D01*
X007153Y009935D01*
X007114Y009926D01*
X007076Y009914D01*
X007039Y009899D01*
X007004Y009881D01*
X006970Y009859D01*
X006938Y009835D01*
X006909Y009808D01*
X006882Y009779D01*
X006858Y009747D01*
X006836Y009714D01*
X006818Y009678D01*
X006803Y009641D01*
X006791Y009603D01*
X006782Y009564D01*
X006777Y009525D01*
X006775Y009485D01*
X006775Y009217D01*
X006777Y009177D01*
X006782Y009138D01*
X006791Y009099D01*
X006803Y009061D01*
X006818Y009024D01*
X006836Y008989D01*
X006858Y008955D01*
X006882Y008923D01*
X006909Y008894D01*
X006938Y008867D01*
X006970Y008843D01*
X007003Y008821D01*
X007039Y008803D01*
X007076Y008788D01*
X007114Y008776D01*
X007153Y008767D01*
X007192Y008762D01*
X007232Y008760D01*
X007732Y008951D02*
X008732Y009751D01*
X009232Y009941D02*
X007232Y009941D01*
X005035Y009428D02*
X000311Y009428D01*
X000311Y017774D01*
X005035Y017774D01*
X005035Y009428D01*
X001137Y009664D02*
X001137Y017538D01*
X001176Y019392D02*
X001178Y019456D01*
X001184Y019519D01*
X001194Y019582D01*
X001208Y019644D01*
X001225Y019705D01*
X001247Y019765D01*
X001272Y019824D01*
X001300Y019881D01*
X001332Y019936D01*
X001368Y019989D01*
X001407Y020039D01*
X001448Y020087D01*
X001493Y020133D01*
X001540Y020175D01*
X001590Y020215D01*
X001643Y020251D01*
X001697Y020284D01*
X001754Y020314D01*
X001812Y020340D01*
X001871Y020362D01*
X001932Y020380D01*
X001994Y020395D01*
X002057Y020406D01*
X002120Y020413D01*
X002184Y020416D01*
X002248Y020415D01*
X002311Y020410D01*
X002374Y020401D01*
X002437Y020388D01*
X002498Y020372D01*
X002559Y020351D01*
X002617Y020327D01*
X002675Y020299D01*
X002730Y020268D01*
X002784Y020233D01*
X002835Y020195D01*
X002884Y020154D01*
X002930Y020110D01*
X002973Y020064D01*
X003013Y020014D01*
X003050Y019963D01*
X003084Y019909D01*
X003115Y019853D01*
X003141Y019795D01*
X003165Y019736D01*
X003184Y019675D01*
X003200Y019613D01*
X003212Y019551D01*
X003220Y019487D01*
X003224Y019424D01*
X003224Y019360D01*
X003220Y019297D01*
X003212Y019233D01*
X003200Y019171D01*
X003184Y019109D01*
X003165Y019048D01*
X003141Y018989D01*
X003115Y018931D01*
X003084Y018875D01*
X003050Y018821D01*
X003013Y018770D01*
X002973Y018720D01*
X002930Y018674D01*
X002884Y018630D01*
X002835Y018589D01*
X002784Y018551D01*
X002730Y018516D01*
X002675Y018485D01*
X002617Y018457D01*
X002559Y018433D01*
X002498Y018412D01*
X002437Y018396D01*
X002374Y018383D01*
X002311Y018374D01*
X002248Y018369D01*
X002184Y018368D01*
X002120Y018371D01*
X002057Y018378D01*
X001994Y018389D01*
X001932Y018404D01*
X001871Y018422D01*
X001812Y018444D01*
X001754Y018470D01*
X001697Y018500D01*
X001643Y018533D01*
X001590Y018569D01*
X001540Y018609D01*
X001493Y018651D01*
X001448Y018697D01*
X001407Y018745D01*
X001368Y018795D01*
X001332Y018848D01*
X001300Y018903D01*
X001272Y018960D01*
X001247Y019019D01*
X001225Y019079D01*
X001208Y019140D01*
X001194Y019202D01*
X001184Y019265D01*
X001178Y019328D01*
X001176Y019392D01*
X003982Y019451D02*
X009982Y019451D01*
X009982Y020451D01*
X003982Y020451D01*
X003982Y019451D01*
X009282Y020751D02*
X009482Y020551D01*
X009682Y020751D01*
X009282Y020751D01*
X009301Y020732D02*
X009663Y020732D01*
X009614Y020683D02*
X009349Y020683D01*
X009398Y020635D02*
X009566Y020635D01*
X009517Y020586D02*
X009447Y020586D01*
X012232Y019151D02*
X012432Y018551D01*
X012632Y019151D01*
X012832Y018551D01*
X013032Y019151D01*
X013232Y018551D01*
X013332Y018851D01*
X013932Y018851D01*
X012232Y019151D02*
X012132Y018851D01*
X011532Y018851D01*
X017032Y016901D02*
X017032Y016301D01*
X017432Y016301D02*
X017432Y016901D01*
X014032Y015601D02*
X013732Y015701D01*
X013732Y016301D01*
X014032Y015601D02*
X013432Y015401D01*
X014032Y015201D01*
X013432Y015001D01*
X014032Y014801D01*
X013432Y014601D01*
X013732Y014501D01*
X013732Y013901D01*
X012432Y014101D02*
X012432Y012101D01*
X010032Y012101D01*
X010032Y014101D01*
X010832Y014101D01*
X010834Y014062D01*
X010840Y014023D01*
X010849Y013985D01*
X010862Y013948D01*
X010879Y013912D01*
X010899Y013879D01*
X010923Y013847D01*
X010949Y013818D01*
X010978Y013792D01*
X011010Y013768D01*
X011043Y013748D01*
X011079Y013731D01*
X011116Y013718D01*
X011154Y013709D01*
X011193Y013703D01*
X011232Y013701D01*
X011271Y013703D01*
X011310Y013709D01*
X011348Y013718D01*
X011385Y013731D01*
X011421Y013748D01*
X011454Y013768D01*
X011486Y013792D01*
X011515Y013818D01*
X011541Y013847D01*
X011565Y013879D01*
X011585Y013912D01*
X011602Y013948D01*
X011615Y013985D01*
X011624Y014023D01*
X011630Y014062D01*
X011632Y014101D01*
X012432Y014101D01*
X011742Y015481D02*
X011542Y015481D01*
X011732Y015481D02*
X010732Y015481D01*
X010722Y015481D02*
X010902Y015481D01*
X008732Y014301D02*
X008732Y013901D01*
X008432Y013401D01*
X009032Y013401D01*
X008732Y013901D01*
X008432Y013901D01*
X008732Y013901D02*
X009032Y013901D01*
X008732Y013901D02*
X008732Y012901D01*
X008032Y012801D02*
X007432Y013001D01*
X008032Y013201D01*
X007432Y013401D01*
X008032Y013601D01*
X007732Y013701D01*
X007732Y014301D01*
X005432Y015401D02*
X005232Y015601D01*
X005432Y015801D01*
X005432Y015401D01*
X005432Y015440D02*
X005392Y015440D01*
X005432Y015489D02*
X005344Y015489D01*
X005295Y015538D02*
X005432Y015538D01*
X005432Y015586D02*
X005246Y015586D01*
X005266Y015635D02*
X005432Y015635D01*
X005432Y015683D02*
X005314Y015683D01*
X005363Y015732D02*
X005432Y015732D01*
X005432Y015780D02*
X005411Y015780D01*
X007432Y012601D02*
X008032Y012801D01*
X007732Y012501D02*
X007432Y012601D01*
X007732Y012501D02*
X007732Y011901D01*
X005432Y011601D02*
X005232Y011401D01*
X005232Y011801D01*
X005432Y011601D01*
X005427Y011606D02*
X005232Y011606D01*
X005232Y011654D02*
X005379Y011654D01*
X005330Y011703D02*
X005232Y011703D01*
X005232Y011751D02*
X005281Y011751D01*
X005233Y011800D02*
X005232Y011800D01*
X005232Y011557D02*
X005388Y011557D01*
X005339Y011508D02*
X005232Y011508D01*
X005232Y011460D02*
X005291Y011460D01*
X005242Y011411D02*
X005232Y011411D01*
X011282Y010150D02*
X011282Y009654D01*
X011282Y009548D01*
X011282Y008654D01*
X011282Y008548D01*
X011282Y008052D01*
X011882Y008276D02*
X011882Y009926D01*
X013282Y010150D02*
X013282Y009654D01*
X013282Y009548D01*
X013282Y008654D01*
X013282Y008548D01*
X013282Y008052D01*
X013882Y008276D02*
X013882Y009926D01*
X016032Y010101D02*
X016632Y010101D01*
X016732Y010401D01*
X016932Y009801D01*
X017132Y010401D01*
X017332Y009801D01*
X017532Y010401D01*
X017732Y009801D01*
X017832Y010101D01*
X018432Y010101D01*
X017732Y010801D02*
X017532Y011401D01*
X017332Y010801D01*
X017132Y011401D01*
X016932Y010801D01*
X016732Y011401D01*
X016632Y011101D01*
X016032Y011101D01*
X017732Y010801D02*
X017832Y011101D01*
X018432Y011101D01*
X020063Y011321D02*
X020063Y018880D01*
X021854Y019825D02*
X021854Y020711D01*
X024610Y020711D01*
X024610Y019825D01*
X026401Y018880D02*
X026401Y011321D01*
X028000Y011101D02*
X028000Y013215D01*
X028452Y013215D01*
X028452Y011554D01*
X031011Y011554D01*
X031011Y016648D01*
X028452Y016648D01*
X028452Y014987D01*
X028000Y014987D01*
X028000Y017101D01*
X031464Y017101D01*
X031464Y011101D01*
X028000Y011101D01*
X024610Y010376D02*
X024610Y009491D01*
X021854Y009491D01*
X021854Y010376D01*
X027032Y009401D02*
X027032Y008801D01*
X027432Y008801D02*
X027432Y009401D01*
X032523Y011231D02*
X034374Y011231D01*
X034374Y019971D01*
X032523Y019971D01*
X032523Y011231D01*
X035432Y011801D02*
X035732Y011801D01*
X036032Y012301D01*
X035432Y012301D01*
X035732Y011801D01*
X036032Y011801D01*
X035732Y011801D02*
X035732Y011401D01*
X035732Y011801D02*
X035732Y012801D01*
X036606Y014632D02*
X040858Y014632D01*
X040858Y008412D01*
X036606Y008412D01*
X036606Y014632D01*
X035232Y016593D02*
X035232Y020215D01*
X041232Y020215D01*
X041232Y016593D01*
X035232Y016593D01*
X041232Y016593D02*
X041232Y020215D01*
X047232Y020215D01*
X047232Y016593D01*
X041232Y016593D01*
X042606Y014632D02*
X046858Y014632D01*
X046858Y008412D01*
X042606Y008412D01*
X042606Y014632D01*
X041732Y012801D02*
X041732Y011801D01*
X042032Y012301D01*
X041432Y012301D01*
X041732Y011801D01*
X042032Y011801D01*
X041732Y011801D02*
X041732Y011401D01*
X041732Y011801D02*
X041432Y011801D01*
X047432Y011801D02*
X047732Y011801D01*
X048032Y012301D01*
X047432Y012301D01*
X047732Y011801D01*
X048032Y011801D01*
X047732Y011801D02*
X047732Y011401D01*
X047732Y011801D02*
X047732Y012801D01*
X048606Y014632D02*
X052858Y014632D01*
X052858Y008412D01*
X048606Y008412D01*
X048606Y014632D01*
X047232Y016593D02*
X047232Y020215D01*
X053232Y020215D01*
X053232Y016593D01*
X047232Y016593D01*
X053683Y015400D02*
X053683Y012802D01*
X056281Y012802D01*
X056281Y015400D01*
X053683Y015400D01*
X054273Y014101D02*
X054275Y014154D01*
X054281Y014207D01*
X054291Y014259D01*
X054304Y014310D01*
X054322Y014360D01*
X054343Y014409D01*
X054368Y014456D01*
X054396Y014500D01*
X054428Y014543D01*
X054462Y014583D01*
X054500Y014621D01*
X054540Y014655D01*
X054583Y014687D01*
X054628Y014715D01*
X054674Y014740D01*
X054723Y014761D01*
X054773Y014779D01*
X054824Y014792D01*
X054876Y014802D01*
X054929Y014808D01*
X054982Y014810D01*
X055035Y014808D01*
X055088Y014802D01*
X055140Y014792D01*
X055191Y014779D01*
X055241Y014761D01*
X055290Y014740D01*
X055337Y014715D01*
X055381Y014687D01*
X055424Y014655D01*
X055464Y014621D01*
X055502Y014583D01*
X055536Y014543D01*
X055568Y014500D01*
X055596Y014455D01*
X055621Y014409D01*
X055642Y014360D01*
X055660Y014310D01*
X055673Y014259D01*
X055683Y014207D01*
X055689Y014154D01*
X055691Y014101D01*
X055689Y014048D01*
X055683Y013995D01*
X055673Y013943D01*
X055660Y013892D01*
X055642Y013842D01*
X055621Y013793D01*
X055596Y013746D01*
X055568Y013702D01*
X055536Y013659D01*
X055502Y013619D01*
X055464Y013581D01*
X055424Y013547D01*
X055381Y013515D01*
X055336Y013487D01*
X055290Y013462D01*
X055241Y013441D01*
X055191Y013423D01*
X055140Y013410D01*
X055088Y013400D01*
X055035Y013394D01*
X054982Y013392D01*
X054929Y013394D01*
X054876Y013400D01*
X054824Y013410D01*
X054773Y013423D01*
X054723Y013441D01*
X054674Y013462D01*
X054627Y013487D01*
X054583Y013515D01*
X054540Y013547D01*
X054500Y013581D01*
X054462Y013619D01*
X054428Y013659D01*
X054396Y013702D01*
X054368Y013747D01*
X054343Y013793D01*
X054322Y013842D01*
X054304Y013892D01*
X054291Y013943D01*
X054281Y013995D01*
X054275Y014048D01*
X054273Y014101D01*
X053683Y008900D02*
X053683Y006302D01*
X056281Y006302D01*
X056281Y008900D01*
X053683Y008900D01*
X052557Y007751D02*
X050907Y007751D01*
X049742Y007471D02*
X049562Y007471D01*
X049732Y007471D02*
X048732Y007471D01*
X048722Y007471D02*
X048922Y007471D01*
X048032Y007301D02*
X047432Y007501D01*
X048032Y007701D01*
X047432Y007901D01*
X048032Y008101D01*
X047732Y008201D01*
X047732Y008801D01*
X046557Y007751D02*
X044907Y007751D01*
X043742Y007471D02*
X043562Y007471D01*
X043732Y007471D02*
X042732Y007471D01*
X042722Y007471D02*
X042922Y007471D01*
X042032Y007301D02*
X041432Y007501D01*
X042032Y007701D01*
X041432Y007901D01*
X042032Y008101D01*
X041732Y008201D01*
X041732Y008801D01*
X040557Y007751D02*
X038907Y007751D01*
X037742Y007471D02*
X037562Y007471D01*
X037732Y007471D02*
X036732Y007471D01*
X036722Y007471D02*
X036922Y007471D01*
X036032Y007301D02*
X035432Y007501D01*
X036032Y007701D01*
X035432Y007901D01*
X036032Y008101D01*
X035732Y008201D01*
X035732Y008801D01*
X034232Y007801D02*
X020232Y007801D01*
X020232Y007001D01*
X020271Y006999D01*
X020310Y006993D01*
X020348Y006984D01*
X020385Y006971D01*
X020421Y006954D01*
X020454Y006934D01*
X020486Y006910D01*
X020515Y006884D01*
X020541Y006855D01*
X020565Y006823D01*
X020585Y006790D01*
X020602Y006754D01*
X020615Y006717D01*
X020624Y006679D01*
X020630Y006640D01*
X020632Y006601D01*
X020630Y006562D01*
X020624Y006523D01*
X020615Y006485D01*
X020602Y006448D01*
X020585Y006412D01*
X020565Y006379D01*
X020541Y006347D01*
X020515Y006318D01*
X020486Y006292D01*
X020454Y006268D01*
X020421Y006248D01*
X020385Y006231D01*
X020348Y006218D01*
X020310Y006209D01*
X020271Y006203D01*
X020232Y006201D01*
X020232Y005401D01*
X034232Y005401D01*
X034232Y007801D01*
X035432Y007101D02*
X036032Y007301D01*
X035732Y007001D02*
X035432Y007101D01*
X035732Y007001D02*
X035732Y006401D01*
X038683Y007151D02*
X039179Y007151D01*
X039285Y007151D01*
X040179Y007151D01*
X040285Y007151D01*
X040781Y007151D01*
X041432Y007101D02*
X042032Y007301D01*
X041732Y007001D02*
X041432Y007101D01*
X041732Y007001D02*
X041732Y006401D01*
X040682Y007548D02*
X040655Y007602D01*
X040625Y007653D01*
X040592Y007703D01*
X040557Y007751D01*
X038683Y007151D02*
X038682Y007087D01*
X038685Y007023D01*
X038692Y006959D01*
X038702Y006896D01*
X038717Y006834D01*
X038735Y006773D01*
X038757Y006712D01*
X038782Y006654D01*
X038778Y007539D02*
X038805Y007595D01*
X038836Y007649D01*
X038870Y007701D01*
X038907Y007751D01*
X038782Y006654D02*
X038811Y006597D01*
X038844Y006541D01*
X038879Y006488D01*
X038919Y006437D01*
X038961Y006389D01*
X039006Y006343D01*
X039053Y006300D01*
X039103Y006260D01*
X039156Y006223D01*
X039211Y006190D01*
X039267Y006159D01*
X039326Y006133D01*
X039386Y006110D01*
X039447Y006090D01*
X039509Y006075D01*
X039572Y006063D01*
X039636Y006055D01*
X039700Y006051D01*
X039764Y006051D01*
X039828Y006055D01*
X039892Y006063D01*
X039955Y006075D01*
X040017Y006090D01*
X040078Y006110D01*
X040138Y006133D01*
X040197Y006159D01*
X040253Y006190D01*
X040308Y006223D01*
X040361Y006260D01*
X040411Y006300D01*
X040458Y006343D01*
X040503Y006389D01*
X040545Y006437D01*
X040585Y006488D01*
X040620Y006541D01*
X040653Y006597D01*
X040682Y006654D01*
X040707Y006712D01*
X040729Y006773D01*
X040747Y006834D01*
X040762Y006896D01*
X040772Y006959D01*
X040779Y007023D01*
X040782Y007087D01*
X040781Y007151D01*
X038782Y007548D02*
X038758Y007494D01*
X038738Y007439D01*
X038721Y007383D01*
X038706Y007326D01*
X038695Y007268D01*
X038688Y007210D01*
X038683Y007151D01*
X040682Y007548D02*
X040706Y007494D01*
X040726Y007439D01*
X040743Y007383D01*
X040758Y007326D01*
X040769Y007268D01*
X040776Y007210D01*
X040781Y007151D01*
X044683Y007151D02*
X045179Y007151D01*
X045285Y007151D01*
X046179Y007151D01*
X046285Y007151D01*
X046781Y007151D01*
X047432Y007101D02*
X048032Y007301D01*
X047732Y007001D02*
X047432Y007101D01*
X047732Y007001D02*
X047732Y006401D01*
X046682Y007548D02*
X046655Y007602D01*
X046625Y007653D01*
X046592Y007703D01*
X046557Y007751D01*
X044683Y007151D02*
X044682Y007087D01*
X044685Y007023D01*
X044692Y006959D01*
X044702Y006896D01*
X044717Y006834D01*
X044735Y006773D01*
X044757Y006712D01*
X044782Y006654D01*
X044778Y007539D02*
X044805Y007595D01*
X044836Y007649D01*
X044870Y007701D01*
X044907Y007751D01*
X044782Y006654D02*
X044811Y006597D01*
X044844Y006541D01*
X044879Y006488D01*
X044919Y006437D01*
X044961Y006389D01*
X045006Y006343D01*
X045053Y006300D01*
X045103Y006260D01*
X045156Y006223D01*
X045211Y006190D01*
X045267Y006159D01*
X045326Y006133D01*
X045386Y006110D01*
X045447Y006090D01*
X045509Y006075D01*
X045572Y006063D01*
X045636Y006055D01*
X045700Y006051D01*
X045764Y006051D01*
X045828Y006055D01*
X045892Y006063D01*
X045955Y006075D01*
X046017Y006090D01*
X046078Y006110D01*
X046138Y006133D01*
X046197Y006159D01*
X046253Y006190D01*
X046308Y006223D01*
X046361Y006260D01*
X046411Y006300D01*
X046458Y006343D01*
X046503Y006389D01*
X046545Y006437D01*
X046585Y006488D01*
X046620Y006541D01*
X046653Y006597D01*
X046682Y006654D01*
X046707Y006712D01*
X046729Y006773D01*
X046747Y006834D01*
X046762Y006896D01*
X046772Y006959D01*
X046779Y007023D01*
X046782Y007087D01*
X046781Y007151D01*
X044782Y007548D02*
X044758Y007494D01*
X044738Y007439D01*
X044721Y007383D01*
X044706Y007326D01*
X044695Y007268D01*
X044688Y007210D01*
X044683Y007151D01*
X046682Y007548D02*
X046706Y007494D01*
X046726Y007439D01*
X046743Y007383D01*
X046758Y007326D01*
X046769Y007268D01*
X046776Y007210D01*
X046781Y007151D01*
X050683Y007151D02*
X051179Y007151D01*
X051285Y007151D01*
X052179Y007151D01*
X052285Y007151D01*
X052781Y007151D01*
X052682Y007548D02*
X052655Y007602D01*
X052625Y007653D01*
X052592Y007703D01*
X052557Y007751D01*
X050683Y007151D02*
X050682Y007087D01*
X050685Y007023D01*
X050692Y006959D01*
X050702Y006896D01*
X050717Y006834D01*
X050735Y006773D01*
X050757Y006712D01*
X050782Y006654D01*
X050778Y007539D02*
X050805Y007595D01*
X050836Y007649D01*
X050870Y007701D01*
X050907Y007751D01*
X050782Y006654D02*
X050811Y006597D01*
X050844Y006541D01*
X050879Y006488D01*
X050919Y006437D01*
X050961Y006389D01*
X051006Y006343D01*
X051053Y006300D01*
X051103Y006260D01*
X051156Y006223D01*
X051211Y006190D01*
X051267Y006159D01*
X051326Y006133D01*
X051386Y006110D01*
X051447Y006090D01*
X051509Y006075D01*
X051572Y006063D01*
X051636Y006055D01*
X051700Y006051D01*
X051764Y006051D01*
X051828Y006055D01*
X051892Y006063D01*
X051955Y006075D01*
X052017Y006090D01*
X052078Y006110D01*
X052138Y006133D01*
X052197Y006159D01*
X052253Y006190D01*
X052308Y006223D01*
X052361Y006260D01*
X052411Y006300D01*
X052458Y006343D01*
X052503Y006389D01*
X052545Y006437D01*
X052585Y006488D01*
X052620Y006541D01*
X052653Y006597D01*
X052682Y006654D01*
X052707Y006712D01*
X052729Y006773D01*
X052747Y006834D01*
X052762Y006896D01*
X052772Y006959D01*
X052779Y007023D01*
X052782Y007087D01*
X052781Y007151D01*
X050782Y007548D02*
X050758Y007494D01*
X050738Y007439D01*
X050721Y007383D01*
X050706Y007326D01*
X050695Y007268D01*
X050688Y007210D01*
X050683Y007151D01*
X052682Y007548D02*
X052706Y007494D01*
X052726Y007439D01*
X052743Y007383D01*
X052758Y007326D01*
X052769Y007268D01*
X052776Y007210D01*
X052781Y007151D01*
X054273Y007601D02*
X054275Y007654D01*
X054281Y007707D01*
X054291Y007759D01*
X054304Y007810D01*
X054322Y007860D01*
X054343Y007909D01*
X054368Y007956D01*
X054396Y008000D01*
X054428Y008043D01*
X054462Y008083D01*
X054500Y008121D01*
X054540Y008155D01*
X054583Y008187D01*
X054628Y008215D01*
X054674Y008240D01*
X054723Y008261D01*
X054773Y008279D01*
X054824Y008292D01*
X054876Y008302D01*
X054929Y008308D01*
X054982Y008310D01*
X055035Y008308D01*
X055088Y008302D01*
X055140Y008292D01*
X055191Y008279D01*
X055241Y008261D01*
X055290Y008240D01*
X055337Y008215D01*
X055381Y008187D01*
X055424Y008155D01*
X055464Y008121D01*
X055502Y008083D01*
X055536Y008043D01*
X055568Y008000D01*
X055596Y007955D01*
X055621Y007909D01*
X055642Y007860D01*
X055660Y007810D01*
X055673Y007759D01*
X055683Y007707D01*
X055689Y007654D01*
X055691Y007601D01*
X055689Y007548D01*
X055683Y007495D01*
X055673Y007443D01*
X055660Y007392D01*
X055642Y007342D01*
X055621Y007293D01*
X055596Y007246D01*
X055568Y007202D01*
X055536Y007159D01*
X055502Y007119D01*
X055464Y007081D01*
X055424Y007047D01*
X055381Y007015D01*
X055336Y006987D01*
X055290Y006962D01*
X055241Y006941D01*
X055191Y006923D01*
X055140Y006910D01*
X055088Y006900D01*
X055035Y006894D01*
X054982Y006892D01*
X054929Y006894D01*
X054876Y006900D01*
X054824Y006910D01*
X054773Y006923D01*
X054723Y006941D01*
X054674Y006962D01*
X054627Y006987D01*
X054583Y007015D01*
X054540Y007047D01*
X054500Y007081D01*
X054462Y007119D01*
X054428Y007159D01*
X054396Y007202D01*
X054368Y007247D01*
X054343Y007293D01*
X054322Y007342D01*
X054304Y007392D01*
X054291Y007443D01*
X054281Y007495D01*
X054275Y007548D01*
X054273Y007601D01*
X050532Y004401D02*
X050732Y003801D01*
X050832Y004101D01*
X051432Y004101D01*
X050532Y004401D02*
X050332Y003801D01*
X050132Y004401D01*
X049932Y003801D01*
X049732Y004401D01*
X049632Y004101D01*
X049032Y004101D01*
X045432Y004101D02*
X044832Y004101D01*
X044732Y003801D01*
X044532Y004401D01*
X044332Y003801D01*
X044132Y004401D01*
X043932Y003801D01*
X043732Y004401D01*
X043632Y004101D01*
X043032Y004101D01*
X039432Y004101D02*
X038832Y004101D01*
X038732Y003801D01*
X038532Y004401D01*
X038332Y003801D01*
X038132Y004401D01*
X037932Y003801D01*
X037732Y004401D01*
X037632Y004101D01*
X037032Y004101D01*
X033032Y002801D02*
X032432Y002801D01*
X032432Y002401D02*
X033032Y002401D01*
X031382Y001751D02*
X031439Y001753D01*
X031495Y001759D01*
X031551Y001768D01*
X031607Y001781D01*
X031661Y001798D01*
X031714Y001818D01*
X031765Y001842D01*
X031815Y001870D01*
X031863Y001900D01*
X031909Y001934D01*
X031952Y001971D01*
X031993Y002010D01*
X032031Y002052D01*
X032066Y002097D01*
X032098Y002144D01*
X032127Y002193D01*
X032153Y002243D01*
X032175Y002296D01*
X032194Y002349D01*
X032209Y002404D01*
X032220Y002460D01*
X032228Y002516D01*
X032232Y002573D01*
X032232Y002629D01*
X032228Y002686D01*
X032220Y002742D01*
X032209Y002798D01*
X032194Y002853D01*
X032175Y002906D01*
X032153Y002959D01*
X032127Y003009D01*
X032098Y003058D01*
X032066Y003105D01*
X032031Y003150D01*
X031993Y003192D01*
X031952Y003231D01*
X031909Y003268D01*
X031863Y003302D01*
X031815Y003332D01*
X031765Y003360D01*
X031714Y003384D01*
X031661Y003404D01*
X031607Y003421D01*
X031551Y003434D01*
X031495Y003443D01*
X031439Y003449D01*
X031382Y003451D01*
X029082Y003451D01*
X028032Y002801D02*
X027432Y002801D01*
X027432Y002401D02*
X028032Y002401D01*
X029082Y001751D02*
X029025Y001753D01*
X028969Y001759D01*
X028913Y001768D01*
X028857Y001781D01*
X028803Y001798D01*
X028750Y001818D01*
X028699Y001842D01*
X028649Y001870D01*
X028601Y001900D01*
X028555Y001934D01*
X028512Y001971D01*
X028471Y002010D01*
X028433Y002052D01*
X028398Y002097D01*
X028366Y002144D01*
X028337Y002193D01*
X028311Y002243D01*
X028289Y002296D01*
X028270Y002349D01*
X028255Y002404D01*
X028244Y002460D01*
X028236Y002516D01*
X028232Y002573D01*
X028232Y002629D01*
X028236Y002686D01*
X028244Y002742D01*
X028255Y002798D01*
X028270Y002853D01*
X028289Y002906D01*
X028311Y002959D01*
X028337Y003009D01*
X028366Y003058D01*
X028398Y003105D01*
X028433Y003150D01*
X028471Y003192D01*
X028512Y003231D01*
X028555Y003268D01*
X028601Y003302D01*
X028649Y003332D01*
X028699Y003360D01*
X028750Y003384D01*
X028803Y003404D01*
X028857Y003421D01*
X028913Y003434D01*
X028969Y003443D01*
X029025Y003449D01*
X029082Y003451D01*
X027432Y003801D02*
X027432Y004401D01*
X027032Y004401D02*
X027032Y003801D01*
X026432Y003101D02*
X025832Y003101D01*
X025732Y002801D01*
X025532Y003401D01*
X025332Y002801D01*
X025132Y003401D01*
X024932Y002801D01*
X024732Y003401D01*
X024632Y003101D01*
X024032Y003101D01*
X020432Y001601D02*
X019832Y001601D01*
X019732Y001301D01*
X019532Y001901D01*
X019332Y001301D01*
X019132Y001901D01*
X018932Y001301D01*
X018732Y001901D01*
X018632Y001601D01*
X018032Y001601D01*
X018032Y002801D02*
X018032Y003401D01*
X018432Y003401D02*
X018432Y002801D01*
X016732Y003369D02*
X016456Y003471D01*
X016456Y003128D01*
X016377Y003128D01*
X016456Y003471D02*
X016456Y003731D01*
X016732Y003833D01*
X016456Y003731D02*
X016456Y004073D01*
X016377Y004073D01*
X018032Y003801D02*
X018032Y004401D01*
X018432Y004401D02*
X018432Y003801D01*
X019232Y005401D02*
X015232Y005401D01*
X015232Y006201D01*
X015032Y006401D02*
X014432Y006401D01*
X015232Y006201D02*
X015271Y006203D01*
X015310Y006209D01*
X015348Y006218D01*
X015385Y006231D01*
X015421Y006248D01*
X015454Y006268D01*
X015486Y006292D01*
X015515Y006318D01*
X015541Y006347D01*
X015565Y006379D01*
X015585Y006412D01*
X015602Y006448D01*
X015615Y006485D01*
X015624Y006523D01*
X015630Y006562D01*
X015632Y006601D01*
X015630Y006640D01*
X015624Y006679D01*
X015615Y006717D01*
X015602Y006754D01*
X015585Y006790D01*
X015565Y006823D01*
X015541Y006855D01*
X015515Y006884D01*
X015486Y006910D01*
X015454Y006934D01*
X015421Y006954D01*
X015385Y006971D01*
X015348Y006984D01*
X015310Y006993D01*
X015271Y006999D01*
X015232Y007001D01*
X015232Y007801D01*
X019232Y007801D01*
X019232Y005401D01*
X015032Y006801D02*
X014432Y006801D01*
X011742Y006221D02*
X011562Y006221D01*
X011732Y006221D02*
X010732Y006221D01*
X010722Y006221D02*
X010922Y006221D01*
X009532Y006301D02*
X008932Y006501D01*
X009532Y006701D01*
X008932Y006901D01*
X009532Y007101D01*
X009232Y007201D01*
X009232Y007801D01*
X011679Y008151D02*
X011733Y008178D01*
X011784Y008208D01*
X011834Y008241D01*
X011882Y008276D01*
X011282Y010150D02*
X011218Y010151D01*
X011154Y010148D01*
X011090Y010141D01*
X011027Y010131D01*
X010965Y010116D01*
X010904Y010098D01*
X010843Y010076D01*
X010785Y010051D01*
X011670Y010055D02*
X011726Y010028D01*
X011780Y009997D01*
X011832Y009963D01*
X011882Y009926D01*
X010785Y010051D02*
X010728Y010022D01*
X010672Y009989D01*
X010619Y009954D01*
X010568Y009914D01*
X010520Y009872D01*
X010474Y009827D01*
X010431Y009780D01*
X010391Y009730D01*
X010354Y009677D01*
X010321Y009622D01*
X010290Y009566D01*
X010264Y009507D01*
X010241Y009447D01*
X010221Y009386D01*
X010206Y009324D01*
X010194Y009261D01*
X010186Y009197D01*
X010182Y009133D01*
X010182Y009069D01*
X010186Y009005D01*
X010194Y008941D01*
X010206Y008878D01*
X010221Y008816D01*
X010241Y008755D01*
X010264Y008695D01*
X010290Y008636D01*
X010321Y008580D01*
X010354Y008525D01*
X010391Y008472D01*
X010431Y008422D01*
X010474Y008375D01*
X010520Y008330D01*
X010568Y008288D01*
X010619Y008248D01*
X010672Y008213D01*
X010728Y008180D01*
X010785Y008151D01*
X010843Y008126D01*
X010904Y008104D01*
X010965Y008086D01*
X011027Y008071D01*
X011090Y008061D01*
X011154Y008054D01*
X011218Y008051D01*
X011282Y008052D01*
X011679Y010051D02*
X011625Y010075D01*
X011570Y010095D01*
X011514Y010112D01*
X011457Y010127D01*
X011399Y010138D01*
X011341Y010145D01*
X011282Y010150D01*
X011679Y008151D02*
X011625Y008127D01*
X011570Y008107D01*
X011514Y008090D01*
X011457Y008075D01*
X011399Y008064D01*
X011341Y008057D01*
X011282Y008052D01*
X013679Y008151D02*
X013733Y008178D01*
X013784Y008208D01*
X013834Y008241D01*
X013882Y008276D01*
X013282Y010150D02*
X013218Y010151D01*
X013154Y010148D01*
X013090Y010141D01*
X013027Y010131D01*
X012965Y010116D01*
X012904Y010098D01*
X012843Y010076D01*
X012785Y010051D01*
X013670Y010055D02*
X013726Y010028D01*
X013780Y009997D01*
X013832Y009963D01*
X013882Y009926D01*
X012785Y010051D02*
X012728Y010022D01*
X012672Y009989D01*
X012619Y009954D01*
X012568Y009914D01*
X012520Y009872D01*
X012474Y009827D01*
X012431Y009780D01*
X012391Y009730D01*
X012354Y009677D01*
X012321Y009622D01*
X012290Y009566D01*
X012264Y009507D01*
X012241Y009447D01*
X012221Y009386D01*
X012206Y009324D01*
X012194Y009261D01*
X012186Y009197D01*
X012182Y009133D01*
X012182Y009069D01*
X012186Y009005D01*
X012194Y008941D01*
X012206Y008878D01*
X012221Y008816D01*
X012241Y008755D01*
X012264Y008695D01*
X012290Y008636D01*
X012321Y008580D01*
X012354Y008525D01*
X012391Y008472D01*
X012431Y008422D01*
X012474Y008375D01*
X012520Y008330D01*
X012568Y008288D01*
X012619Y008248D01*
X012672Y008213D01*
X012728Y008180D01*
X012785Y008151D01*
X012843Y008126D01*
X012904Y008104D01*
X012965Y008086D01*
X013027Y008071D01*
X013090Y008061D01*
X013154Y008054D01*
X013218Y008051D01*
X013282Y008052D01*
X013679Y010051D02*
X013625Y010075D01*
X013570Y010095D01*
X013514Y010112D01*
X013457Y010127D01*
X013399Y010138D01*
X013341Y010145D01*
X013282Y010150D01*
X013679Y008151D02*
X013625Y008127D01*
X013570Y008107D01*
X013514Y008090D01*
X013457Y008075D01*
X013399Y008064D01*
X013341Y008057D01*
X013282Y008052D01*
X009532Y006301D02*
X008932Y006101D01*
X009232Y006001D01*
X009232Y005401D01*
X010732Y004227D02*
X011014Y004227D01*
X011217Y004178D02*
X010732Y004178D01*
X010732Y004130D02*
X011360Y004130D01*
X011631Y003984D02*
X010732Y003984D01*
X010732Y003936D02*
X011704Y003936D01*
X011767Y003887D02*
X010732Y003887D01*
X010732Y003839D02*
X011823Y003839D01*
X011878Y003790D02*
X010732Y003790D01*
X010732Y003742D02*
X011926Y003742D01*
X011969Y003693D02*
X010732Y003693D01*
X010732Y003644D02*
X012011Y003644D01*
X012051Y003596D02*
X010732Y003596D01*
X010732Y003547D02*
X012084Y003547D01*
X012116Y003499D02*
X010732Y003499D01*
X010732Y003450D02*
X012149Y003450D01*
X012177Y003402D02*
X010732Y003402D01*
X010732Y003353D02*
X012200Y003353D01*
X012224Y003305D02*
X010732Y003305D01*
X010732Y003256D02*
X012248Y003256D01*
X012268Y003208D02*
X010732Y003208D01*
X010732Y003159D02*
X012285Y003159D01*
X012301Y003110D02*
X010732Y003110D01*
X010732Y003062D02*
X012318Y003062D01*
X012332Y003013D02*
X010732Y003013D01*
X010732Y002965D02*
X012342Y002965D01*
X012351Y002916D02*
X010732Y002916D01*
X010732Y002868D02*
X012361Y002868D01*
X012371Y002819D02*
X010732Y002819D01*
X010732Y002771D02*
X012374Y002771D01*
X012377Y002722D02*
X010732Y002722D01*
X010732Y002674D02*
X012381Y002674D01*
X001176Y002069D02*
X001178Y002133D01*
X001184Y002196D01*
X001194Y002259D01*
X001208Y002321D01*
X001225Y002382D01*
X001247Y002442D01*
X001272Y002501D01*
X001300Y002558D01*
X001332Y002613D01*
X001368Y002666D01*
X001407Y002716D01*
X001448Y002764D01*
X001493Y002810D01*
X001540Y002852D01*
X001590Y002892D01*
X001643Y002928D01*
X001697Y002961D01*
X001754Y002991D01*
X001812Y003017D01*
X001871Y003039D01*
X001932Y003057D01*
X001994Y003072D01*
X002057Y003083D01*
X002120Y003090D01*
X002184Y003093D01*
X002248Y003092D01*
X002311Y003087D01*
X002374Y003078D01*
X002437Y003065D01*
X002498Y003049D01*
X002559Y003028D01*
X002617Y003004D01*
X002675Y002976D01*
X002730Y002945D01*
X002784Y002910D01*
X002835Y002872D01*
X002884Y002831D01*
X002930Y002787D01*
X002973Y002741D01*
X003013Y002691D01*
X003050Y002640D01*
X003084Y002586D01*
X003115Y002530D01*
X003141Y002472D01*
X003165Y002413D01*
X003184Y002352D01*
X003200Y002290D01*
X003212Y002228D01*
X003220Y002164D01*
X003224Y002101D01*
X003224Y002037D01*
X003220Y001974D01*
X003212Y001910D01*
X003200Y001848D01*
X003184Y001786D01*
X003165Y001725D01*
X003141Y001666D01*
X003115Y001608D01*
X003084Y001552D01*
X003050Y001498D01*
X003013Y001447D01*
X002973Y001397D01*
X002930Y001351D01*
X002884Y001307D01*
X002835Y001266D01*
X002784Y001228D01*
X002730Y001193D01*
X002675Y001162D01*
X002617Y001134D01*
X002559Y001110D01*
X002498Y001089D01*
X002437Y001073D01*
X002374Y001060D01*
X002311Y001051D01*
X002248Y001046D01*
X002184Y001045D01*
X002120Y001048D01*
X002057Y001055D01*
X001994Y001066D01*
X001932Y001081D01*
X001871Y001099D01*
X001812Y001121D01*
X001754Y001147D01*
X001697Y001177D01*
X001643Y001210D01*
X001590Y001246D01*
X001540Y001286D01*
X001493Y001328D01*
X001448Y001374D01*
X001407Y001422D01*
X001368Y001472D01*
X001332Y001525D01*
X001300Y001580D01*
X001272Y001637D01*
X001247Y001696D01*
X001225Y001756D01*
X001208Y001817D01*
X001194Y001879D01*
X001184Y001942D01*
X001178Y002005D01*
X001176Y002069D01*
X029082Y001751D02*
X031382Y001751D01*
X054326Y002069D02*
X054328Y002133D01*
X054334Y002196D01*
X054344Y002259D01*
X054358Y002321D01*
X054375Y002382D01*
X054397Y002442D01*
X054422Y002501D01*
X054450Y002558D01*
X054482Y002613D01*
X054518Y002666D01*
X054557Y002716D01*
X054598Y002764D01*
X054643Y002810D01*
X054690Y002852D01*
X054740Y002892D01*
X054793Y002928D01*
X054847Y002961D01*
X054904Y002991D01*
X054962Y003017D01*
X055021Y003039D01*
X055082Y003057D01*
X055144Y003072D01*
X055207Y003083D01*
X055270Y003090D01*
X055334Y003093D01*
X055398Y003092D01*
X055461Y003087D01*
X055524Y003078D01*
X055587Y003065D01*
X055648Y003049D01*
X055709Y003028D01*
X055767Y003004D01*
X055825Y002976D01*
X055880Y002945D01*
X055934Y002910D01*
X055985Y002872D01*
X056034Y002831D01*
X056080Y002787D01*
X056123Y002741D01*
X056163Y002691D01*
X056200Y002640D01*
X056234Y002586D01*
X056265Y002530D01*
X056291Y002472D01*
X056315Y002413D01*
X056334Y002352D01*
X056350Y002290D01*
X056362Y002228D01*
X056370Y002164D01*
X056374Y002101D01*
X056374Y002037D01*
X056370Y001974D01*
X056362Y001910D01*
X056350Y001848D01*
X056334Y001786D01*
X056315Y001725D01*
X056291Y001666D01*
X056265Y001608D01*
X056234Y001552D01*
X056200Y001498D01*
X056163Y001447D01*
X056123Y001397D01*
X056080Y001351D01*
X056034Y001307D01*
X055985Y001266D01*
X055934Y001228D01*
X055880Y001193D01*
X055825Y001162D01*
X055767Y001134D01*
X055709Y001110D01*
X055648Y001089D01*
X055587Y001073D01*
X055524Y001060D01*
X055461Y001051D01*
X055398Y001046D01*
X055334Y001045D01*
X055270Y001048D01*
X055207Y001055D01*
X055144Y001066D01*
X055082Y001081D01*
X055021Y001099D01*
X054962Y001121D01*
X054904Y001147D01*
X054847Y001177D01*
X054793Y001210D01*
X054740Y001246D01*
X054690Y001286D01*
X054643Y001328D01*
X054598Y001374D01*
X054557Y001422D01*
X054518Y001472D01*
X054482Y001525D01*
X054450Y001580D01*
X054422Y001637D01*
X054397Y001696D01*
X054375Y001756D01*
X054358Y001817D01*
X054344Y001879D01*
X054334Y001942D01*
X054328Y002005D01*
X054326Y002069D01*
X028000Y013235D02*
X028000Y014967D01*
X027883Y015052D02*
X027732Y015052D01*
X027732Y015004D02*
X027835Y015004D01*
X027786Y014955D02*
X027732Y014955D01*
X027732Y014906D02*
X027738Y014906D01*
X027732Y014901D02*
X027932Y015101D01*
X027732Y015301D01*
X027732Y014901D01*
X027732Y015101D02*
X027932Y015101D01*
X027883Y015149D02*
X027732Y015149D01*
X027732Y015198D02*
X027835Y015198D01*
X027786Y015246D02*
X027732Y015246D01*
X027732Y015295D02*
X027738Y015295D01*
X026401Y018880D02*
X026244Y019010D01*
X026080Y019133D01*
X025912Y019248D01*
X025738Y019356D01*
X025559Y019455D01*
X025377Y019546D01*
X025190Y019629D01*
X025000Y019703D01*
X024806Y019769D01*
X024610Y019825D01*
X021854Y019825D02*
X021658Y019769D01*
X021464Y019703D01*
X021274Y019629D01*
X021087Y019546D01*
X020905Y019455D01*
X020726Y019356D01*
X020552Y019248D01*
X020384Y019133D01*
X020220Y019010D01*
X020063Y018880D01*
X019216Y015101D02*
X019221Y015298D01*
X019235Y015495D01*
X019259Y015690D01*
X019293Y015884D01*
X019336Y016077D01*
X019389Y016267D01*
X019451Y016454D01*
X019522Y016638D01*
X019602Y016818D01*
X019690Y016994D01*
X019787Y017166D01*
X019893Y017332D01*
X020006Y017493D01*
X020128Y017649D01*
X020256Y017798D01*
X020392Y017941D01*
X020535Y018077D01*
X020684Y018205D01*
X020840Y018327D01*
X021001Y018440D01*
X021167Y018546D01*
X021339Y018643D01*
X021515Y018731D01*
X021695Y018811D01*
X021879Y018882D01*
X022066Y018944D01*
X022256Y018997D01*
X022449Y019040D01*
X022643Y019074D01*
X022838Y019098D01*
X023035Y019112D01*
X023232Y019117D01*
X023429Y019112D01*
X023626Y019098D01*
X023821Y019074D01*
X024015Y019040D01*
X024208Y018997D01*
X024398Y018944D01*
X024585Y018882D01*
X024769Y018811D01*
X024949Y018731D01*
X025125Y018643D01*
X025297Y018546D01*
X025463Y018440D01*
X025624Y018327D01*
X025780Y018205D01*
X025929Y018077D01*
X026072Y017941D01*
X026208Y017798D01*
X026336Y017649D01*
X026458Y017493D01*
X026571Y017332D01*
X026677Y017166D01*
X026774Y016994D01*
X026862Y016818D01*
X026942Y016638D01*
X027013Y016454D01*
X027075Y016267D01*
X027128Y016077D01*
X027171Y015884D01*
X027205Y015690D01*
X027229Y015495D01*
X027243Y015298D01*
X027248Y015101D01*
X027243Y014904D01*
X027229Y014707D01*
X027205Y014512D01*
X027171Y014318D01*
X027128Y014125D01*
X027075Y013935D01*
X027013Y013748D01*
X026942Y013564D01*
X026862Y013384D01*
X026774Y013208D01*
X026677Y013036D01*
X026571Y012870D01*
X026458Y012709D01*
X026336Y012553D01*
X026208Y012404D01*
X026072Y012261D01*
X025929Y012125D01*
X025780Y011997D01*
X025624Y011875D01*
X025463Y011762D01*
X025297Y011656D01*
X025125Y011559D01*
X024949Y011471D01*
X024769Y011391D01*
X024585Y011320D01*
X024398Y011258D01*
X024208Y011205D01*
X024015Y011162D01*
X023821Y011128D01*
X023626Y011104D01*
X023429Y011090D01*
X023232Y011085D01*
X023035Y011090D01*
X022838Y011104D01*
X022643Y011128D01*
X022449Y011162D01*
X022256Y011205D01*
X022066Y011258D01*
X021879Y011320D01*
X021695Y011391D01*
X021515Y011471D01*
X021339Y011559D01*
X021167Y011656D01*
X021001Y011762D01*
X020840Y011875D01*
X020684Y011997D01*
X020535Y012125D01*
X020392Y012261D01*
X020256Y012404D01*
X020128Y012553D01*
X020006Y012709D01*
X019893Y012870D01*
X019787Y013036D01*
X019690Y013208D01*
X019602Y013384D01*
X019522Y013564D01*
X019451Y013748D01*
X019389Y013935D01*
X019336Y014125D01*
X019293Y014318D01*
X019259Y014512D01*
X019235Y014707D01*
X019221Y014904D01*
X019216Y015101D01*
X018162Y014811D02*
X016302Y014811D01*
X016302Y013391D01*
X018162Y013391D01*
X018162Y014811D01*
X020063Y011321D02*
X020220Y011191D01*
X020384Y011068D01*
X020552Y010953D01*
X020726Y010845D01*
X020905Y010746D01*
X021087Y010655D01*
X021274Y010572D01*
X021464Y010498D01*
X021658Y010432D01*
X021854Y010376D01*
X024610Y010376D02*
X024806Y010432D01*
X025000Y010498D01*
X025190Y010572D01*
X025377Y010655D01*
X025559Y010746D01*
X025738Y010845D01*
X025912Y010953D01*
X026080Y011068D01*
X026244Y011191D01*
X026401Y011321D01*
X035657Y020484D02*
X035715Y020426D01*
X035832Y020426D01*
X035890Y020484D01*
X036025Y020484D02*
X036083Y020426D01*
X036200Y020426D01*
X036259Y020484D01*
X036259Y020601D01*
X036200Y020659D01*
X036083Y020659D01*
X036025Y020601D01*
X036025Y020484D01*
X035890Y020718D02*
X035832Y020776D01*
X035715Y020776D01*
X035657Y020718D01*
X035657Y020484D01*
X036393Y020426D02*
X036393Y020659D01*
X036452Y020659D01*
X036510Y020601D01*
X036569Y020659D01*
X036627Y020601D01*
X036627Y020426D01*
X036510Y020426D02*
X036510Y020601D01*
X036762Y020484D02*
X036820Y020484D01*
X036820Y020426D01*
X036762Y020426D01*
X036762Y020484D01*
X037757Y020426D02*
X037757Y020776D01*
X037990Y020426D01*
X037990Y020776D01*
X038309Y020718D02*
X038368Y020776D01*
X038484Y020776D01*
X038543Y020718D01*
X038543Y020484D01*
X038484Y020426D01*
X038368Y020426D01*
X038309Y020484D01*
X038309Y020718D01*
X038183Y020484D02*
X038183Y020426D01*
X038125Y020426D01*
X038125Y020484D01*
X038183Y020484D01*
X038678Y020484D02*
X038736Y020484D01*
X038736Y020426D01*
X038678Y020426D01*
X038678Y020484D01*
X039757Y020426D02*
X039757Y020776D01*
X039990Y020426D01*
X039990Y020776D01*
X040309Y020718D02*
X040309Y020484D01*
X040368Y020426D01*
X040484Y020426D01*
X040543Y020484D01*
X040678Y020484D02*
X040736Y020484D01*
X040736Y020426D01*
X040678Y020426D01*
X040678Y020484D01*
X040543Y020718D02*
X040484Y020776D01*
X040368Y020776D01*
X040309Y020718D01*
X040183Y020484D02*
X040183Y020426D01*
X040125Y020426D01*
X040125Y020484D01*
X040183Y020484D01*
X041757Y020484D02*
X041815Y020426D01*
X041932Y020426D01*
X041990Y020484D01*
X042125Y020484D02*
X042183Y020426D01*
X042300Y020426D01*
X042359Y020484D01*
X042359Y020601D01*
X042300Y020659D01*
X042183Y020659D01*
X042125Y020601D01*
X042125Y020484D01*
X041990Y020718D02*
X041932Y020776D01*
X041815Y020776D01*
X041757Y020718D01*
X041757Y020484D01*
X042493Y020426D02*
X042493Y020659D01*
X042552Y020659D01*
X042610Y020601D01*
X042669Y020659D01*
X042727Y020601D01*
X042727Y020426D01*
X042610Y020426D02*
X042610Y020601D01*
X042862Y020484D02*
X042920Y020484D01*
X042920Y020426D01*
X042862Y020426D01*
X042862Y020484D01*
X043757Y020426D02*
X043757Y020776D01*
X043990Y020426D01*
X043990Y020776D01*
X044309Y020718D02*
X044309Y020484D01*
X044368Y020426D01*
X044484Y020426D01*
X044543Y020484D01*
X044543Y020718D01*
X044484Y020776D01*
X044368Y020776D01*
X044309Y020718D01*
X044183Y020484D02*
X044183Y020426D01*
X044125Y020426D01*
X044125Y020484D01*
X044183Y020484D01*
X044678Y020484D02*
X044736Y020484D01*
X044736Y020426D01*
X044678Y020426D01*
X044678Y020484D01*
X045757Y020426D02*
X045757Y020776D01*
X045990Y020426D01*
X045990Y020776D01*
X046309Y020718D02*
X046368Y020776D01*
X046484Y020776D01*
X046543Y020718D01*
X046309Y020718D02*
X046309Y020484D01*
X046368Y020426D01*
X046484Y020426D01*
X046543Y020484D01*
X046678Y020484D02*
X046736Y020484D01*
X046736Y020426D01*
X046678Y020426D01*
X046678Y020484D01*
X046183Y020484D02*
X046183Y020426D01*
X046125Y020426D01*
X046125Y020484D01*
X046183Y020484D01*
X047657Y020484D02*
X047715Y020426D01*
X047832Y020426D01*
X047890Y020484D01*
X048025Y020484D02*
X048083Y020426D01*
X048200Y020426D01*
X048259Y020484D01*
X048259Y020601D01*
X048200Y020659D01*
X048083Y020659D01*
X048025Y020601D01*
X048025Y020484D01*
X047890Y020718D02*
X047832Y020776D01*
X047715Y020776D01*
X047657Y020718D01*
X047657Y020484D01*
X048393Y020426D02*
X048393Y020659D01*
X048452Y020659D01*
X048510Y020601D01*
X048569Y020659D01*
X048627Y020601D01*
X048627Y020426D01*
X048510Y020426D02*
X048510Y020601D01*
X048762Y020484D02*
X048820Y020484D01*
X048820Y020426D01*
X048762Y020426D01*
X048762Y020484D01*
X049757Y020426D02*
X049757Y020776D01*
X049990Y020426D01*
X049990Y020776D01*
X050309Y020718D02*
X050368Y020776D01*
X050484Y020776D01*
X050543Y020718D01*
X050543Y020484D01*
X050484Y020426D01*
X050368Y020426D01*
X050309Y020484D01*
X050309Y020718D01*
X050183Y020484D02*
X050183Y020426D01*
X050125Y020426D01*
X050125Y020484D01*
X050183Y020484D01*
X050678Y020484D02*
X050736Y020484D01*
X050736Y020426D01*
X050678Y020426D01*
X050678Y020484D01*
X051757Y020426D02*
X051757Y020776D01*
X051990Y020426D01*
X051990Y020776D01*
X052309Y020718D02*
X052309Y020484D01*
X052368Y020426D01*
X052484Y020426D01*
X052543Y020484D01*
X052678Y020484D02*
X052736Y020484D01*
X052736Y020426D01*
X052678Y020426D01*
X052678Y020484D01*
X052543Y020718D02*
X052484Y020776D01*
X052368Y020776D01*
X052309Y020718D01*
X052183Y020484D02*
X052183Y020426D01*
X052125Y020426D01*
X052125Y020484D01*
X052183Y020484D01*
X054326Y019392D02*
X054328Y019456D01*
X054334Y019519D01*
X054344Y019582D01*
X054358Y019644D01*
X054375Y019705D01*
X054397Y019765D01*
X054422Y019824D01*
X054450Y019881D01*
X054482Y019936D01*
X054518Y019989D01*
X054557Y020039D01*
X054598Y020087D01*
X054643Y020133D01*
X054690Y020175D01*
X054740Y020215D01*
X054793Y020251D01*
X054847Y020284D01*
X054904Y020314D01*
X054962Y020340D01*
X055021Y020362D01*
X055082Y020380D01*
X055144Y020395D01*
X055207Y020406D01*
X055270Y020413D01*
X055334Y020416D01*
X055398Y020415D01*
X055461Y020410D01*
X055524Y020401D01*
X055587Y020388D01*
X055648Y020372D01*
X055709Y020351D01*
X055767Y020327D01*
X055825Y020299D01*
X055880Y020268D01*
X055934Y020233D01*
X055985Y020195D01*
X056034Y020154D01*
X056080Y020110D01*
X056123Y020064D01*
X056163Y020014D01*
X056200Y019963D01*
X056234Y019909D01*
X056265Y019853D01*
X056291Y019795D01*
X056315Y019736D01*
X056334Y019675D01*
X056350Y019613D01*
X056362Y019551D01*
X056370Y019487D01*
X056374Y019424D01*
X056374Y019360D01*
X056370Y019297D01*
X056362Y019233D01*
X056350Y019171D01*
X056334Y019109D01*
X056315Y019048D01*
X056291Y018989D01*
X056265Y018931D01*
X056234Y018875D01*
X056200Y018821D01*
X056163Y018770D01*
X056123Y018720D01*
X056080Y018674D01*
X056034Y018630D01*
X055985Y018589D01*
X055934Y018551D01*
X055880Y018516D01*
X055825Y018485D01*
X055767Y018457D01*
X055709Y018433D01*
X055648Y018412D01*
X055587Y018396D01*
X055524Y018383D01*
X055461Y018374D01*
X055398Y018369D01*
X055334Y018368D01*
X055270Y018371D01*
X055207Y018378D01*
X055144Y018389D01*
X055082Y018404D01*
X055021Y018422D01*
X054962Y018444D01*
X054904Y018470D01*
X054847Y018500D01*
X054793Y018533D01*
X054740Y018569D01*
X054690Y018609D01*
X054643Y018651D01*
X054598Y018697D01*
X054557Y018745D01*
X054518Y018795D01*
X054482Y018848D01*
X054450Y018903D01*
X054422Y018960D01*
X054397Y019019D01*
X054375Y019079D01*
X054358Y019140D01*
X054344Y019202D01*
X054334Y019265D01*
X054328Y019328D01*
X054326Y019392D01*
D13*
X054632Y004501D02*
X055032Y004101D01*
X055032Y003701D01*
X055432Y003701D01*
X055032Y004101D01*
X055432Y004501D01*
X055032Y004501D01*
X055032Y004101D01*
X054632Y003701D01*
X054632Y004501D01*
X054632Y004496D02*
X054637Y004496D01*
X054632Y004477D02*
X054656Y004477D01*
X054674Y004458D02*
X054632Y004458D01*
X054632Y004440D02*
X054693Y004440D01*
X054711Y004421D02*
X054632Y004421D01*
X054632Y004403D02*
X054730Y004403D01*
X054748Y004384D02*
X054632Y004384D01*
X054632Y004366D02*
X054767Y004366D01*
X054785Y004347D02*
X054632Y004347D01*
X054632Y004329D02*
X054804Y004329D01*
X054822Y004310D02*
X054632Y004310D01*
X054632Y004292D02*
X054841Y004292D01*
X054860Y004273D02*
X054632Y004273D01*
X054632Y004254D02*
X054878Y004254D01*
X054897Y004236D02*
X054632Y004236D01*
X054632Y004217D02*
X054915Y004217D01*
X054934Y004199D02*
X054632Y004199D01*
X054632Y004180D02*
X054952Y004180D01*
X054971Y004162D02*
X054632Y004162D01*
X054632Y004143D02*
X054989Y004143D01*
X055008Y004125D02*
X054632Y004125D01*
X054632Y004106D02*
X055026Y004106D01*
X055032Y004106D02*
X055037Y004106D01*
X055032Y004088D02*
X055045Y004088D01*
X055032Y004069D02*
X055064Y004069D01*
X055082Y004051D02*
X055032Y004051D01*
X055032Y004032D02*
X055101Y004032D01*
X055119Y004013D02*
X055032Y004013D01*
X055032Y003995D02*
X055138Y003995D01*
X055156Y003976D02*
X055032Y003976D01*
X055032Y003958D02*
X055175Y003958D01*
X055193Y003939D02*
X055032Y003939D01*
X055032Y003921D02*
X055212Y003921D01*
X055230Y003902D02*
X055032Y003902D01*
X055032Y003884D02*
X055249Y003884D01*
X055268Y003865D02*
X055032Y003865D01*
X055032Y003847D02*
X055286Y003847D01*
X055305Y003828D02*
X055032Y003828D01*
X055032Y003809D02*
X055323Y003809D01*
X055342Y003791D02*
X055032Y003791D01*
X055032Y003772D02*
X055360Y003772D01*
X055379Y003754D02*
X055032Y003754D01*
X055032Y003735D02*
X055397Y003735D01*
X055416Y003717D02*
X055032Y003717D01*
X054833Y003902D02*
X054632Y003902D01*
X054632Y003884D02*
X054815Y003884D01*
X054796Y003865D02*
X054632Y003865D01*
X054632Y003847D02*
X054778Y003847D01*
X054759Y003828D02*
X054632Y003828D01*
X054632Y003809D02*
X054740Y003809D01*
X054722Y003791D02*
X054632Y003791D01*
X054632Y003772D02*
X054703Y003772D01*
X054685Y003754D02*
X054632Y003754D01*
X054632Y003735D02*
X054666Y003735D01*
X054648Y003717D02*
X054632Y003717D01*
X054632Y003921D02*
X054852Y003921D01*
X054870Y003939D02*
X054632Y003939D01*
X054632Y003958D02*
X054889Y003958D01*
X054907Y003976D02*
X054632Y003976D01*
X054632Y003995D02*
X054926Y003995D01*
X054944Y004013D02*
X054632Y004013D01*
X054632Y004032D02*
X054963Y004032D01*
X054982Y004051D02*
X054632Y004051D01*
X054632Y004069D02*
X055000Y004069D01*
X055019Y004088D02*
X054632Y004088D01*
X055032Y004125D02*
X055056Y004125D01*
X055074Y004143D02*
X055032Y004143D01*
X055032Y004162D02*
X055093Y004162D01*
X055111Y004180D02*
X055032Y004180D01*
X055032Y004199D02*
X055130Y004199D01*
X055148Y004217D02*
X055032Y004217D01*
X055032Y004236D02*
X055167Y004236D01*
X055186Y004254D02*
X055032Y004254D01*
X055032Y004273D02*
X055204Y004273D01*
X055223Y004292D02*
X055032Y004292D01*
X055032Y004310D02*
X055241Y004310D01*
X055260Y004329D02*
X055032Y004329D01*
X055032Y004347D02*
X055278Y004347D01*
X055297Y004366D02*
X055032Y004366D01*
X055032Y004384D02*
X055315Y004384D01*
X055334Y004403D02*
X055032Y004403D01*
X055032Y004421D02*
X055352Y004421D01*
X055371Y004440D02*
X055032Y004440D01*
X055032Y004458D02*
X055389Y004458D01*
X055408Y004477D02*
X055032Y004477D01*
X055032Y004496D02*
X055427Y004496D01*
X055632Y004501D02*
X056432Y004501D01*
X056032Y004101D01*
X056432Y003701D01*
X055632Y003701D01*
X056032Y004101D01*
X055632Y004501D01*
X055637Y004496D02*
X056427Y004496D01*
X056408Y004477D02*
X055656Y004477D01*
X055674Y004458D02*
X056389Y004458D01*
X056371Y004440D02*
X055693Y004440D01*
X055711Y004421D02*
X056352Y004421D01*
X056334Y004403D02*
X055730Y004403D01*
X055748Y004384D02*
X056315Y004384D01*
X056297Y004366D02*
X055767Y004366D01*
X055785Y004347D02*
X056278Y004347D01*
X056260Y004329D02*
X055804Y004329D01*
X055822Y004310D02*
X056241Y004310D01*
X056223Y004292D02*
X055841Y004292D01*
X055860Y004273D02*
X056204Y004273D01*
X056186Y004254D02*
X055878Y004254D01*
X055897Y004236D02*
X056167Y004236D01*
X056148Y004217D02*
X055915Y004217D01*
X055934Y004199D02*
X056130Y004199D01*
X056111Y004180D02*
X055952Y004180D01*
X055971Y004162D02*
X056093Y004162D01*
X056074Y004143D02*
X055989Y004143D01*
X056008Y004125D02*
X056056Y004125D01*
X056037Y004106D02*
X056026Y004106D01*
X056019Y004088D02*
X056045Y004088D01*
X056064Y004069D02*
X056000Y004069D01*
X055982Y004051D02*
X056082Y004051D01*
X056101Y004032D02*
X055963Y004032D01*
X055944Y004013D02*
X056119Y004013D01*
X056138Y003995D02*
X055926Y003995D01*
X055907Y003976D02*
X056156Y003976D01*
X056175Y003958D02*
X055889Y003958D01*
X055870Y003939D02*
X056193Y003939D01*
X056212Y003921D02*
X055852Y003921D01*
X055833Y003902D02*
X056230Y003902D01*
X056249Y003884D02*
X055815Y003884D01*
X055796Y003865D02*
X056268Y003865D01*
X056286Y003847D02*
X055778Y003847D01*
X055759Y003828D02*
X056305Y003828D01*
X056323Y003809D02*
X055740Y003809D01*
X055722Y003791D02*
X056342Y003791D01*
X056360Y003772D02*
X055703Y003772D01*
X055685Y003754D02*
X056379Y003754D01*
X056397Y003735D02*
X055666Y003735D01*
X055648Y003717D02*
X056416Y003717D01*
D14*
X050212Y006211D02*
X050212Y006491D01*
X050072Y006351D02*
X050352Y006351D01*
X044352Y006351D02*
X044072Y006351D01*
X044212Y006491D02*
X044212Y006211D01*
X038352Y006351D02*
X038072Y006351D01*
X038212Y006491D02*
X038212Y006211D01*
X025152Y009851D02*
X024872Y009851D01*
X025012Y009991D02*
X025012Y009711D01*
X012252Y004851D02*
X011972Y004851D01*
X012112Y004991D02*
X012112Y004711D01*
X009312Y001291D02*
X009312Y001011D01*
X009172Y001151D02*
X009452Y001151D01*
X012112Y016811D02*
X012112Y017091D01*
X011972Y016951D02*
X012252Y016951D01*
X024872Y020351D02*
X025152Y020351D01*
D15*
X038082Y002452D02*
X038482Y002452D01*
X038682Y002252D01*
X038682Y002051D01*
X038482Y001851D01*
X038682Y001651D01*
X038682Y001451D01*
X038482Y001251D01*
X038082Y001251D01*
X037882Y001451D01*
X038282Y001851D02*
X038482Y001851D01*
X037882Y002252D02*
X038082Y002452D01*
X043882Y002252D02*
X044082Y002452D01*
X044482Y002452D01*
X044682Y002252D01*
X044682Y002051D01*
X043882Y001251D01*
X044682Y001251D01*
X049882Y001251D02*
X050682Y001251D01*
X050282Y001251D02*
X050282Y002452D01*
X049882Y002051D01*
D16*
X056932Y015329D03*
X056933Y015329D03*
D17*
X056931Y015330D03*
X056561Y015581D03*
D18*
X056929Y015329D03*
D19*
X056928Y015330D03*
X056831Y015389D03*
X056830Y015390D03*
X056827Y015391D03*
X056824Y015393D03*
X056820Y015396D03*
X056817Y015398D03*
X056562Y015581D03*
D20*
X056781Y015422D03*
X056784Y015419D03*
X056788Y015417D03*
X056791Y015414D03*
X056795Y015412D03*
X056799Y015410D03*
X056802Y015407D03*
X056806Y015405D03*
X056807Y015405D03*
X056809Y015402D03*
X056811Y015402D03*
X056812Y015401D03*
X056813Y015400D03*
X056814Y015400D03*
X056815Y015399D03*
X056818Y015398D03*
X056819Y015396D03*
X056821Y015395D03*
X056823Y015394D03*
X056825Y015393D03*
X056927Y015329D03*
D21*
X056926Y015330D03*
X056803Y015407D03*
X056794Y015413D03*
X056790Y015415D03*
X056789Y015416D03*
X056787Y015417D03*
X056785Y015419D03*
X056783Y015420D03*
X056782Y015421D03*
X056779Y015422D03*
X056778Y015423D03*
X056777Y015423D03*
X056776Y015425D03*
X056775Y015426D03*
X056772Y015427D03*
X056771Y015428D03*
X056769Y015429D03*
X056767Y015431D03*
X056765Y015432D03*
X056764Y015433D03*
X056760Y015435D03*
X056757Y015438D03*
X056563Y015581D03*
D22*
X056704Y015475D03*
X056709Y015471D03*
X056712Y015469D03*
X056713Y015468D03*
X056716Y015467D03*
X056717Y015465D03*
X056719Y015464D03*
X056721Y015463D03*
X056722Y015462D03*
X056723Y015462D03*
X056724Y015461D03*
X056727Y015458D03*
X056728Y015458D03*
X056730Y015456D03*
X056734Y015453D03*
X056737Y015451D03*
X056741Y015449D03*
X056746Y015445D03*
X056749Y015443D03*
X056923Y015330D03*
X056925Y015330D03*
D23*
X056922Y015330D03*
X056921Y015330D03*
X056686Y015488D03*
X056685Y015489D03*
X056681Y015492D03*
X056680Y015493D03*
X056677Y015494D03*
X056676Y015495D03*
X056675Y015497D03*
X056674Y015498D03*
X056673Y015498D03*
X056671Y015499D03*
X056670Y015500D03*
X056668Y015501D03*
X056667Y015503D03*
X056665Y015504D03*
X056662Y015506D03*
X056661Y015507D03*
X056657Y015510D03*
X056656Y015511D03*
X056651Y015515D03*
D24*
X056650Y015515D03*
X056649Y015516D03*
X056647Y015518D03*
X056646Y015519D03*
X056645Y015519D03*
X056644Y015520D03*
X056643Y015521D03*
X056641Y015522D03*
X056640Y015524D03*
X056638Y015525D03*
X056637Y015526D03*
X056635Y015527D03*
X056632Y015530D03*
X056631Y015531D03*
X056652Y015514D03*
X056653Y015513D03*
X056655Y015512D03*
X056658Y015509D03*
X056659Y015508D03*
X056663Y015506D03*
X056664Y015504D03*
X056669Y015501D03*
X056566Y015581D03*
X056920Y015330D03*
D25*
X056919Y015330D03*
X056917Y015330D03*
X056613Y015545D03*
X056608Y015549D03*
X056605Y015551D03*
X056602Y015554D03*
X056599Y015556D03*
X056596Y015558D03*
X056593Y015561D03*
X056587Y015566D03*
D26*
X056579Y015573D03*
X056573Y015578D03*
X056572Y015579D03*
X056571Y015580D03*
X056915Y015330D03*
X056916Y015330D03*
D27*
X056914Y015330D03*
D28*
X056913Y015331D03*
D29*
X056911Y015330D03*
D30*
X056910Y015331D03*
D31*
X056909Y015330D03*
D32*
X056908Y015331D03*
X056907Y015331D03*
D33*
X056905Y015331D03*
D34*
X056904Y015332D03*
D35*
X056903Y015331D03*
D36*
X056902Y015332D03*
D37*
X056901Y015331D03*
D38*
X056899Y015332D03*
D39*
X056898Y015332D03*
X056897Y015332D03*
D40*
X056896Y015332D03*
X056895Y015332D03*
D41*
X056893Y015332D03*
D42*
X056892Y015332D03*
D43*
X056891Y015332D03*
D44*
X056890Y015332D03*
X056889Y015332D03*
D45*
X056887Y015332D03*
X056886Y015332D03*
D46*
X056885Y015332D03*
D47*
X056884Y015333D03*
D48*
X056883Y015332D03*
D49*
X056881Y015333D03*
X056880Y015333D03*
D50*
X056879Y015333D03*
D51*
X056878Y015333D03*
D52*
X056877Y015333D03*
D53*
X056875Y015333D03*
D54*
X056874Y015333D03*
X056873Y015333D03*
D55*
X056872Y015333D03*
X056871Y015333D03*
D56*
X056869Y015334D03*
D57*
X056868Y015334D03*
X056867Y015334D03*
D58*
X056866Y015334D03*
D59*
X056865Y015335D03*
D60*
X056863Y015334D03*
D61*
X056862Y015335D03*
D62*
X056861Y015334D03*
D63*
X056860Y015335D03*
D64*
X056859Y015335D03*
X056857Y015335D03*
D65*
X056856Y015335D03*
D66*
X056855Y015335D03*
X056854Y015335D03*
D67*
X056853Y015335D03*
X056851Y015335D03*
D68*
X056850Y015335D03*
D69*
X056849Y015336D03*
D70*
X056848Y015335D03*
D71*
X056847Y015336D03*
D72*
X056845Y015336D03*
X056844Y015336D03*
D73*
X056843Y015336D03*
D74*
X056842Y015336D03*
D75*
X056841Y015336D03*
D76*
X056839Y015336D03*
X056838Y015336D03*
D77*
X056837Y015336D03*
D78*
X056836Y015337D03*
D79*
X056835Y015336D03*
D80*
X056833Y015337D03*
D81*
X056832Y015337D03*
D82*
X056831Y015282D03*
X056829Y015281D03*
X056826Y015280D03*
X056824Y015279D03*
X056821Y015278D03*
X056818Y015276D03*
X056815Y015275D03*
X056813Y015274D03*
X056811Y015273D03*
X056808Y015272D03*
X056807Y015272D03*
X056805Y015270D03*
X056802Y015269D03*
X056800Y015268D03*
X056797Y015267D03*
X056795Y015266D03*
X056794Y015266D03*
X056791Y015264D03*
X056789Y015263D03*
X056787Y015262D03*
X056784Y015261D03*
X056783Y015261D03*
X056781Y015260D03*
X056778Y015258D03*
X056776Y015257D03*
X056773Y015256D03*
X056771Y015255D03*
X056770Y015255D03*
X056767Y015254D03*
X056765Y015252D03*
X056763Y015251D03*
X056760Y015250D03*
X056759Y015250D03*
X056758Y015249D03*
X056757Y015249D03*
X056754Y015248D03*
X056752Y015246D03*
X056749Y015245D03*
X056747Y015244D03*
X056746Y015244D03*
X056745Y015243D03*
X056743Y015243D03*
X056741Y015242D03*
X056739Y015240D03*
X056736Y015239D03*
X056735Y015239D03*
X056734Y015238D03*
X056733Y015238D03*
X056730Y015237D03*
X056728Y015236D03*
X056725Y015234D03*
X056724Y015234D03*
X056723Y015233D03*
X056722Y015233D03*
X056721Y015232D03*
X056719Y015232D03*
X056559Y015580D03*
D83*
X056717Y015231D03*
X056718Y015231D03*
X056727Y015235D03*
X056729Y015236D03*
X056731Y015237D03*
X056737Y015240D03*
X056740Y015241D03*
X056742Y015242D03*
X056748Y015245D03*
X056751Y015246D03*
X056753Y015247D03*
X056755Y015248D03*
X056761Y015251D03*
X056764Y015252D03*
X056766Y015253D03*
X056769Y015254D03*
X056772Y015255D03*
X056775Y015257D03*
X056777Y015258D03*
X056779Y015259D03*
X056782Y015260D03*
X056785Y015261D03*
X056788Y015263D03*
X056790Y015264D03*
X056793Y015265D03*
X056796Y015266D03*
X056799Y015267D03*
X056801Y015269D03*
X056803Y015270D03*
X056806Y015271D03*
X056809Y015272D03*
X056812Y015273D03*
X056814Y015275D03*
X056817Y015276D03*
X056819Y015277D03*
X056820Y015277D03*
X056823Y015278D03*
X056825Y015279D03*
X056827Y015281D03*
X056830Y015282D03*
D84*
X056829Y015390D03*
X056808Y015404D03*
X056805Y015406D03*
X056801Y015408D03*
X056800Y015408D03*
X056797Y015411D03*
X056796Y015411D03*
X056793Y015413D03*
D85*
X056826Y015392D03*
D86*
X056773Y015426D03*
X056770Y015429D03*
X056766Y015431D03*
X056763Y015434D03*
X056761Y015435D03*
X056759Y015436D03*
X056758Y015437D03*
X056755Y015438D03*
X056754Y015440D03*
X056753Y015440D03*
X056752Y015441D03*
X056751Y015442D03*
X056748Y015443D03*
X056747Y015444D03*
X056745Y015446D03*
X056743Y015447D03*
X056742Y015448D03*
X056740Y015449D03*
X056739Y015450D03*
X056736Y015452D03*
X056735Y015453D03*
X056731Y015455D03*
D87*
X056733Y015455D03*
X056729Y015457D03*
X056725Y015459D03*
D88*
X056718Y015465D03*
X056715Y015467D03*
X056711Y015470D03*
X056707Y015472D03*
X056705Y015474D03*
X056701Y015477D03*
X056698Y015479D03*
X056695Y015482D03*
X056694Y015482D03*
X056692Y015484D03*
X056691Y015485D03*
X056689Y015485D03*
X056688Y015486D03*
X056687Y015488D03*
X056683Y015490D03*
D89*
X056556Y015580D03*
X056716Y015232D03*
D90*
X056715Y015234D03*
D91*
X056713Y015234D03*
X056553Y015579D03*
D92*
X056551Y015579D03*
X056712Y015236D03*
D93*
X056711Y015237D03*
X056550Y015579D03*
D94*
X056710Y015237D03*
D95*
X056710Y015471D03*
X056706Y015473D03*
X056703Y015476D03*
X056700Y015478D03*
X056699Y015478D03*
X056697Y015480D03*
X056693Y015483D03*
X056682Y015491D03*
X056679Y015494D03*
X056565Y015581D03*
D96*
X056709Y015239D03*
D97*
X056707Y015240D03*
D98*
X056706Y015241D03*
D99*
X056705Y015242D03*
D100*
X056704Y015243D03*
X056541Y015577D03*
D101*
X056538Y015576D03*
X056703Y015244D03*
D102*
X056701Y015245D03*
D103*
X056700Y015246D03*
X056536Y015576D03*
D104*
X056699Y015247D03*
D105*
X056698Y015249D03*
D106*
X056697Y015249D03*
X056531Y015576D03*
D107*
X056695Y015251D03*
D108*
X056694Y015251D03*
X056527Y015575D03*
D109*
X056693Y015253D03*
D110*
X056692Y015254D03*
D111*
X056691Y015255D03*
D112*
X056689Y015255D03*
D113*
X056688Y015257D03*
D114*
X056687Y015258D03*
D115*
X056686Y015259D03*
X056517Y015573D03*
D116*
X056685Y015260D03*
D117*
X056683Y015261D03*
X056513Y015573D03*
D118*
X056682Y015263D03*
D119*
X056681Y015263D03*
D120*
X056680Y015264D03*
D121*
X056639Y015524D03*
X056634Y015528D03*
X056633Y015529D03*
X056629Y015531D03*
X056628Y015533D03*
X056627Y015534D03*
X056626Y015535D03*
X056625Y015535D03*
X056623Y015536D03*
X056622Y015537D03*
X056621Y015539D03*
X056620Y015540D03*
X056619Y015540D03*
X056617Y015541D03*
X056616Y015542D03*
X056615Y015543D03*
X056611Y015546D03*
X056609Y015548D03*
X056604Y015552D03*
X056567Y015582D03*
D122*
X056592Y015562D03*
X056595Y015560D03*
X056598Y015557D03*
X056601Y015555D03*
X056603Y015552D03*
X056607Y015550D03*
X056614Y015544D03*
D123*
X056610Y015547D03*
D124*
X056597Y015558D03*
X056591Y015563D03*
X056590Y015564D03*
X056589Y015565D03*
X056586Y015566D03*
X056585Y015567D03*
X056584Y015569D03*
X056583Y015570D03*
X056581Y015571D03*
X056580Y015572D03*
X056578Y015573D03*
X056577Y015575D03*
X056575Y015576D03*
X056574Y015577D03*
X056569Y015581D03*
X056568Y015582D03*
D125*
X056560Y015581D03*
D126*
X056557Y015580D03*
D127*
X056555Y015579D03*
D128*
X056554Y015579D03*
D129*
X056549Y015579D03*
D130*
X056548Y015578D03*
D131*
X056547Y015578D03*
D132*
X056545Y015578D03*
D133*
X056544Y015578D03*
D134*
X056543Y015578D03*
D135*
X056542Y015578D03*
D136*
X056539Y015577D03*
D137*
X056537Y015576D03*
D138*
X056535Y015576D03*
D139*
X056533Y015576D03*
D140*
X056532Y015576D03*
D141*
X056530Y015575D03*
D142*
X056529Y015575D03*
D143*
X056526Y015575D03*
D144*
X056525Y015575D03*
D145*
X056524Y015575D03*
D146*
X056523Y015575D03*
D147*
X056521Y015574D03*
D148*
X056520Y015574D03*
D149*
X056519Y015574D03*
D150*
X056518Y015573D03*
D151*
X056515Y015573D03*
D152*
X056514Y015573D03*
D153*
X056512Y015573D03*
D154*
X056511Y015573D03*
D155*
X056509Y015572D03*
D156*
X049236Y006032D02*
X049236Y006072D01*
X049237Y006071D02*
X049289Y006073D01*
X049342Y006079D01*
X049393Y006088D01*
X049444Y006100D01*
X049494Y006116D01*
X049543Y006136D01*
X049591Y006158D01*
X049637Y006184D01*
X049657Y006151D01*
X049657Y006150D01*
X049609Y006123D01*
X049559Y006099D01*
X049508Y006079D01*
X049455Y006062D01*
X049402Y006049D01*
X049347Y006039D01*
X049292Y006033D01*
X049237Y006031D01*
X049237Y006040D01*
X049292Y006042D01*
X049346Y006048D01*
X049400Y006058D01*
X049453Y006071D01*
X049505Y006087D01*
X049556Y006107D01*
X049605Y006131D01*
X049653Y006158D01*
X049648Y006165D01*
X049601Y006139D01*
X049552Y006116D01*
X049502Y006096D01*
X049450Y006079D01*
X049398Y006066D01*
X049345Y006057D01*
X049291Y006051D01*
X049237Y006049D01*
X049237Y006058D01*
X049290Y006060D01*
X049343Y006066D01*
X049396Y006075D01*
X049448Y006088D01*
X049499Y006104D01*
X049548Y006124D01*
X049597Y006147D01*
X049643Y006173D01*
X049639Y006181D01*
X049593Y006155D01*
X049545Y006132D01*
X049496Y006113D01*
X049445Y006097D01*
X049394Y006084D01*
X049342Y006075D01*
X049290Y006069D01*
X049237Y006067D01*
X049643Y006142D02*
X049623Y006177D01*
X049623Y006176D02*
X049669Y006205D01*
X049713Y006237D01*
X049754Y006272D01*
X049793Y006309D01*
X049829Y006349D01*
X049862Y006392D01*
X049893Y006436D01*
X049920Y006483D01*
X049944Y006532D01*
X049964Y006582D01*
X049981Y006633D01*
X049994Y006685D01*
X050004Y006738D01*
X050010Y006792D01*
X050012Y006846D01*
X050051Y006847D01*
X050052Y006846D01*
X050050Y006789D01*
X050043Y006733D01*
X050033Y006677D01*
X050019Y006622D01*
X050002Y006568D01*
X049980Y006515D01*
X049955Y006464D01*
X049927Y006415D01*
X049895Y006368D01*
X049860Y006323D01*
X049822Y006281D01*
X049781Y006242D01*
X049737Y006205D01*
X049691Y006172D01*
X049643Y006142D01*
X049639Y006149D01*
X049686Y006179D01*
X049732Y006212D01*
X049775Y006248D01*
X049815Y006287D01*
X049853Y006329D01*
X049887Y006373D01*
X049919Y006420D01*
X049947Y006469D01*
X049972Y006519D01*
X049993Y006571D01*
X050011Y006624D01*
X050025Y006679D01*
X050035Y006734D01*
X050041Y006790D01*
X050043Y006846D01*
X050034Y006846D01*
X050032Y006791D01*
X050026Y006735D01*
X050016Y006681D01*
X050002Y006627D01*
X049985Y006574D01*
X049964Y006523D01*
X049939Y006473D01*
X049911Y006425D01*
X049880Y006379D01*
X049846Y006335D01*
X049809Y006294D01*
X049769Y006255D01*
X049726Y006219D01*
X049681Y006187D01*
X049634Y006157D01*
X049630Y006165D01*
X049676Y006194D01*
X049721Y006226D01*
X049763Y006262D01*
X049802Y006300D01*
X049839Y006341D01*
X049873Y006384D01*
X049904Y006429D01*
X049931Y006477D01*
X049955Y006526D01*
X049976Y006577D01*
X049993Y006629D01*
X050007Y006683D01*
X050017Y006737D01*
X050023Y006791D01*
X050025Y006846D01*
X050016Y006846D01*
X050014Y006792D01*
X050008Y006738D01*
X049998Y006684D01*
X049985Y006632D01*
X049968Y006580D01*
X049947Y006530D01*
X049923Y006481D01*
X049896Y006434D01*
X049866Y006389D01*
X049832Y006347D01*
X049796Y006306D01*
X049757Y006269D01*
X049715Y006234D01*
X049671Y006202D01*
X049625Y006173D01*
X048848Y006127D02*
X048867Y006162D01*
X048915Y006138D01*
X048964Y006118D01*
X049015Y006102D01*
X049067Y006089D01*
X049120Y006079D01*
X049173Y006073D01*
X049227Y006071D01*
X049228Y006032D01*
X049227Y006031D01*
X049171Y006033D01*
X049115Y006039D01*
X049059Y006049D01*
X049004Y006063D01*
X048951Y006081D01*
X048898Y006102D01*
X048848Y006127D01*
X048852Y006135D01*
X048902Y006110D01*
X048954Y006089D01*
X049007Y006072D01*
X049061Y006058D01*
X049116Y006048D01*
X049171Y006042D01*
X049227Y006040D01*
X049227Y006049D01*
X049172Y006051D01*
X049117Y006057D01*
X049063Y006067D01*
X049009Y006081D01*
X048957Y006098D01*
X048906Y006118D01*
X048856Y006143D01*
X048860Y006150D01*
X048909Y006127D01*
X048960Y006106D01*
X049012Y006089D01*
X049065Y006076D01*
X049118Y006066D01*
X049173Y006060D01*
X049227Y006058D01*
X049227Y006067D01*
X049173Y006069D01*
X049120Y006075D01*
X049067Y006085D01*
X049014Y006098D01*
X048963Y006115D01*
X048913Y006135D01*
X048865Y006158D01*
X050051Y006855D02*
X050011Y006855D01*
X050012Y006856D02*
X050010Y006912D01*
X050003Y006967D01*
X049993Y007021D01*
X049979Y007075D01*
X049961Y007128D01*
X049940Y007179D01*
X049914Y007229D01*
X049886Y007276D01*
X049854Y007322D01*
X049819Y007365D01*
X049781Y007406D01*
X049740Y007443D01*
X049765Y007473D01*
X049765Y007474D01*
X049805Y007437D01*
X049843Y007398D01*
X049877Y007357D01*
X049909Y007313D01*
X049938Y007268D01*
X049964Y007220D01*
X049987Y007171D01*
X050006Y007121D01*
X050022Y007069D01*
X050035Y007017D01*
X050044Y006964D01*
X050050Y006910D01*
X050052Y006856D01*
X050043Y006856D01*
X050041Y006909D01*
X050035Y006962D01*
X050026Y007015D01*
X050014Y007067D01*
X049998Y007118D01*
X049979Y007168D01*
X049956Y007216D01*
X049930Y007263D01*
X049902Y007308D01*
X049870Y007351D01*
X049836Y007392D01*
X049799Y007431D01*
X049760Y007467D01*
X049754Y007460D01*
X049793Y007424D01*
X049829Y007386D01*
X049863Y007346D01*
X049894Y007303D01*
X049923Y007259D01*
X049948Y007212D01*
X049970Y007164D01*
X049989Y007115D01*
X050005Y007065D01*
X050017Y007013D01*
X050026Y006961D01*
X050032Y006909D01*
X050034Y006856D01*
X050025Y006856D01*
X050023Y006908D01*
X050017Y006960D01*
X050009Y007012D01*
X049996Y007062D01*
X049981Y007112D01*
X049962Y007161D01*
X049940Y007208D01*
X049915Y007254D01*
X049887Y007298D01*
X049856Y007340D01*
X049823Y007380D01*
X049787Y007418D01*
X049748Y007453D01*
X049742Y007446D01*
X049783Y007408D01*
X049822Y007368D01*
X049857Y007324D01*
X049889Y007279D01*
X049918Y007231D01*
X049943Y007181D01*
X049965Y007129D01*
X049983Y007076D01*
X049997Y007022D01*
X050007Y006967D01*
X050014Y006912D01*
X050016Y006856D01*
X048413Y006846D02*
X048453Y006846D01*
X048452Y006846D02*
X048454Y006790D01*
X048461Y006735D01*
X048471Y006681D01*
X048485Y006627D01*
X048503Y006574D01*
X048524Y006523D01*
X048549Y006474D01*
X048578Y006426D01*
X048610Y006381D01*
X048645Y006338D01*
X048683Y006297D01*
X048724Y006259D01*
X048767Y006225D01*
X048813Y006193D01*
X048861Y006165D01*
X048842Y006130D01*
X048794Y006157D01*
X048749Y006188D01*
X048706Y006222D01*
X048665Y006258D01*
X048627Y006298D01*
X048591Y006339D01*
X048559Y006383D01*
X048529Y006429D01*
X048502Y006477D01*
X048479Y006526D01*
X048459Y006577D01*
X048442Y006630D01*
X048429Y006683D01*
X048420Y006737D01*
X048414Y006791D01*
X048412Y006846D01*
X048421Y006846D01*
X048423Y006792D01*
X048429Y006738D01*
X048438Y006685D01*
X048451Y006632D01*
X048467Y006580D01*
X048487Y006530D01*
X048510Y006481D01*
X048537Y006434D01*
X048566Y006388D01*
X048598Y006345D01*
X048634Y006304D01*
X048671Y006265D01*
X048712Y006229D01*
X048754Y006196D01*
X048799Y006165D01*
X048846Y006138D01*
X048850Y006146D01*
X048804Y006173D01*
X048760Y006203D01*
X048718Y006236D01*
X048678Y006271D01*
X048640Y006310D01*
X048605Y006350D01*
X048573Y006393D01*
X048544Y006438D01*
X048518Y006485D01*
X048495Y006534D01*
X048476Y006583D01*
X048460Y006634D01*
X048447Y006686D01*
X048438Y006739D01*
X048432Y006792D01*
X048430Y006846D01*
X048439Y006846D01*
X048441Y006793D01*
X048447Y006740D01*
X048456Y006688D01*
X048468Y006637D01*
X048484Y006586D01*
X048504Y006537D01*
X048526Y006489D01*
X048552Y006443D01*
X048581Y006399D01*
X048612Y006356D01*
X048647Y006316D01*
X048684Y006278D01*
X048723Y006243D01*
X048765Y006210D01*
X048809Y006180D01*
X048854Y006154D01*
X048859Y006162D01*
X048811Y006190D01*
X048765Y006222D01*
X048721Y006256D01*
X048680Y006294D01*
X048642Y006335D01*
X048607Y006378D01*
X048575Y006424D01*
X048546Y006472D01*
X048521Y006522D01*
X048499Y006573D01*
X048481Y006626D01*
X048467Y006680D01*
X048457Y006735D01*
X048450Y006790D01*
X048448Y006846D01*
X048704Y007477D02*
X048729Y007446D01*
X048729Y007447D02*
X048690Y007412D01*
X048654Y007375D01*
X048621Y007336D01*
X048590Y007294D01*
X048562Y007250D01*
X048537Y007205D01*
X048515Y007158D01*
X048496Y007110D01*
X048481Y007061D01*
X048468Y007010D01*
X048460Y006959D01*
X048454Y006908D01*
X048452Y006856D01*
X048413Y006855D01*
X048412Y006856D01*
X048414Y006910D01*
X048420Y006965D01*
X048429Y007018D01*
X048442Y007071D01*
X048458Y007123D01*
X048478Y007174D01*
X048501Y007223D01*
X048528Y007271D01*
X048557Y007317D01*
X048590Y007361D01*
X048625Y007402D01*
X048663Y007441D01*
X048703Y007478D01*
X048709Y007471D01*
X048669Y007435D01*
X048631Y007396D01*
X048597Y007355D01*
X048565Y007312D01*
X048535Y007266D01*
X048509Y007219D01*
X048487Y007170D01*
X048467Y007120D01*
X048451Y007069D01*
X048438Y007016D01*
X048429Y006963D01*
X048423Y006910D01*
X048421Y006856D01*
X048430Y006856D01*
X048432Y006909D01*
X048438Y006962D01*
X048447Y007015D01*
X048459Y007066D01*
X048475Y007117D01*
X048495Y007167D01*
X048517Y007215D01*
X048543Y007262D01*
X048572Y007307D01*
X048604Y007349D01*
X048638Y007390D01*
X048675Y007428D01*
X048715Y007464D01*
X048720Y007457D01*
X048681Y007422D01*
X048645Y007384D01*
X048611Y007344D01*
X048579Y007301D01*
X048551Y007257D01*
X048525Y007211D01*
X048503Y007163D01*
X048484Y007114D01*
X048468Y007064D01*
X048456Y007013D01*
X048447Y006961D01*
X048441Y006909D01*
X048439Y006856D01*
X048448Y006856D01*
X048450Y006908D01*
X048456Y006960D01*
X048465Y007011D01*
X048477Y007062D01*
X048492Y007111D01*
X048511Y007160D01*
X048533Y007207D01*
X048559Y007252D01*
X048587Y007296D01*
X048618Y007338D01*
X048651Y007378D01*
X048688Y007415D01*
X048726Y007450D01*
X043236Y006032D02*
X043236Y006072D01*
X043237Y006071D02*
X043289Y006073D01*
X043342Y006079D01*
X043393Y006088D01*
X043444Y006100D01*
X043494Y006116D01*
X043543Y006136D01*
X043591Y006158D01*
X043637Y006184D01*
X043657Y006151D01*
X043657Y006150D01*
X043609Y006123D01*
X043559Y006099D01*
X043508Y006079D01*
X043455Y006062D01*
X043402Y006049D01*
X043347Y006039D01*
X043292Y006033D01*
X043237Y006031D01*
X043237Y006040D01*
X043292Y006042D01*
X043346Y006048D01*
X043400Y006058D01*
X043453Y006071D01*
X043505Y006087D01*
X043556Y006107D01*
X043605Y006131D01*
X043653Y006158D01*
X043648Y006165D01*
X043601Y006139D01*
X043552Y006116D01*
X043502Y006096D01*
X043450Y006079D01*
X043398Y006066D01*
X043345Y006057D01*
X043291Y006051D01*
X043237Y006049D01*
X043237Y006058D01*
X043290Y006060D01*
X043343Y006066D01*
X043396Y006075D01*
X043448Y006088D01*
X043499Y006104D01*
X043548Y006124D01*
X043597Y006147D01*
X043643Y006173D01*
X043639Y006181D01*
X043593Y006155D01*
X043545Y006132D01*
X043496Y006113D01*
X043445Y006097D01*
X043394Y006084D01*
X043342Y006075D01*
X043290Y006069D01*
X043237Y006067D01*
X043643Y006142D02*
X043623Y006177D01*
X043623Y006176D02*
X043669Y006205D01*
X043713Y006237D01*
X043754Y006272D01*
X043793Y006309D01*
X043829Y006349D01*
X043862Y006392D01*
X043893Y006436D01*
X043920Y006483D01*
X043944Y006532D01*
X043964Y006582D01*
X043981Y006633D01*
X043994Y006685D01*
X044004Y006738D01*
X044010Y006792D01*
X044012Y006846D01*
X044051Y006847D01*
X044052Y006846D01*
X044050Y006789D01*
X044043Y006733D01*
X044033Y006677D01*
X044019Y006622D01*
X044002Y006568D01*
X043980Y006515D01*
X043955Y006464D01*
X043927Y006415D01*
X043895Y006368D01*
X043860Y006323D01*
X043822Y006281D01*
X043781Y006242D01*
X043737Y006205D01*
X043691Y006172D01*
X043643Y006142D01*
X043639Y006149D01*
X043686Y006179D01*
X043732Y006212D01*
X043775Y006248D01*
X043815Y006287D01*
X043853Y006329D01*
X043887Y006373D01*
X043919Y006420D01*
X043947Y006469D01*
X043972Y006519D01*
X043993Y006571D01*
X044011Y006624D01*
X044025Y006679D01*
X044035Y006734D01*
X044041Y006790D01*
X044043Y006846D01*
X044034Y006846D01*
X044032Y006791D01*
X044026Y006735D01*
X044016Y006681D01*
X044002Y006627D01*
X043985Y006574D01*
X043964Y006523D01*
X043939Y006473D01*
X043911Y006425D01*
X043880Y006379D01*
X043846Y006335D01*
X043809Y006294D01*
X043769Y006255D01*
X043726Y006219D01*
X043681Y006187D01*
X043634Y006157D01*
X043630Y006165D01*
X043676Y006194D01*
X043721Y006226D01*
X043763Y006262D01*
X043802Y006300D01*
X043839Y006341D01*
X043873Y006384D01*
X043904Y006429D01*
X043931Y006477D01*
X043955Y006526D01*
X043976Y006577D01*
X043993Y006629D01*
X044007Y006683D01*
X044017Y006737D01*
X044023Y006791D01*
X044025Y006846D01*
X044016Y006846D01*
X044014Y006792D01*
X044008Y006738D01*
X043998Y006684D01*
X043985Y006632D01*
X043968Y006580D01*
X043947Y006530D01*
X043923Y006481D01*
X043896Y006434D01*
X043866Y006389D01*
X043832Y006347D01*
X043796Y006306D01*
X043757Y006269D01*
X043715Y006234D01*
X043671Y006202D01*
X043625Y006173D01*
X042848Y006127D02*
X042867Y006162D01*
X042915Y006138D01*
X042964Y006118D01*
X043015Y006102D01*
X043067Y006089D01*
X043120Y006079D01*
X043173Y006073D01*
X043227Y006071D01*
X043228Y006032D01*
X043227Y006031D01*
X043171Y006033D01*
X043115Y006039D01*
X043059Y006049D01*
X043004Y006063D01*
X042951Y006081D01*
X042898Y006102D01*
X042848Y006127D01*
X042852Y006135D01*
X042902Y006110D01*
X042954Y006089D01*
X043007Y006072D01*
X043061Y006058D01*
X043116Y006048D01*
X043171Y006042D01*
X043227Y006040D01*
X043227Y006049D01*
X043172Y006051D01*
X043117Y006057D01*
X043063Y006067D01*
X043009Y006081D01*
X042957Y006098D01*
X042906Y006118D01*
X042856Y006143D01*
X042860Y006150D01*
X042909Y006127D01*
X042960Y006106D01*
X043012Y006089D01*
X043065Y006076D01*
X043118Y006066D01*
X043173Y006060D01*
X043227Y006058D01*
X043227Y006067D01*
X043173Y006069D01*
X043120Y006075D01*
X043067Y006085D01*
X043014Y006098D01*
X042963Y006115D01*
X042913Y006135D01*
X042865Y006158D01*
X044051Y006855D02*
X044011Y006855D01*
X044012Y006856D02*
X044010Y006912D01*
X044003Y006967D01*
X043993Y007021D01*
X043979Y007075D01*
X043961Y007128D01*
X043940Y007179D01*
X043914Y007229D01*
X043886Y007276D01*
X043854Y007322D01*
X043819Y007365D01*
X043781Y007406D01*
X043740Y007443D01*
X043765Y007473D01*
X043765Y007474D01*
X043805Y007437D01*
X043843Y007398D01*
X043877Y007357D01*
X043909Y007313D01*
X043938Y007268D01*
X043964Y007220D01*
X043987Y007171D01*
X044006Y007121D01*
X044022Y007069D01*
X044035Y007017D01*
X044044Y006964D01*
X044050Y006910D01*
X044052Y006856D01*
X044043Y006856D01*
X044041Y006909D01*
X044035Y006962D01*
X044026Y007015D01*
X044014Y007067D01*
X043998Y007118D01*
X043979Y007168D01*
X043956Y007216D01*
X043930Y007263D01*
X043902Y007308D01*
X043870Y007351D01*
X043836Y007392D01*
X043799Y007431D01*
X043760Y007467D01*
X043754Y007460D01*
X043793Y007424D01*
X043829Y007386D01*
X043863Y007346D01*
X043894Y007303D01*
X043923Y007259D01*
X043948Y007212D01*
X043970Y007164D01*
X043989Y007115D01*
X044005Y007065D01*
X044017Y007013D01*
X044026Y006961D01*
X044032Y006909D01*
X044034Y006856D01*
X044025Y006856D01*
X044023Y006908D01*
X044017Y006960D01*
X044009Y007012D01*
X043996Y007062D01*
X043981Y007112D01*
X043962Y007161D01*
X043940Y007208D01*
X043915Y007254D01*
X043887Y007298D01*
X043856Y007340D01*
X043823Y007380D01*
X043787Y007418D01*
X043748Y007453D01*
X043742Y007446D01*
X043783Y007408D01*
X043822Y007368D01*
X043857Y007324D01*
X043889Y007279D01*
X043918Y007231D01*
X043943Y007181D01*
X043965Y007129D01*
X043983Y007076D01*
X043997Y007022D01*
X044007Y006967D01*
X044014Y006912D01*
X044016Y006856D01*
X042413Y006846D02*
X042453Y006846D01*
X042452Y006846D02*
X042454Y006790D01*
X042461Y006735D01*
X042471Y006681D01*
X042485Y006627D01*
X042503Y006574D01*
X042524Y006523D01*
X042549Y006474D01*
X042578Y006426D01*
X042610Y006381D01*
X042645Y006338D01*
X042683Y006297D01*
X042724Y006259D01*
X042767Y006225D01*
X042813Y006193D01*
X042861Y006165D01*
X042842Y006130D01*
X042794Y006157D01*
X042749Y006188D01*
X042706Y006222D01*
X042665Y006258D01*
X042627Y006298D01*
X042591Y006339D01*
X042559Y006383D01*
X042529Y006429D01*
X042502Y006477D01*
X042479Y006526D01*
X042459Y006577D01*
X042442Y006630D01*
X042429Y006683D01*
X042420Y006737D01*
X042414Y006791D01*
X042412Y006846D01*
X042421Y006846D01*
X042423Y006792D01*
X042429Y006738D01*
X042438Y006685D01*
X042451Y006632D01*
X042467Y006580D01*
X042487Y006530D01*
X042510Y006481D01*
X042537Y006434D01*
X042566Y006388D01*
X042598Y006345D01*
X042634Y006304D01*
X042671Y006265D01*
X042712Y006229D01*
X042754Y006196D01*
X042799Y006165D01*
X042846Y006138D01*
X042850Y006146D01*
X042804Y006173D01*
X042760Y006203D01*
X042718Y006236D01*
X042678Y006271D01*
X042640Y006310D01*
X042605Y006350D01*
X042573Y006393D01*
X042544Y006438D01*
X042518Y006485D01*
X042495Y006534D01*
X042476Y006583D01*
X042460Y006634D01*
X042447Y006686D01*
X042438Y006739D01*
X042432Y006792D01*
X042430Y006846D01*
X042439Y006846D01*
X042441Y006793D01*
X042447Y006740D01*
X042456Y006688D01*
X042468Y006637D01*
X042484Y006586D01*
X042504Y006537D01*
X042526Y006489D01*
X042552Y006443D01*
X042581Y006399D01*
X042612Y006356D01*
X042647Y006316D01*
X042684Y006278D01*
X042723Y006243D01*
X042765Y006210D01*
X042809Y006180D01*
X042854Y006154D01*
X042859Y006162D01*
X042811Y006190D01*
X042765Y006222D01*
X042721Y006256D01*
X042680Y006294D01*
X042642Y006335D01*
X042607Y006378D01*
X042575Y006424D01*
X042546Y006472D01*
X042521Y006522D01*
X042499Y006573D01*
X042481Y006626D01*
X042467Y006680D01*
X042457Y006735D01*
X042450Y006790D01*
X042448Y006846D01*
X042704Y007477D02*
X042729Y007446D01*
X042729Y007447D02*
X042690Y007412D01*
X042654Y007375D01*
X042621Y007336D01*
X042590Y007294D01*
X042562Y007250D01*
X042537Y007205D01*
X042515Y007158D01*
X042496Y007110D01*
X042481Y007061D01*
X042468Y007010D01*
X042460Y006959D01*
X042454Y006908D01*
X042452Y006856D01*
X042413Y006855D01*
X042412Y006856D01*
X042414Y006910D01*
X042420Y006965D01*
X042429Y007018D01*
X042442Y007071D01*
X042458Y007123D01*
X042478Y007174D01*
X042501Y007223D01*
X042528Y007271D01*
X042557Y007317D01*
X042590Y007361D01*
X042625Y007402D01*
X042663Y007441D01*
X042703Y007478D01*
X042709Y007471D01*
X042669Y007435D01*
X042631Y007396D01*
X042597Y007355D01*
X042565Y007312D01*
X042535Y007266D01*
X042509Y007219D01*
X042487Y007170D01*
X042467Y007120D01*
X042451Y007069D01*
X042438Y007016D01*
X042429Y006963D01*
X042423Y006910D01*
X042421Y006856D01*
X042430Y006856D01*
X042432Y006909D01*
X042438Y006962D01*
X042447Y007015D01*
X042459Y007066D01*
X042475Y007117D01*
X042495Y007167D01*
X042517Y007215D01*
X042543Y007262D01*
X042572Y007307D01*
X042604Y007349D01*
X042638Y007390D01*
X042675Y007428D01*
X042715Y007464D01*
X042720Y007457D01*
X042681Y007422D01*
X042645Y007384D01*
X042611Y007344D01*
X042579Y007301D01*
X042551Y007257D01*
X042525Y007211D01*
X042503Y007163D01*
X042484Y007114D01*
X042468Y007064D01*
X042456Y007013D01*
X042447Y006961D01*
X042441Y006909D01*
X042439Y006856D01*
X042448Y006856D01*
X042450Y006908D01*
X042456Y006960D01*
X042465Y007011D01*
X042477Y007062D01*
X042492Y007111D01*
X042511Y007160D01*
X042533Y007207D01*
X042559Y007252D01*
X042587Y007296D01*
X042618Y007338D01*
X042651Y007378D01*
X042688Y007415D01*
X042726Y007450D01*
X037236Y006032D02*
X037236Y006072D01*
X037237Y006071D02*
X037289Y006073D01*
X037342Y006079D01*
X037393Y006088D01*
X037444Y006100D01*
X037494Y006116D01*
X037543Y006136D01*
X037591Y006158D01*
X037637Y006184D01*
X037657Y006151D01*
X037657Y006150D01*
X037609Y006123D01*
X037559Y006099D01*
X037508Y006079D01*
X037455Y006062D01*
X037402Y006049D01*
X037347Y006039D01*
X037292Y006033D01*
X037237Y006031D01*
X037237Y006040D01*
X037292Y006042D01*
X037346Y006048D01*
X037400Y006058D01*
X037453Y006071D01*
X037505Y006087D01*
X037556Y006107D01*
X037605Y006131D01*
X037653Y006158D01*
X037648Y006165D01*
X037601Y006139D01*
X037552Y006116D01*
X037502Y006096D01*
X037450Y006079D01*
X037398Y006066D01*
X037345Y006057D01*
X037291Y006051D01*
X037237Y006049D01*
X037237Y006058D01*
X037290Y006060D01*
X037343Y006066D01*
X037396Y006075D01*
X037448Y006088D01*
X037499Y006104D01*
X037548Y006124D01*
X037597Y006147D01*
X037643Y006173D01*
X037639Y006181D01*
X037593Y006155D01*
X037545Y006132D01*
X037496Y006113D01*
X037445Y006097D01*
X037394Y006084D01*
X037342Y006075D01*
X037290Y006069D01*
X037237Y006067D01*
X037643Y006142D02*
X037623Y006177D01*
X037623Y006176D02*
X037669Y006205D01*
X037713Y006237D01*
X037754Y006272D01*
X037793Y006309D01*
X037829Y006349D01*
X037862Y006392D01*
X037893Y006436D01*
X037920Y006483D01*
X037944Y006532D01*
X037964Y006582D01*
X037981Y006633D01*
X037994Y006685D01*
X038004Y006738D01*
X038010Y006792D01*
X038012Y006846D01*
X038051Y006847D01*
X038052Y006846D01*
X038050Y006789D01*
X038043Y006733D01*
X038033Y006677D01*
X038019Y006622D01*
X038002Y006568D01*
X037980Y006515D01*
X037955Y006464D01*
X037927Y006415D01*
X037895Y006368D01*
X037860Y006323D01*
X037822Y006281D01*
X037781Y006242D01*
X037737Y006205D01*
X037691Y006172D01*
X037643Y006142D01*
X037639Y006149D01*
X037686Y006179D01*
X037732Y006212D01*
X037775Y006248D01*
X037815Y006287D01*
X037853Y006329D01*
X037887Y006373D01*
X037919Y006420D01*
X037947Y006469D01*
X037972Y006519D01*
X037993Y006571D01*
X038011Y006624D01*
X038025Y006679D01*
X038035Y006734D01*
X038041Y006790D01*
X038043Y006846D01*
X038034Y006846D01*
X038032Y006791D01*
X038026Y006735D01*
X038016Y006681D01*
X038002Y006627D01*
X037985Y006574D01*
X037964Y006523D01*
X037939Y006473D01*
X037911Y006425D01*
X037880Y006379D01*
X037846Y006335D01*
X037809Y006294D01*
X037769Y006255D01*
X037726Y006219D01*
X037681Y006187D01*
X037634Y006157D01*
X037630Y006165D01*
X037676Y006194D01*
X037721Y006226D01*
X037763Y006262D01*
X037802Y006300D01*
X037839Y006341D01*
X037873Y006384D01*
X037904Y006429D01*
X037931Y006477D01*
X037955Y006526D01*
X037976Y006577D01*
X037993Y006629D01*
X038007Y006683D01*
X038017Y006737D01*
X038023Y006791D01*
X038025Y006846D01*
X038016Y006846D01*
X038014Y006792D01*
X038008Y006738D01*
X037998Y006684D01*
X037985Y006632D01*
X037968Y006580D01*
X037947Y006530D01*
X037923Y006481D01*
X037896Y006434D01*
X037866Y006389D01*
X037832Y006347D01*
X037796Y006306D01*
X037757Y006269D01*
X037715Y006234D01*
X037671Y006202D01*
X037625Y006173D01*
X036848Y006127D02*
X036867Y006162D01*
X036915Y006138D01*
X036964Y006118D01*
X037015Y006102D01*
X037067Y006089D01*
X037120Y006079D01*
X037173Y006073D01*
X037227Y006071D01*
X037228Y006032D01*
X037227Y006031D01*
X037171Y006033D01*
X037115Y006039D01*
X037059Y006049D01*
X037004Y006063D01*
X036951Y006081D01*
X036898Y006102D01*
X036848Y006127D01*
X036852Y006135D01*
X036902Y006110D01*
X036954Y006089D01*
X037007Y006072D01*
X037061Y006058D01*
X037116Y006048D01*
X037171Y006042D01*
X037227Y006040D01*
X037227Y006049D01*
X037172Y006051D01*
X037117Y006057D01*
X037063Y006067D01*
X037009Y006081D01*
X036957Y006098D01*
X036906Y006118D01*
X036856Y006143D01*
X036860Y006150D01*
X036909Y006127D01*
X036960Y006106D01*
X037012Y006089D01*
X037065Y006076D01*
X037118Y006066D01*
X037173Y006060D01*
X037227Y006058D01*
X037227Y006067D01*
X037173Y006069D01*
X037120Y006075D01*
X037067Y006085D01*
X037014Y006098D01*
X036963Y006115D01*
X036913Y006135D01*
X036865Y006158D01*
X038051Y006855D02*
X038011Y006855D01*
X038012Y006856D02*
X038010Y006912D01*
X038003Y006967D01*
X037993Y007021D01*
X037979Y007075D01*
X037961Y007128D01*
X037940Y007179D01*
X037914Y007229D01*
X037886Y007276D01*
X037854Y007322D01*
X037819Y007365D01*
X037781Y007406D01*
X037740Y007443D01*
X037765Y007473D01*
X037765Y007474D01*
X037805Y007437D01*
X037843Y007398D01*
X037877Y007357D01*
X037909Y007313D01*
X037938Y007268D01*
X037964Y007220D01*
X037987Y007171D01*
X038006Y007121D01*
X038022Y007069D01*
X038035Y007017D01*
X038044Y006964D01*
X038050Y006910D01*
X038052Y006856D01*
X038043Y006856D01*
X038041Y006909D01*
X038035Y006962D01*
X038026Y007015D01*
X038014Y007067D01*
X037998Y007118D01*
X037979Y007168D01*
X037956Y007216D01*
X037930Y007263D01*
X037902Y007308D01*
X037870Y007351D01*
X037836Y007392D01*
X037799Y007431D01*
X037760Y007467D01*
X037754Y007460D01*
X037793Y007424D01*
X037829Y007386D01*
X037863Y007346D01*
X037894Y007303D01*
X037923Y007259D01*
X037948Y007212D01*
X037970Y007164D01*
X037989Y007115D01*
X038005Y007065D01*
X038017Y007013D01*
X038026Y006961D01*
X038032Y006909D01*
X038034Y006856D01*
X038025Y006856D01*
X038023Y006908D01*
X038017Y006960D01*
X038009Y007012D01*
X037996Y007062D01*
X037981Y007112D01*
X037962Y007161D01*
X037940Y007208D01*
X037915Y007254D01*
X037887Y007298D01*
X037856Y007340D01*
X037823Y007380D01*
X037787Y007418D01*
X037748Y007453D01*
X037742Y007446D01*
X037783Y007408D01*
X037822Y007368D01*
X037857Y007324D01*
X037889Y007279D01*
X037918Y007231D01*
X037943Y007181D01*
X037965Y007129D01*
X037983Y007076D01*
X037997Y007022D01*
X038007Y006967D01*
X038014Y006912D01*
X038016Y006856D01*
X036413Y006846D02*
X036453Y006846D01*
X036452Y006846D02*
X036454Y006790D01*
X036461Y006735D01*
X036471Y006681D01*
X036485Y006627D01*
X036503Y006574D01*
X036524Y006523D01*
X036549Y006474D01*
X036578Y006426D01*
X036610Y006381D01*
X036645Y006338D01*
X036683Y006297D01*
X036724Y006259D01*
X036767Y006225D01*
X036813Y006193D01*
X036861Y006165D01*
X036842Y006130D01*
X036794Y006157D01*
X036749Y006188D01*
X036706Y006222D01*
X036665Y006258D01*
X036627Y006298D01*
X036591Y006339D01*
X036559Y006383D01*
X036529Y006429D01*
X036502Y006477D01*
X036479Y006526D01*
X036459Y006577D01*
X036442Y006630D01*
X036429Y006683D01*
X036420Y006737D01*
X036414Y006791D01*
X036412Y006846D01*
X036421Y006846D01*
X036423Y006792D01*
X036429Y006738D01*
X036438Y006685D01*
X036451Y006632D01*
X036467Y006580D01*
X036487Y006530D01*
X036510Y006481D01*
X036537Y006434D01*
X036566Y006388D01*
X036598Y006345D01*
X036634Y006304D01*
X036671Y006265D01*
X036712Y006229D01*
X036754Y006196D01*
X036799Y006165D01*
X036846Y006138D01*
X036850Y006146D01*
X036804Y006173D01*
X036760Y006203D01*
X036718Y006236D01*
X036678Y006271D01*
X036640Y006310D01*
X036605Y006350D01*
X036573Y006393D01*
X036544Y006438D01*
X036518Y006485D01*
X036495Y006534D01*
X036476Y006583D01*
X036460Y006634D01*
X036447Y006686D01*
X036438Y006739D01*
X036432Y006792D01*
X036430Y006846D01*
X036439Y006846D01*
X036441Y006793D01*
X036447Y006740D01*
X036456Y006688D01*
X036468Y006637D01*
X036484Y006586D01*
X036504Y006537D01*
X036526Y006489D01*
X036552Y006443D01*
X036581Y006399D01*
X036612Y006356D01*
X036647Y006316D01*
X036684Y006278D01*
X036723Y006243D01*
X036765Y006210D01*
X036809Y006180D01*
X036854Y006154D01*
X036859Y006162D01*
X036811Y006190D01*
X036765Y006222D01*
X036721Y006256D01*
X036680Y006294D01*
X036642Y006335D01*
X036607Y006378D01*
X036575Y006424D01*
X036546Y006472D01*
X036521Y006522D01*
X036499Y006573D01*
X036481Y006626D01*
X036467Y006680D01*
X036457Y006735D01*
X036450Y006790D01*
X036448Y006846D01*
X036704Y007477D02*
X036729Y007446D01*
X036729Y007447D02*
X036690Y007412D01*
X036654Y007375D01*
X036621Y007336D01*
X036590Y007294D01*
X036562Y007250D01*
X036537Y007205D01*
X036515Y007158D01*
X036496Y007110D01*
X036481Y007061D01*
X036468Y007010D01*
X036460Y006959D01*
X036454Y006908D01*
X036452Y006856D01*
X036413Y006855D01*
X036412Y006856D01*
X036414Y006910D01*
X036420Y006965D01*
X036429Y007018D01*
X036442Y007071D01*
X036458Y007123D01*
X036478Y007174D01*
X036501Y007223D01*
X036528Y007271D01*
X036557Y007317D01*
X036590Y007361D01*
X036625Y007402D01*
X036663Y007441D01*
X036703Y007478D01*
X036709Y007471D01*
X036669Y007435D01*
X036631Y007396D01*
X036597Y007355D01*
X036565Y007312D01*
X036535Y007266D01*
X036509Y007219D01*
X036487Y007170D01*
X036467Y007120D01*
X036451Y007069D01*
X036438Y007016D01*
X036429Y006963D01*
X036423Y006910D01*
X036421Y006856D01*
X036430Y006856D01*
X036432Y006909D01*
X036438Y006962D01*
X036447Y007015D01*
X036459Y007066D01*
X036475Y007117D01*
X036495Y007167D01*
X036517Y007215D01*
X036543Y007262D01*
X036572Y007307D01*
X036604Y007349D01*
X036638Y007390D01*
X036675Y007428D01*
X036715Y007464D01*
X036720Y007457D01*
X036681Y007422D01*
X036645Y007384D01*
X036611Y007344D01*
X036579Y007301D01*
X036551Y007257D01*
X036525Y007211D01*
X036503Y007163D01*
X036484Y007114D01*
X036468Y007064D01*
X036456Y007013D01*
X036447Y006961D01*
X036441Y006909D01*
X036439Y006856D01*
X036448Y006856D01*
X036450Y006908D01*
X036456Y006960D01*
X036465Y007011D01*
X036477Y007062D01*
X036492Y007111D01*
X036511Y007160D01*
X036533Y007207D01*
X036559Y007252D01*
X036587Y007296D01*
X036618Y007338D01*
X036651Y007378D01*
X036688Y007415D01*
X036726Y007450D01*
X011236Y004782D02*
X011236Y004822D01*
X011237Y004821D02*
X011289Y004823D01*
X011342Y004829D01*
X011393Y004838D01*
X011444Y004850D01*
X011494Y004866D01*
X011543Y004886D01*
X011591Y004908D01*
X011637Y004934D01*
X011657Y004901D01*
X011657Y004900D01*
X011609Y004873D01*
X011559Y004849D01*
X011508Y004829D01*
X011455Y004812D01*
X011402Y004799D01*
X011347Y004789D01*
X011292Y004783D01*
X011237Y004781D01*
X011237Y004790D01*
X011292Y004792D01*
X011346Y004798D01*
X011400Y004808D01*
X011453Y004821D01*
X011505Y004837D01*
X011556Y004857D01*
X011605Y004881D01*
X011653Y004908D01*
X011648Y004915D01*
X011601Y004889D01*
X011552Y004866D01*
X011502Y004846D01*
X011450Y004829D01*
X011398Y004816D01*
X011345Y004807D01*
X011291Y004801D01*
X011237Y004799D01*
X011237Y004808D01*
X011290Y004810D01*
X011343Y004816D01*
X011396Y004825D01*
X011448Y004838D01*
X011499Y004854D01*
X011548Y004874D01*
X011597Y004897D01*
X011643Y004923D01*
X011639Y004931D01*
X011593Y004905D01*
X011545Y004882D01*
X011496Y004863D01*
X011445Y004847D01*
X011394Y004834D01*
X011342Y004825D01*
X011290Y004819D01*
X011237Y004817D01*
X011643Y004892D02*
X011623Y004927D01*
X011623Y004926D02*
X011669Y004955D01*
X011713Y004987D01*
X011754Y005022D01*
X011793Y005059D01*
X011829Y005099D01*
X011862Y005142D01*
X011893Y005186D01*
X011920Y005233D01*
X011944Y005282D01*
X011964Y005332D01*
X011981Y005383D01*
X011994Y005435D01*
X012004Y005488D01*
X012010Y005542D01*
X012012Y005596D01*
X012051Y005597D01*
X012052Y005596D01*
X012050Y005539D01*
X012043Y005483D01*
X012033Y005427D01*
X012019Y005372D01*
X012002Y005318D01*
X011980Y005265D01*
X011955Y005214D01*
X011927Y005165D01*
X011895Y005118D01*
X011860Y005073D01*
X011822Y005031D01*
X011781Y004992D01*
X011737Y004955D01*
X011691Y004922D01*
X011643Y004892D01*
X011639Y004899D01*
X011686Y004929D01*
X011732Y004962D01*
X011775Y004998D01*
X011815Y005037D01*
X011853Y005079D01*
X011887Y005123D01*
X011919Y005170D01*
X011947Y005219D01*
X011972Y005269D01*
X011993Y005321D01*
X012011Y005374D01*
X012025Y005429D01*
X012035Y005484D01*
X012041Y005540D01*
X012043Y005596D01*
X012034Y005596D01*
X012032Y005541D01*
X012026Y005485D01*
X012016Y005431D01*
X012002Y005377D01*
X011985Y005324D01*
X011964Y005273D01*
X011939Y005223D01*
X011911Y005175D01*
X011880Y005129D01*
X011846Y005085D01*
X011809Y005044D01*
X011769Y005005D01*
X011726Y004969D01*
X011681Y004937D01*
X011634Y004907D01*
X011630Y004915D01*
X011676Y004944D01*
X011721Y004976D01*
X011763Y005012D01*
X011802Y005050D01*
X011839Y005091D01*
X011873Y005134D01*
X011904Y005179D01*
X011931Y005227D01*
X011955Y005276D01*
X011976Y005327D01*
X011993Y005379D01*
X012007Y005433D01*
X012017Y005487D01*
X012023Y005541D01*
X012025Y005596D01*
X012016Y005596D01*
X012014Y005542D01*
X012008Y005488D01*
X011998Y005434D01*
X011985Y005382D01*
X011968Y005330D01*
X011947Y005280D01*
X011923Y005231D01*
X011896Y005184D01*
X011866Y005139D01*
X011832Y005097D01*
X011796Y005056D01*
X011757Y005019D01*
X011715Y004984D01*
X011671Y004952D01*
X011625Y004923D01*
X010848Y004877D02*
X010867Y004912D01*
X010915Y004888D01*
X010964Y004868D01*
X011015Y004852D01*
X011067Y004839D01*
X011120Y004829D01*
X011173Y004823D01*
X011227Y004821D01*
X011228Y004782D01*
X011227Y004781D01*
X011171Y004783D01*
X011115Y004789D01*
X011059Y004799D01*
X011004Y004813D01*
X010951Y004831D01*
X010898Y004852D01*
X010848Y004877D01*
X010852Y004885D01*
X010902Y004860D01*
X010954Y004839D01*
X011007Y004822D01*
X011061Y004808D01*
X011116Y004798D01*
X011171Y004792D01*
X011227Y004790D01*
X011227Y004799D01*
X011172Y004801D01*
X011117Y004807D01*
X011063Y004817D01*
X011009Y004831D01*
X010957Y004848D01*
X010906Y004868D01*
X010856Y004893D01*
X010860Y004900D01*
X010909Y004877D01*
X010960Y004856D01*
X011012Y004839D01*
X011065Y004826D01*
X011118Y004816D01*
X011173Y004810D01*
X011227Y004808D01*
X011227Y004817D01*
X011173Y004819D01*
X011120Y004825D01*
X011067Y004835D01*
X011014Y004848D01*
X010963Y004865D01*
X010913Y004885D01*
X010865Y004908D01*
X012051Y005605D02*
X012011Y005605D01*
X012012Y005606D02*
X012010Y005662D01*
X012003Y005717D01*
X011993Y005771D01*
X011979Y005825D01*
X011961Y005878D01*
X011940Y005929D01*
X011914Y005979D01*
X011886Y006026D01*
X011854Y006072D01*
X011819Y006115D01*
X011781Y006156D01*
X011740Y006193D01*
X011765Y006223D01*
X011765Y006224D01*
X011805Y006187D01*
X011843Y006148D01*
X011877Y006107D01*
X011909Y006063D01*
X011938Y006018D01*
X011964Y005970D01*
X011987Y005921D01*
X012006Y005871D01*
X012022Y005819D01*
X012035Y005767D01*
X012044Y005714D01*
X012050Y005660D01*
X012052Y005606D01*
X012043Y005606D01*
X012041Y005659D01*
X012035Y005712D01*
X012026Y005765D01*
X012014Y005817D01*
X011998Y005868D01*
X011979Y005918D01*
X011956Y005966D01*
X011930Y006013D01*
X011902Y006058D01*
X011870Y006101D01*
X011836Y006142D01*
X011799Y006181D01*
X011760Y006217D01*
X011754Y006210D01*
X011793Y006174D01*
X011829Y006136D01*
X011863Y006096D01*
X011894Y006053D01*
X011923Y006009D01*
X011948Y005962D01*
X011970Y005914D01*
X011989Y005865D01*
X012005Y005815D01*
X012017Y005763D01*
X012026Y005711D01*
X012032Y005659D01*
X012034Y005606D01*
X012025Y005606D01*
X012023Y005658D01*
X012017Y005710D01*
X012009Y005762D01*
X011996Y005812D01*
X011981Y005862D01*
X011962Y005911D01*
X011940Y005958D01*
X011915Y006004D01*
X011887Y006048D01*
X011856Y006090D01*
X011823Y006130D01*
X011787Y006168D01*
X011748Y006203D01*
X011742Y006196D01*
X011783Y006158D01*
X011822Y006118D01*
X011857Y006074D01*
X011889Y006029D01*
X011918Y005981D01*
X011943Y005931D01*
X011965Y005879D01*
X011983Y005826D01*
X011997Y005772D01*
X012007Y005717D01*
X012014Y005662D01*
X012016Y005606D01*
X010413Y005596D02*
X010453Y005596D01*
X010452Y005596D02*
X010454Y005540D01*
X010461Y005485D01*
X010471Y005431D01*
X010485Y005377D01*
X010503Y005324D01*
X010524Y005273D01*
X010549Y005224D01*
X010578Y005176D01*
X010610Y005131D01*
X010645Y005088D01*
X010683Y005047D01*
X010724Y005009D01*
X010767Y004975D01*
X010813Y004943D01*
X010861Y004915D01*
X010842Y004880D01*
X010794Y004907D01*
X010749Y004938D01*
X010706Y004972D01*
X010665Y005008D01*
X010627Y005048D01*
X010591Y005089D01*
X010559Y005133D01*
X010529Y005179D01*
X010502Y005227D01*
X010479Y005276D01*
X010459Y005327D01*
X010442Y005380D01*
X010429Y005433D01*
X010420Y005487D01*
X010414Y005541D01*
X010412Y005596D01*
X010421Y005596D01*
X010423Y005542D01*
X010429Y005488D01*
X010438Y005435D01*
X010451Y005382D01*
X010467Y005330D01*
X010487Y005280D01*
X010510Y005231D01*
X010537Y005184D01*
X010566Y005138D01*
X010598Y005095D01*
X010634Y005054D01*
X010671Y005015D01*
X010712Y004979D01*
X010754Y004946D01*
X010799Y004915D01*
X010846Y004888D01*
X010850Y004896D01*
X010804Y004923D01*
X010760Y004953D01*
X010718Y004986D01*
X010678Y005021D01*
X010640Y005060D01*
X010605Y005100D01*
X010573Y005143D01*
X010544Y005188D01*
X010518Y005235D01*
X010495Y005284D01*
X010476Y005333D01*
X010460Y005384D01*
X010447Y005436D01*
X010438Y005489D01*
X010432Y005542D01*
X010430Y005596D01*
X010439Y005596D01*
X010441Y005543D01*
X010447Y005490D01*
X010456Y005438D01*
X010468Y005387D01*
X010484Y005336D01*
X010504Y005287D01*
X010526Y005239D01*
X010552Y005193D01*
X010581Y005149D01*
X010612Y005106D01*
X010647Y005066D01*
X010684Y005028D01*
X010723Y004993D01*
X010765Y004960D01*
X010809Y004930D01*
X010854Y004904D01*
X010859Y004912D01*
X010811Y004940D01*
X010765Y004972D01*
X010721Y005006D01*
X010680Y005044D01*
X010642Y005085D01*
X010607Y005128D01*
X010575Y005174D01*
X010546Y005222D01*
X010521Y005272D01*
X010499Y005323D01*
X010481Y005376D01*
X010467Y005430D01*
X010457Y005485D01*
X010450Y005540D01*
X010448Y005596D01*
X010704Y006227D02*
X010729Y006196D01*
X010729Y006197D02*
X010690Y006162D01*
X010654Y006125D01*
X010621Y006086D01*
X010590Y006044D01*
X010562Y006000D01*
X010537Y005955D01*
X010515Y005908D01*
X010496Y005860D01*
X010481Y005811D01*
X010468Y005760D01*
X010460Y005709D01*
X010454Y005658D01*
X010452Y005606D01*
X010413Y005605D01*
X010412Y005606D01*
X010414Y005660D01*
X010420Y005715D01*
X010429Y005768D01*
X010442Y005821D01*
X010458Y005873D01*
X010478Y005924D01*
X010501Y005973D01*
X010528Y006021D01*
X010557Y006067D01*
X010590Y006111D01*
X010625Y006152D01*
X010663Y006191D01*
X010703Y006228D01*
X010709Y006221D01*
X010669Y006185D01*
X010631Y006146D01*
X010597Y006105D01*
X010565Y006062D01*
X010535Y006016D01*
X010509Y005969D01*
X010487Y005920D01*
X010467Y005870D01*
X010451Y005819D01*
X010438Y005766D01*
X010429Y005713D01*
X010423Y005660D01*
X010421Y005606D01*
X010430Y005606D01*
X010432Y005659D01*
X010438Y005712D01*
X010447Y005765D01*
X010459Y005816D01*
X010475Y005867D01*
X010495Y005917D01*
X010517Y005965D01*
X010543Y006012D01*
X010572Y006057D01*
X010604Y006099D01*
X010638Y006140D01*
X010675Y006178D01*
X010715Y006214D01*
X010720Y006207D01*
X010681Y006172D01*
X010645Y006134D01*
X010611Y006094D01*
X010579Y006051D01*
X010551Y006007D01*
X010525Y005961D01*
X010503Y005913D01*
X010484Y005864D01*
X010468Y005814D01*
X010456Y005763D01*
X010447Y005711D01*
X010441Y005659D01*
X010439Y005606D01*
X010448Y005606D01*
X010450Y005658D01*
X010456Y005710D01*
X010465Y005761D01*
X010477Y005812D01*
X010492Y005861D01*
X010511Y005910D01*
X010533Y005957D01*
X010559Y006002D01*
X010587Y006046D01*
X010618Y006088D01*
X010651Y006128D01*
X010688Y006165D01*
X010726Y006200D01*
X012051Y016106D02*
X012011Y016106D01*
X012012Y016106D02*
X012010Y016162D01*
X012003Y016217D01*
X011993Y016271D01*
X011979Y016325D01*
X011961Y016378D01*
X011940Y016429D01*
X011915Y016478D01*
X011886Y016526D01*
X011854Y016571D01*
X011819Y016614D01*
X011781Y016655D01*
X011740Y016693D01*
X011697Y016727D01*
X011651Y016759D01*
X011603Y016787D01*
X011622Y016822D01*
X011670Y016795D01*
X011715Y016764D01*
X011758Y016730D01*
X011799Y016694D01*
X011837Y016654D01*
X011873Y016613D01*
X011905Y016569D01*
X011935Y016523D01*
X011962Y016475D01*
X011985Y016426D01*
X012005Y016375D01*
X012022Y016322D01*
X012035Y016269D01*
X012044Y016215D01*
X012050Y016161D01*
X012052Y016106D01*
X012043Y016106D01*
X012041Y016160D01*
X012035Y016214D01*
X012026Y016267D01*
X012013Y016320D01*
X011997Y016372D01*
X011977Y016422D01*
X011954Y016471D01*
X011927Y016518D01*
X011898Y016564D01*
X011866Y016607D01*
X011830Y016648D01*
X011793Y016687D01*
X011752Y016723D01*
X011710Y016756D01*
X011665Y016787D01*
X011618Y016814D01*
X011614Y016806D01*
X011660Y016779D01*
X011704Y016749D01*
X011746Y016716D01*
X011786Y016681D01*
X011824Y016642D01*
X011859Y016602D01*
X011891Y016559D01*
X011920Y016514D01*
X011946Y016467D01*
X011969Y016418D01*
X011988Y016369D01*
X012004Y016318D01*
X012017Y016266D01*
X012026Y016213D01*
X012032Y016160D01*
X012034Y016106D01*
X012025Y016106D01*
X012023Y016159D01*
X012017Y016212D01*
X012008Y016264D01*
X011996Y016315D01*
X011980Y016366D01*
X011960Y016415D01*
X011938Y016463D01*
X011912Y016509D01*
X011883Y016553D01*
X011852Y016596D01*
X011817Y016636D01*
X011780Y016674D01*
X011741Y016709D01*
X011699Y016742D01*
X011655Y016772D01*
X011610Y016798D01*
X011605Y016790D01*
X011653Y016762D01*
X011699Y016730D01*
X011743Y016696D01*
X011784Y016658D01*
X011822Y016617D01*
X011857Y016574D01*
X011889Y016528D01*
X011918Y016480D01*
X011943Y016430D01*
X011965Y016379D01*
X011983Y016326D01*
X011997Y016272D01*
X012007Y016217D01*
X012014Y016162D01*
X012016Y016106D01*
X011616Y016825D02*
X011597Y016790D01*
X011549Y016814D01*
X011500Y016834D01*
X011449Y016850D01*
X011397Y016863D01*
X011344Y016873D01*
X011291Y016879D01*
X011237Y016881D01*
X011236Y016920D01*
X011237Y016921D01*
X011293Y016919D01*
X011349Y016913D01*
X011405Y016903D01*
X011460Y016889D01*
X011513Y016871D01*
X011566Y016850D01*
X011616Y016825D01*
X011612Y016817D01*
X011562Y016842D01*
X011510Y016863D01*
X011457Y016880D01*
X011403Y016894D01*
X011348Y016904D01*
X011293Y016910D01*
X011237Y016912D01*
X011237Y016903D01*
X011292Y016901D01*
X011347Y016895D01*
X011401Y016885D01*
X011455Y016871D01*
X011507Y016854D01*
X011558Y016834D01*
X011608Y016809D01*
X011604Y016802D01*
X011555Y016825D01*
X011504Y016846D01*
X011452Y016863D01*
X011399Y016876D01*
X011346Y016886D01*
X011291Y016892D01*
X011237Y016894D01*
X011237Y016885D01*
X011291Y016883D01*
X011344Y016877D01*
X011397Y016867D01*
X011450Y016854D01*
X011501Y016837D01*
X011551Y016817D01*
X011599Y016794D01*
X010821Y016810D02*
X010841Y016775D01*
X010841Y016776D02*
X010795Y016747D01*
X010751Y016715D01*
X010710Y016680D01*
X010671Y016643D01*
X010635Y016603D01*
X010602Y016560D01*
X010571Y016516D01*
X010544Y016469D01*
X010520Y016420D01*
X010500Y016370D01*
X010483Y016319D01*
X010470Y016267D01*
X010460Y016214D01*
X010454Y016160D01*
X010452Y016106D01*
X010413Y016105D01*
X010412Y016106D01*
X010414Y016163D01*
X010421Y016219D01*
X010431Y016275D01*
X010445Y016330D01*
X010462Y016384D01*
X010484Y016437D01*
X010509Y016488D01*
X010537Y016537D01*
X010569Y016584D01*
X010604Y016629D01*
X010642Y016671D01*
X010683Y016710D01*
X010727Y016747D01*
X010773Y016780D01*
X010821Y016810D01*
X010825Y016803D01*
X010778Y016773D01*
X010732Y016740D01*
X010689Y016704D01*
X010649Y016665D01*
X010611Y016623D01*
X010577Y016579D01*
X010545Y016532D01*
X010517Y016483D01*
X010492Y016433D01*
X010471Y016381D01*
X010453Y016328D01*
X010439Y016273D01*
X010429Y016218D01*
X010423Y016162D01*
X010421Y016106D01*
X010430Y016106D01*
X010432Y016161D01*
X010438Y016217D01*
X010448Y016271D01*
X010462Y016325D01*
X010479Y016378D01*
X010500Y016429D01*
X010525Y016479D01*
X010553Y016527D01*
X010584Y016573D01*
X010618Y016617D01*
X010655Y016658D01*
X010695Y016697D01*
X010738Y016733D01*
X010783Y016765D01*
X010830Y016795D01*
X010834Y016787D01*
X010788Y016758D01*
X010743Y016726D01*
X010701Y016690D01*
X010662Y016652D01*
X010625Y016611D01*
X010591Y016568D01*
X010560Y016523D01*
X010533Y016475D01*
X010509Y016426D01*
X010488Y016375D01*
X010471Y016323D01*
X010457Y016269D01*
X010447Y016215D01*
X010441Y016161D01*
X010439Y016106D01*
X010448Y016106D01*
X010450Y016160D01*
X010456Y016214D01*
X010466Y016268D01*
X010479Y016320D01*
X010496Y016372D01*
X010517Y016422D01*
X010541Y016471D01*
X010568Y016518D01*
X010598Y016563D01*
X010632Y016605D01*
X010668Y016646D01*
X010707Y016683D01*
X010749Y016718D01*
X010793Y016750D01*
X010839Y016779D01*
X011228Y016920D02*
X011228Y016880D01*
X011227Y016881D02*
X011175Y016879D01*
X011122Y016873D01*
X011071Y016864D01*
X011020Y016852D01*
X010970Y016836D01*
X010921Y016816D01*
X010873Y016794D01*
X010827Y016768D01*
X010807Y016801D01*
X010807Y016802D01*
X010855Y016829D01*
X010905Y016853D01*
X010956Y016873D01*
X011009Y016890D01*
X011062Y016903D01*
X011117Y016913D01*
X011172Y016919D01*
X011227Y016921D01*
X011227Y016912D01*
X011172Y016910D01*
X011118Y016904D01*
X011064Y016894D01*
X011011Y016881D01*
X010959Y016865D01*
X010908Y016845D01*
X010859Y016821D01*
X010811Y016794D01*
X010816Y016787D01*
X010863Y016813D01*
X010912Y016836D01*
X010962Y016856D01*
X011014Y016873D01*
X011066Y016886D01*
X011119Y016895D01*
X011173Y016901D01*
X011227Y016903D01*
X011227Y016894D01*
X011174Y016892D01*
X011121Y016886D01*
X011068Y016877D01*
X011016Y016864D01*
X010965Y016848D01*
X010916Y016828D01*
X010867Y016805D01*
X010821Y016779D01*
X010825Y016771D01*
X010871Y016797D01*
X010919Y016820D01*
X010968Y016839D01*
X011019Y016855D01*
X011070Y016868D01*
X011122Y016877D01*
X011174Y016883D01*
X011227Y016885D01*
X010413Y016097D02*
X010453Y016097D01*
X010452Y016096D02*
X010454Y016040D01*
X010461Y015985D01*
X010471Y015931D01*
X010485Y015877D01*
X010503Y015824D01*
X010524Y015773D01*
X010550Y015723D01*
X010578Y015676D01*
X010610Y015630D01*
X010645Y015587D01*
X010683Y015546D01*
X010724Y015509D01*
X010699Y015479D01*
X010699Y015478D01*
X010659Y015515D01*
X010621Y015554D01*
X010587Y015595D01*
X010555Y015639D01*
X010526Y015684D01*
X010500Y015732D01*
X010477Y015781D01*
X010458Y015831D01*
X010442Y015883D01*
X010429Y015935D01*
X010420Y015988D01*
X010414Y016042D01*
X010412Y016096D01*
X010421Y016096D01*
X010423Y016043D01*
X010429Y015990D01*
X010438Y015937D01*
X010450Y015885D01*
X010466Y015834D01*
X010485Y015784D01*
X010508Y015736D01*
X010534Y015689D01*
X010562Y015644D01*
X010594Y015601D01*
X010628Y015560D01*
X010665Y015521D01*
X010704Y015485D01*
X010710Y015492D01*
X010671Y015528D01*
X010635Y015566D01*
X010601Y015606D01*
X010570Y015649D01*
X010541Y015693D01*
X010516Y015740D01*
X010494Y015788D01*
X010475Y015837D01*
X010459Y015887D01*
X010447Y015939D01*
X010438Y015991D01*
X010432Y016043D01*
X010430Y016096D01*
X010439Y016096D01*
X010441Y016044D01*
X010447Y015992D01*
X010455Y015940D01*
X010468Y015890D01*
X010483Y015840D01*
X010502Y015791D01*
X010524Y015744D01*
X010549Y015698D01*
X010577Y015654D01*
X010608Y015612D01*
X010641Y015572D01*
X010677Y015534D01*
X010716Y015499D01*
X010722Y015506D01*
X010681Y015544D01*
X010642Y015584D01*
X010607Y015628D01*
X010575Y015673D01*
X010546Y015721D01*
X010521Y015771D01*
X010499Y015823D01*
X010481Y015876D01*
X010467Y015930D01*
X010457Y015985D01*
X010450Y016040D01*
X010448Y016096D01*
X011760Y015475D02*
X011735Y015506D01*
X011735Y015505D02*
X011774Y015540D01*
X011810Y015577D01*
X011843Y015616D01*
X011874Y015658D01*
X011902Y015702D01*
X011927Y015747D01*
X011949Y015794D01*
X011968Y015842D01*
X011983Y015891D01*
X011996Y015942D01*
X012004Y015993D01*
X012010Y016044D01*
X012012Y016096D01*
X012051Y016097D01*
X012052Y016096D01*
X012050Y016042D01*
X012044Y015987D01*
X012035Y015934D01*
X012022Y015881D01*
X012006Y015829D01*
X011986Y015778D01*
X011963Y015729D01*
X011936Y015681D01*
X011907Y015635D01*
X011874Y015591D01*
X011839Y015550D01*
X011801Y015511D01*
X011761Y015474D01*
X011755Y015481D01*
X011795Y015517D01*
X011833Y015556D01*
X011867Y015597D01*
X011899Y015640D01*
X011929Y015686D01*
X011955Y015733D01*
X011977Y015782D01*
X011997Y015832D01*
X012013Y015883D01*
X012026Y015936D01*
X012035Y015989D01*
X012041Y016042D01*
X012043Y016096D01*
X012034Y016096D01*
X012032Y016043D01*
X012026Y015990D01*
X012017Y015937D01*
X012005Y015886D01*
X011989Y015835D01*
X011969Y015785D01*
X011947Y015737D01*
X011921Y015690D01*
X011892Y015645D01*
X011860Y015603D01*
X011826Y015562D01*
X011789Y015524D01*
X011749Y015488D01*
X011744Y015495D01*
X011783Y015530D01*
X011819Y015568D01*
X011853Y015608D01*
X011885Y015651D01*
X011913Y015695D01*
X011939Y015741D01*
X011961Y015789D01*
X011980Y015838D01*
X011996Y015888D01*
X012008Y015939D01*
X012017Y015991D01*
X012023Y016043D01*
X012025Y016096D01*
X012016Y016096D01*
X012014Y016044D01*
X012008Y015992D01*
X011999Y015941D01*
X011987Y015890D01*
X011972Y015841D01*
X011953Y015792D01*
X011931Y015745D01*
X011905Y015700D01*
X011877Y015656D01*
X011846Y015614D01*
X011813Y015574D01*
X011776Y015537D01*
X011738Y015502D01*
D157*
X010432Y013601D03*
X016522Y013711D03*
X015732Y005801D03*
X020732Y005801D03*
D158*
X005232Y009801D03*
M02*
