%
M48
M72
T01C0.0197
T02C0.0236
T03C0.0315
T04C0.0354
T05C0.0394
T06C0.0512
T07C0.0591
T08C0.0906
T09C0.1260
%
T01
X16732Y3351
X16732Y3851
T02
X19732Y6101
X26732Y7101
X29232Y6101
X26232Y9601
X26232Y10351
X26232Y11351
X27732Y12101
X31982Y10351
X32357Y10851
X32732Y11351
X34982Y12101
X31232Y14101
X30732Y14601
X27732Y17569
X22107Y12101
X21232Y12101
X20732Y11101
X21732Y10101
X19732Y9101
X24232Y1351
T03
X20732Y1601
X17732Y1601
X17732Y3101
X18732Y3101
X18732Y4101
X17732Y4101
X17732Y5101
X16732Y5101
X15732Y5101
X14732Y6101
X14732Y7101
X15732Y8101
X16732Y8101
X17732Y8101
X18732Y8101
X20732Y8101
X21732Y8101
X22732Y8101
X23732Y8101
X24732Y8101
X25732Y8101
X26732Y8101
X27732Y8101
X28732Y8101
X29732Y8101
X30732Y8101
X31732Y8101
X32732Y8101
X33732Y8101
X35732Y8101
X37232Y7851
X38732Y8601
X39732Y8601
X40732Y8601
X41732Y8101
X43232Y7851
X44732Y8601
X45732Y8601
X46732Y8601
X47732Y8101
X49232Y7851
X50732Y8601
X51732Y8601
X52732Y8601
X49232Y8851
X47732Y11101
X47732Y12101
X47732Y14101
X41732Y14101
X41732Y12101
X41732Y11101
X43232Y8851
X42732Y6601
X45732Y6601
X48732Y6601
X51732Y6601
X41322Y2601
X40141Y2601
X38732Y2601
X35732Y2601
X32732Y3101
X31182Y2601
X32732Y2101
X29282Y2601
X27732Y3101
X27732Y4101
X26732Y4101
X26732Y5101
X27732Y5101
X28732Y5101
X29732Y5101
X30732Y5101
X31732Y5101
X32732Y5101
X33732Y5101
X36732Y6601
X39732Y6601
X37232Y8851
X35732Y11101
X35732Y12101
X35732Y14101
X27732Y9101
X26732Y9101
X18732Y10101
X18732Y11101
X15732Y11101
X15732Y10101
X13232Y10101
X11232Y10101
X11232Y9101
X13232Y9101
X13232Y8101
X11232Y8101
X9232Y8101
X11232Y6101
X11232Y5101
X9232Y5101
X18732Y5101
X20732Y5101
X21732Y5101
X22732Y5101
X23732Y5101
X24732Y5101
X25732Y5101
X27732Y2101
X7732Y11601
X8732Y12601
X9732Y12601
X9732Y13601
X8732Y14601
X7732Y14601
X11232Y15601
X11232Y16601
X13732Y16601
X16732Y16601
X17732Y16601
X13732Y13601
X12732Y13601
X12732Y12601
X11232Y19851
X8232Y19851
T04
X6232Y19851
X5232Y19851
X29232Y15101
X30232Y15101
X30232Y14101
X29232Y14101
X29232Y13101
X30232Y13101
X33232Y12845
X33232Y12057
X33232Y13632
X33232Y14420
X33232Y15207
X33232Y15994
X33232Y16782
X33232Y17569
X33232Y18357
X33232Y19144
X9232Y9351
X7232Y9351
X6126Y6593
X5338Y6593
X5338Y5609
X6126Y5609
X7732Y5101
X7732Y3101
X10043Y2601
X11421Y2601
T05
X22732Y9806
X23732Y9806
X37232Y10101
X37232Y11101
X40232Y11101
X40232Y10101
X43232Y10101
X43232Y11101
X46232Y11101
X46232Y10101
X49232Y10101
X49232Y11101
X52232Y11101
X52232Y10101
X52232Y15101
X49232Y15101
X46232Y15101
X43232Y15101
X40232Y15101
X37232Y15101
X23232Y20396
X44952Y3987
X47511Y3987
X49952Y3987
X52511Y3987
X52511Y2215
X49952Y2215
X47511Y2215
X44952Y2215
T06
X44232Y18601
X46232Y18601
X48232Y18601
X50232Y18601
X52232Y18601
X42232Y18601
X40232Y18601
X38232Y18601
X36232Y18601
T07
X6216Y15569
X5232Y16554
X1334Y15569
X5232Y13601
X6216Y11632
X5232Y10648
X1334Y11632
T08
X4271Y8471
X4271Y3731
T09
X2200Y2069
X2200Y19392
X55350Y19392
X55350Y2069
M30
