%
M48
M72
T01C0.0315
T02C0.0354
T03C0.0591
T04C0.1260
%
T01
X5948Y3960
X5948Y6960
X4948Y7960
X4948Y10960
X13448Y12960
X15054Y14960
X15841Y14960
X13448Y15960
X13448Y5460
X13448Y2460
T02
X11763Y6960
X11763Y7960
X11763Y8960
X11763Y9960
X11763Y10960
X8948Y13960
X7948Y13960
X6948Y13960
X5948Y13960
X4948Y13960
X3948Y13960
X3948Y3960
X4948Y3960
T03
X13713Y6991
X14698Y6007
X14698Y8960
X13713Y10929
X14698Y11913
X18595Y10929
X18595Y6991
T04
X1680Y1677
X1723Y4236
X11172Y4236
X18215Y1677
X11172Y13684
X18215Y16243
X1680Y16243
X1723Y13684
M30
