G75*
G70*
%OFA0B0*%
%FSLAX24Y24*%
%IPPOS*%
%LPD*%
%AMOC8*
5,1,8,0,0,1.08239X$1,22.5*
%
%ADD10C,0.0000*%
D10*
X000105Y000102D02*
X000105Y017818D01*
X019790Y017818D01*
X019790Y000102D01*
X000105Y000102D01*
X001050Y001677D02*
X001052Y001727D01*
X001058Y001777D01*
X001068Y001826D01*
X001082Y001874D01*
X001099Y001921D01*
X001120Y001966D01*
X001145Y002010D01*
X001173Y002051D01*
X001205Y002090D01*
X001239Y002127D01*
X001276Y002161D01*
X001316Y002191D01*
X001358Y002218D01*
X001402Y002242D01*
X001448Y002263D01*
X001495Y002279D01*
X001543Y002292D01*
X001593Y002301D01*
X001642Y002306D01*
X001693Y002307D01*
X001743Y002304D01*
X001792Y002297D01*
X001841Y002286D01*
X001889Y002271D01*
X001935Y002253D01*
X001980Y002231D01*
X002023Y002205D01*
X002064Y002176D01*
X002103Y002144D01*
X002139Y002109D01*
X002171Y002071D01*
X002201Y002031D01*
X002228Y001988D01*
X002251Y001944D01*
X002270Y001898D01*
X002286Y001850D01*
X002298Y001801D01*
X002306Y001752D01*
X002310Y001702D01*
X002310Y001652D01*
X002306Y001602D01*
X002298Y001553D01*
X002286Y001504D01*
X002270Y001456D01*
X002251Y001410D01*
X002228Y001366D01*
X002201Y001323D01*
X002171Y001283D01*
X002139Y001245D01*
X002103Y001210D01*
X002064Y001178D01*
X002023Y001149D01*
X001980Y001123D01*
X001935Y001101D01*
X001889Y001083D01*
X001841Y001068D01*
X001792Y001057D01*
X001743Y001050D01*
X001693Y001047D01*
X001642Y001048D01*
X001593Y001053D01*
X001543Y001062D01*
X001495Y001075D01*
X001448Y001091D01*
X001402Y001112D01*
X001358Y001136D01*
X001316Y001163D01*
X001276Y001193D01*
X001239Y001227D01*
X001205Y001264D01*
X001173Y001303D01*
X001145Y001344D01*
X001120Y001388D01*
X001099Y001433D01*
X001082Y001480D01*
X001068Y001528D01*
X001058Y001577D01*
X001052Y001627D01*
X001050Y001677D01*
X001093Y004236D02*
X001095Y004286D01*
X001101Y004336D01*
X001111Y004385D01*
X001125Y004433D01*
X001142Y004480D01*
X001163Y004525D01*
X001188Y004569D01*
X001216Y004610D01*
X001248Y004649D01*
X001282Y004686D01*
X001319Y004720D01*
X001359Y004750D01*
X001401Y004777D01*
X001445Y004801D01*
X001491Y004822D01*
X001538Y004838D01*
X001586Y004851D01*
X001636Y004860D01*
X001685Y004865D01*
X001736Y004866D01*
X001786Y004863D01*
X001835Y004856D01*
X001884Y004845D01*
X001932Y004830D01*
X001978Y004812D01*
X002023Y004790D01*
X002066Y004764D01*
X002107Y004735D01*
X002146Y004703D01*
X002182Y004668D01*
X002214Y004630D01*
X002244Y004590D01*
X002271Y004547D01*
X002294Y004503D01*
X002313Y004457D01*
X002329Y004409D01*
X002341Y004360D01*
X002349Y004311D01*
X002353Y004261D01*
X002353Y004211D01*
X002349Y004161D01*
X002341Y004112D01*
X002329Y004063D01*
X002313Y004015D01*
X002294Y003969D01*
X002271Y003925D01*
X002244Y003882D01*
X002214Y003842D01*
X002182Y003804D01*
X002146Y003769D01*
X002107Y003737D01*
X002066Y003708D01*
X002023Y003682D01*
X001978Y003660D01*
X001932Y003642D01*
X001884Y003627D01*
X001835Y003616D01*
X001786Y003609D01*
X001736Y003606D01*
X001685Y003607D01*
X001636Y003612D01*
X001586Y003621D01*
X001538Y003634D01*
X001491Y003650D01*
X001445Y003671D01*
X001401Y003695D01*
X001359Y003722D01*
X001319Y003752D01*
X001282Y003786D01*
X001248Y003823D01*
X001216Y003862D01*
X001188Y003903D01*
X001163Y003947D01*
X001142Y003992D01*
X001125Y004039D01*
X001111Y004087D01*
X001101Y004136D01*
X001095Y004186D01*
X001093Y004236D01*
X010542Y004236D02*
X010544Y004286D01*
X010550Y004336D01*
X010560Y004385D01*
X010574Y004433D01*
X010591Y004480D01*
X010612Y004525D01*
X010637Y004569D01*
X010665Y004610D01*
X010697Y004649D01*
X010731Y004686D01*
X010768Y004720D01*
X010808Y004750D01*
X010850Y004777D01*
X010894Y004801D01*
X010940Y004822D01*
X010987Y004838D01*
X011035Y004851D01*
X011085Y004860D01*
X011134Y004865D01*
X011185Y004866D01*
X011235Y004863D01*
X011284Y004856D01*
X011333Y004845D01*
X011381Y004830D01*
X011427Y004812D01*
X011472Y004790D01*
X011515Y004764D01*
X011556Y004735D01*
X011595Y004703D01*
X011631Y004668D01*
X011663Y004630D01*
X011693Y004590D01*
X011720Y004547D01*
X011743Y004503D01*
X011762Y004457D01*
X011778Y004409D01*
X011790Y004360D01*
X011798Y004311D01*
X011802Y004261D01*
X011802Y004211D01*
X011798Y004161D01*
X011790Y004112D01*
X011778Y004063D01*
X011762Y004015D01*
X011743Y003969D01*
X011720Y003925D01*
X011693Y003882D01*
X011663Y003842D01*
X011631Y003804D01*
X011595Y003769D01*
X011556Y003737D01*
X011515Y003708D01*
X011472Y003682D01*
X011427Y003660D01*
X011381Y003642D01*
X011333Y003627D01*
X011284Y003616D01*
X011235Y003609D01*
X011185Y003606D01*
X011134Y003607D01*
X011085Y003612D01*
X011035Y003621D01*
X010987Y003634D01*
X010940Y003650D01*
X010894Y003671D01*
X010850Y003695D01*
X010808Y003722D01*
X010768Y003752D01*
X010731Y003786D01*
X010697Y003823D01*
X010665Y003862D01*
X010637Y003903D01*
X010612Y003947D01*
X010591Y003992D01*
X010574Y004039D01*
X010560Y004087D01*
X010550Y004136D01*
X010544Y004186D01*
X010542Y004236D01*
X017585Y001677D02*
X017587Y001727D01*
X017593Y001777D01*
X017603Y001826D01*
X017617Y001874D01*
X017634Y001921D01*
X017655Y001966D01*
X017680Y002010D01*
X017708Y002051D01*
X017740Y002090D01*
X017774Y002127D01*
X017811Y002161D01*
X017851Y002191D01*
X017893Y002218D01*
X017937Y002242D01*
X017983Y002263D01*
X018030Y002279D01*
X018078Y002292D01*
X018128Y002301D01*
X018177Y002306D01*
X018228Y002307D01*
X018278Y002304D01*
X018327Y002297D01*
X018376Y002286D01*
X018424Y002271D01*
X018470Y002253D01*
X018515Y002231D01*
X018558Y002205D01*
X018599Y002176D01*
X018638Y002144D01*
X018674Y002109D01*
X018706Y002071D01*
X018736Y002031D01*
X018763Y001988D01*
X018786Y001944D01*
X018805Y001898D01*
X018821Y001850D01*
X018833Y001801D01*
X018841Y001752D01*
X018845Y001702D01*
X018845Y001652D01*
X018841Y001602D01*
X018833Y001553D01*
X018821Y001504D01*
X018805Y001456D01*
X018786Y001410D01*
X018763Y001366D01*
X018736Y001323D01*
X018706Y001283D01*
X018674Y001245D01*
X018638Y001210D01*
X018599Y001178D01*
X018558Y001149D01*
X018515Y001123D01*
X018470Y001101D01*
X018424Y001083D01*
X018376Y001068D01*
X018327Y001057D01*
X018278Y001050D01*
X018228Y001047D01*
X018177Y001048D01*
X018128Y001053D01*
X018078Y001062D01*
X018030Y001075D01*
X017983Y001091D01*
X017937Y001112D01*
X017893Y001136D01*
X017851Y001163D01*
X017811Y001193D01*
X017774Y001227D01*
X017740Y001264D01*
X017708Y001303D01*
X017680Y001344D01*
X017655Y001388D01*
X017634Y001433D01*
X017617Y001480D01*
X017603Y001528D01*
X017593Y001577D01*
X017587Y001627D01*
X017585Y001677D01*
X010542Y013684D02*
X010544Y013734D01*
X010550Y013784D01*
X010560Y013833D01*
X010574Y013881D01*
X010591Y013928D01*
X010612Y013973D01*
X010637Y014017D01*
X010665Y014058D01*
X010697Y014097D01*
X010731Y014134D01*
X010768Y014168D01*
X010808Y014198D01*
X010850Y014225D01*
X010894Y014249D01*
X010940Y014270D01*
X010987Y014286D01*
X011035Y014299D01*
X011085Y014308D01*
X011134Y014313D01*
X011185Y014314D01*
X011235Y014311D01*
X011284Y014304D01*
X011333Y014293D01*
X011381Y014278D01*
X011427Y014260D01*
X011472Y014238D01*
X011515Y014212D01*
X011556Y014183D01*
X011595Y014151D01*
X011631Y014116D01*
X011663Y014078D01*
X011693Y014038D01*
X011720Y013995D01*
X011743Y013951D01*
X011762Y013905D01*
X011778Y013857D01*
X011790Y013808D01*
X011798Y013759D01*
X011802Y013709D01*
X011802Y013659D01*
X011798Y013609D01*
X011790Y013560D01*
X011778Y013511D01*
X011762Y013463D01*
X011743Y013417D01*
X011720Y013373D01*
X011693Y013330D01*
X011663Y013290D01*
X011631Y013252D01*
X011595Y013217D01*
X011556Y013185D01*
X011515Y013156D01*
X011472Y013130D01*
X011427Y013108D01*
X011381Y013090D01*
X011333Y013075D01*
X011284Y013064D01*
X011235Y013057D01*
X011185Y013054D01*
X011134Y013055D01*
X011085Y013060D01*
X011035Y013069D01*
X010987Y013082D01*
X010940Y013098D01*
X010894Y013119D01*
X010850Y013143D01*
X010808Y013170D01*
X010768Y013200D01*
X010731Y013234D01*
X010697Y013271D01*
X010665Y013310D01*
X010637Y013351D01*
X010612Y013395D01*
X010591Y013440D01*
X010574Y013487D01*
X010560Y013535D01*
X010550Y013584D01*
X010544Y013634D01*
X010542Y013684D01*
X017585Y016243D02*
X017587Y016293D01*
X017593Y016343D01*
X017603Y016392D01*
X017617Y016440D01*
X017634Y016487D01*
X017655Y016532D01*
X017680Y016576D01*
X017708Y016617D01*
X017740Y016656D01*
X017774Y016693D01*
X017811Y016727D01*
X017851Y016757D01*
X017893Y016784D01*
X017937Y016808D01*
X017983Y016829D01*
X018030Y016845D01*
X018078Y016858D01*
X018128Y016867D01*
X018177Y016872D01*
X018228Y016873D01*
X018278Y016870D01*
X018327Y016863D01*
X018376Y016852D01*
X018424Y016837D01*
X018470Y016819D01*
X018515Y016797D01*
X018558Y016771D01*
X018599Y016742D01*
X018638Y016710D01*
X018674Y016675D01*
X018706Y016637D01*
X018736Y016597D01*
X018763Y016554D01*
X018786Y016510D01*
X018805Y016464D01*
X018821Y016416D01*
X018833Y016367D01*
X018841Y016318D01*
X018845Y016268D01*
X018845Y016218D01*
X018841Y016168D01*
X018833Y016119D01*
X018821Y016070D01*
X018805Y016022D01*
X018786Y015976D01*
X018763Y015932D01*
X018736Y015889D01*
X018706Y015849D01*
X018674Y015811D01*
X018638Y015776D01*
X018599Y015744D01*
X018558Y015715D01*
X018515Y015689D01*
X018470Y015667D01*
X018424Y015649D01*
X018376Y015634D01*
X018327Y015623D01*
X018278Y015616D01*
X018228Y015613D01*
X018177Y015614D01*
X018128Y015619D01*
X018078Y015628D01*
X018030Y015641D01*
X017983Y015657D01*
X017937Y015678D01*
X017893Y015702D01*
X017851Y015729D01*
X017811Y015759D01*
X017774Y015793D01*
X017740Y015830D01*
X017708Y015869D01*
X017680Y015910D01*
X017655Y015954D01*
X017634Y015999D01*
X017617Y016046D01*
X017603Y016094D01*
X017593Y016143D01*
X017587Y016193D01*
X017585Y016243D01*
X001050Y016243D02*
X001052Y016293D01*
X001058Y016343D01*
X001068Y016392D01*
X001082Y016440D01*
X001099Y016487D01*
X001120Y016532D01*
X001145Y016576D01*
X001173Y016617D01*
X001205Y016656D01*
X001239Y016693D01*
X001276Y016727D01*
X001316Y016757D01*
X001358Y016784D01*
X001402Y016808D01*
X001448Y016829D01*
X001495Y016845D01*
X001543Y016858D01*
X001593Y016867D01*
X001642Y016872D01*
X001693Y016873D01*
X001743Y016870D01*
X001792Y016863D01*
X001841Y016852D01*
X001889Y016837D01*
X001935Y016819D01*
X001980Y016797D01*
X002023Y016771D01*
X002064Y016742D01*
X002103Y016710D01*
X002139Y016675D01*
X002171Y016637D01*
X002201Y016597D01*
X002228Y016554D01*
X002251Y016510D01*
X002270Y016464D01*
X002286Y016416D01*
X002298Y016367D01*
X002306Y016318D01*
X002310Y016268D01*
X002310Y016218D01*
X002306Y016168D01*
X002298Y016119D01*
X002286Y016070D01*
X002270Y016022D01*
X002251Y015976D01*
X002228Y015932D01*
X002201Y015889D01*
X002171Y015849D01*
X002139Y015811D01*
X002103Y015776D01*
X002064Y015744D01*
X002023Y015715D01*
X001980Y015689D01*
X001935Y015667D01*
X001889Y015649D01*
X001841Y015634D01*
X001792Y015623D01*
X001743Y015616D01*
X001693Y015613D01*
X001642Y015614D01*
X001593Y015619D01*
X001543Y015628D01*
X001495Y015641D01*
X001448Y015657D01*
X001402Y015678D01*
X001358Y015702D01*
X001316Y015729D01*
X001276Y015759D01*
X001239Y015793D01*
X001205Y015830D01*
X001173Y015869D01*
X001145Y015910D01*
X001120Y015954D01*
X001099Y015999D01*
X001082Y016046D01*
X001068Y016094D01*
X001058Y016143D01*
X001052Y016193D01*
X001050Y016243D01*
X001093Y013684D02*
X001095Y013734D01*
X001101Y013784D01*
X001111Y013833D01*
X001125Y013881D01*
X001142Y013928D01*
X001163Y013973D01*
X001188Y014017D01*
X001216Y014058D01*
X001248Y014097D01*
X001282Y014134D01*
X001319Y014168D01*
X001359Y014198D01*
X001401Y014225D01*
X001445Y014249D01*
X001491Y014270D01*
X001538Y014286D01*
X001586Y014299D01*
X001636Y014308D01*
X001685Y014313D01*
X001736Y014314D01*
X001786Y014311D01*
X001835Y014304D01*
X001884Y014293D01*
X001932Y014278D01*
X001978Y014260D01*
X002023Y014238D01*
X002066Y014212D01*
X002107Y014183D01*
X002146Y014151D01*
X002182Y014116D01*
X002214Y014078D01*
X002244Y014038D01*
X002271Y013995D01*
X002294Y013951D01*
X002313Y013905D01*
X002329Y013857D01*
X002341Y013808D01*
X002349Y013759D01*
X002353Y013709D01*
X002353Y013659D01*
X002349Y013609D01*
X002341Y013560D01*
X002329Y013511D01*
X002313Y013463D01*
X002294Y013417D01*
X002271Y013373D01*
X002244Y013330D01*
X002214Y013290D01*
X002182Y013252D01*
X002146Y013217D01*
X002107Y013185D01*
X002066Y013156D01*
X002023Y013130D01*
X001978Y013108D01*
X001932Y013090D01*
X001884Y013075D01*
X001835Y013064D01*
X001786Y013057D01*
X001736Y013054D01*
X001685Y013055D01*
X001636Y013060D01*
X001586Y013069D01*
X001538Y013082D01*
X001491Y013098D01*
X001445Y013119D01*
X001401Y013143D01*
X001359Y013170D01*
X001319Y013200D01*
X001282Y013234D01*
X001248Y013271D01*
X001216Y013310D01*
X001188Y013351D01*
X001163Y013395D01*
X001142Y013440D01*
X001125Y013487D01*
X001111Y013535D01*
X001101Y013584D01*
X001095Y013634D01*
X001093Y013684D01*
M02*
