G75*
G70*
%OFA0B0*%
%FSLAX24Y24*%
%IPPOS*%
%LPD*%
%AMOC8*
5,1,8,0,0,1.08239X$1,22.5*
%
%ADD10C,0.0000*%
%ADD11C,0.0050*%
%ADD12C,0.0020*%
%ADD13C,0.0060*%
%ADD14C,0.0200*%
D10*
X000105Y000102D02*
X000105Y017818D01*
X019790Y017818D01*
X019790Y000102D01*
X000105Y000102D01*
X001050Y001677D02*
X001052Y001727D01*
X001058Y001777D01*
X001068Y001826D01*
X001082Y001874D01*
X001099Y001921D01*
X001120Y001966D01*
X001145Y002010D01*
X001173Y002051D01*
X001205Y002090D01*
X001239Y002127D01*
X001276Y002161D01*
X001316Y002191D01*
X001358Y002218D01*
X001402Y002242D01*
X001448Y002263D01*
X001495Y002279D01*
X001543Y002292D01*
X001593Y002301D01*
X001642Y002306D01*
X001693Y002307D01*
X001743Y002304D01*
X001792Y002297D01*
X001841Y002286D01*
X001889Y002271D01*
X001935Y002253D01*
X001980Y002231D01*
X002023Y002205D01*
X002064Y002176D01*
X002103Y002144D01*
X002139Y002109D01*
X002171Y002071D01*
X002201Y002031D01*
X002228Y001988D01*
X002251Y001944D01*
X002270Y001898D01*
X002286Y001850D01*
X002298Y001801D01*
X002306Y001752D01*
X002310Y001702D01*
X002310Y001652D01*
X002306Y001602D01*
X002298Y001553D01*
X002286Y001504D01*
X002270Y001456D01*
X002251Y001410D01*
X002228Y001366D01*
X002201Y001323D01*
X002171Y001283D01*
X002139Y001245D01*
X002103Y001210D01*
X002064Y001178D01*
X002023Y001149D01*
X001980Y001123D01*
X001935Y001101D01*
X001889Y001083D01*
X001841Y001068D01*
X001792Y001057D01*
X001743Y001050D01*
X001693Y001047D01*
X001642Y001048D01*
X001593Y001053D01*
X001543Y001062D01*
X001495Y001075D01*
X001448Y001091D01*
X001402Y001112D01*
X001358Y001136D01*
X001316Y001163D01*
X001276Y001193D01*
X001239Y001227D01*
X001205Y001264D01*
X001173Y001303D01*
X001145Y001344D01*
X001120Y001388D01*
X001099Y001433D01*
X001082Y001480D01*
X001068Y001528D01*
X001058Y001577D01*
X001052Y001627D01*
X001050Y001677D01*
X001093Y004236D02*
X001095Y004286D01*
X001101Y004336D01*
X001111Y004385D01*
X001125Y004433D01*
X001142Y004480D01*
X001163Y004525D01*
X001188Y004569D01*
X001216Y004610D01*
X001248Y004649D01*
X001282Y004686D01*
X001319Y004720D01*
X001359Y004750D01*
X001401Y004777D01*
X001445Y004801D01*
X001491Y004822D01*
X001538Y004838D01*
X001586Y004851D01*
X001636Y004860D01*
X001685Y004865D01*
X001736Y004866D01*
X001786Y004863D01*
X001835Y004856D01*
X001884Y004845D01*
X001932Y004830D01*
X001978Y004812D01*
X002023Y004790D01*
X002066Y004764D01*
X002107Y004735D01*
X002146Y004703D01*
X002182Y004668D01*
X002214Y004630D01*
X002244Y004590D01*
X002271Y004547D01*
X002294Y004503D01*
X002313Y004457D01*
X002329Y004409D01*
X002341Y004360D01*
X002349Y004311D01*
X002353Y004261D01*
X002353Y004211D01*
X002349Y004161D01*
X002341Y004112D01*
X002329Y004063D01*
X002313Y004015D01*
X002294Y003969D01*
X002271Y003925D01*
X002244Y003882D01*
X002214Y003842D01*
X002182Y003804D01*
X002146Y003769D01*
X002107Y003737D01*
X002066Y003708D01*
X002023Y003682D01*
X001978Y003660D01*
X001932Y003642D01*
X001884Y003627D01*
X001835Y003616D01*
X001786Y003609D01*
X001736Y003606D01*
X001685Y003607D01*
X001636Y003612D01*
X001586Y003621D01*
X001538Y003634D01*
X001491Y003650D01*
X001445Y003671D01*
X001401Y003695D01*
X001359Y003722D01*
X001319Y003752D01*
X001282Y003786D01*
X001248Y003823D01*
X001216Y003862D01*
X001188Y003903D01*
X001163Y003947D01*
X001142Y003992D01*
X001125Y004039D01*
X001111Y004087D01*
X001101Y004136D01*
X001095Y004186D01*
X001093Y004236D01*
X010542Y004236D02*
X010544Y004286D01*
X010550Y004336D01*
X010560Y004385D01*
X010574Y004433D01*
X010591Y004480D01*
X010612Y004525D01*
X010637Y004569D01*
X010665Y004610D01*
X010697Y004649D01*
X010731Y004686D01*
X010768Y004720D01*
X010808Y004750D01*
X010850Y004777D01*
X010894Y004801D01*
X010940Y004822D01*
X010987Y004838D01*
X011035Y004851D01*
X011085Y004860D01*
X011134Y004865D01*
X011185Y004866D01*
X011235Y004863D01*
X011284Y004856D01*
X011333Y004845D01*
X011381Y004830D01*
X011427Y004812D01*
X011472Y004790D01*
X011515Y004764D01*
X011556Y004735D01*
X011595Y004703D01*
X011631Y004668D01*
X011663Y004630D01*
X011693Y004590D01*
X011720Y004547D01*
X011743Y004503D01*
X011762Y004457D01*
X011778Y004409D01*
X011790Y004360D01*
X011798Y004311D01*
X011802Y004261D01*
X011802Y004211D01*
X011798Y004161D01*
X011790Y004112D01*
X011778Y004063D01*
X011762Y004015D01*
X011743Y003969D01*
X011720Y003925D01*
X011693Y003882D01*
X011663Y003842D01*
X011631Y003804D01*
X011595Y003769D01*
X011556Y003737D01*
X011515Y003708D01*
X011472Y003682D01*
X011427Y003660D01*
X011381Y003642D01*
X011333Y003627D01*
X011284Y003616D01*
X011235Y003609D01*
X011185Y003606D01*
X011134Y003607D01*
X011085Y003612D01*
X011035Y003621D01*
X010987Y003634D01*
X010940Y003650D01*
X010894Y003671D01*
X010850Y003695D01*
X010808Y003722D01*
X010768Y003752D01*
X010731Y003786D01*
X010697Y003823D01*
X010665Y003862D01*
X010637Y003903D01*
X010612Y003947D01*
X010591Y003992D01*
X010574Y004039D01*
X010560Y004087D01*
X010550Y004136D01*
X010544Y004186D01*
X010542Y004236D01*
X017585Y001677D02*
X017587Y001727D01*
X017593Y001777D01*
X017603Y001826D01*
X017617Y001874D01*
X017634Y001921D01*
X017655Y001966D01*
X017680Y002010D01*
X017708Y002051D01*
X017740Y002090D01*
X017774Y002127D01*
X017811Y002161D01*
X017851Y002191D01*
X017893Y002218D01*
X017937Y002242D01*
X017983Y002263D01*
X018030Y002279D01*
X018078Y002292D01*
X018128Y002301D01*
X018177Y002306D01*
X018228Y002307D01*
X018278Y002304D01*
X018327Y002297D01*
X018376Y002286D01*
X018424Y002271D01*
X018470Y002253D01*
X018515Y002231D01*
X018558Y002205D01*
X018599Y002176D01*
X018638Y002144D01*
X018674Y002109D01*
X018706Y002071D01*
X018736Y002031D01*
X018763Y001988D01*
X018786Y001944D01*
X018805Y001898D01*
X018821Y001850D01*
X018833Y001801D01*
X018841Y001752D01*
X018845Y001702D01*
X018845Y001652D01*
X018841Y001602D01*
X018833Y001553D01*
X018821Y001504D01*
X018805Y001456D01*
X018786Y001410D01*
X018763Y001366D01*
X018736Y001323D01*
X018706Y001283D01*
X018674Y001245D01*
X018638Y001210D01*
X018599Y001178D01*
X018558Y001149D01*
X018515Y001123D01*
X018470Y001101D01*
X018424Y001083D01*
X018376Y001068D01*
X018327Y001057D01*
X018278Y001050D01*
X018228Y001047D01*
X018177Y001048D01*
X018128Y001053D01*
X018078Y001062D01*
X018030Y001075D01*
X017983Y001091D01*
X017937Y001112D01*
X017893Y001136D01*
X017851Y001163D01*
X017811Y001193D01*
X017774Y001227D01*
X017740Y001264D01*
X017708Y001303D01*
X017680Y001344D01*
X017655Y001388D01*
X017634Y001433D01*
X017617Y001480D01*
X017603Y001528D01*
X017593Y001577D01*
X017587Y001627D01*
X017585Y001677D01*
X010542Y013684D02*
X010544Y013734D01*
X010550Y013784D01*
X010560Y013833D01*
X010574Y013881D01*
X010591Y013928D01*
X010612Y013973D01*
X010637Y014017D01*
X010665Y014058D01*
X010697Y014097D01*
X010731Y014134D01*
X010768Y014168D01*
X010808Y014198D01*
X010850Y014225D01*
X010894Y014249D01*
X010940Y014270D01*
X010987Y014286D01*
X011035Y014299D01*
X011085Y014308D01*
X011134Y014313D01*
X011185Y014314D01*
X011235Y014311D01*
X011284Y014304D01*
X011333Y014293D01*
X011381Y014278D01*
X011427Y014260D01*
X011472Y014238D01*
X011515Y014212D01*
X011556Y014183D01*
X011595Y014151D01*
X011631Y014116D01*
X011663Y014078D01*
X011693Y014038D01*
X011720Y013995D01*
X011743Y013951D01*
X011762Y013905D01*
X011778Y013857D01*
X011790Y013808D01*
X011798Y013759D01*
X011802Y013709D01*
X011802Y013659D01*
X011798Y013609D01*
X011790Y013560D01*
X011778Y013511D01*
X011762Y013463D01*
X011743Y013417D01*
X011720Y013373D01*
X011693Y013330D01*
X011663Y013290D01*
X011631Y013252D01*
X011595Y013217D01*
X011556Y013185D01*
X011515Y013156D01*
X011472Y013130D01*
X011427Y013108D01*
X011381Y013090D01*
X011333Y013075D01*
X011284Y013064D01*
X011235Y013057D01*
X011185Y013054D01*
X011134Y013055D01*
X011085Y013060D01*
X011035Y013069D01*
X010987Y013082D01*
X010940Y013098D01*
X010894Y013119D01*
X010850Y013143D01*
X010808Y013170D01*
X010768Y013200D01*
X010731Y013234D01*
X010697Y013271D01*
X010665Y013310D01*
X010637Y013351D01*
X010612Y013395D01*
X010591Y013440D01*
X010574Y013487D01*
X010560Y013535D01*
X010550Y013584D01*
X010544Y013634D01*
X010542Y013684D01*
X017585Y016243D02*
X017587Y016293D01*
X017593Y016343D01*
X017603Y016392D01*
X017617Y016440D01*
X017634Y016487D01*
X017655Y016532D01*
X017680Y016576D01*
X017708Y016617D01*
X017740Y016656D01*
X017774Y016693D01*
X017811Y016727D01*
X017851Y016757D01*
X017893Y016784D01*
X017937Y016808D01*
X017983Y016829D01*
X018030Y016845D01*
X018078Y016858D01*
X018128Y016867D01*
X018177Y016872D01*
X018228Y016873D01*
X018278Y016870D01*
X018327Y016863D01*
X018376Y016852D01*
X018424Y016837D01*
X018470Y016819D01*
X018515Y016797D01*
X018558Y016771D01*
X018599Y016742D01*
X018638Y016710D01*
X018674Y016675D01*
X018706Y016637D01*
X018736Y016597D01*
X018763Y016554D01*
X018786Y016510D01*
X018805Y016464D01*
X018821Y016416D01*
X018833Y016367D01*
X018841Y016318D01*
X018845Y016268D01*
X018845Y016218D01*
X018841Y016168D01*
X018833Y016119D01*
X018821Y016070D01*
X018805Y016022D01*
X018786Y015976D01*
X018763Y015932D01*
X018736Y015889D01*
X018706Y015849D01*
X018674Y015811D01*
X018638Y015776D01*
X018599Y015744D01*
X018558Y015715D01*
X018515Y015689D01*
X018470Y015667D01*
X018424Y015649D01*
X018376Y015634D01*
X018327Y015623D01*
X018278Y015616D01*
X018228Y015613D01*
X018177Y015614D01*
X018128Y015619D01*
X018078Y015628D01*
X018030Y015641D01*
X017983Y015657D01*
X017937Y015678D01*
X017893Y015702D01*
X017851Y015729D01*
X017811Y015759D01*
X017774Y015793D01*
X017740Y015830D01*
X017708Y015869D01*
X017680Y015910D01*
X017655Y015954D01*
X017634Y015999D01*
X017617Y016046D01*
X017603Y016094D01*
X017593Y016143D01*
X017587Y016193D01*
X017585Y016243D01*
X001050Y016243D02*
X001052Y016293D01*
X001058Y016343D01*
X001068Y016392D01*
X001082Y016440D01*
X001099Y016487D01*
X001120Y016532D01*
X001145Y016576D01*
X001173Y016617D01*
X001205Y016656D01*
X001239Y016693D01*
X001276Y016727D01*
X001316Y016757D01*
X001358Y016784D01*
X001402Y016808D01*
X001448Y016829D01*
X001495Y016845D01*
X001543Y016858D01*
X001593Y016867D01*
X001642Y016872D01*
X001693Y016873D01*
X001743Y016870D01*
X001792Y016863D01*
X001841Y016852D01*
X001889Y016837D01*
X001935Y016819D01*
X001980Y016797D01*
X002023Y016771D01*
X002064Y016742D01*
X002103Y016710D01*
X002139Y016675D01*
X002171Y016637D01*
X002201Y016597D01*
X002228Y016554D01*
X002251Y016510D01*
X002270Y016464D01*
X002286Y016416D01*
X002298Y016367D01*
X002306Y016318D01*
X002310Y016268D01*
X002310Y016218D01*
X002306Y016168D01*
X002298Y016119D01*
X002286Y016070D01*
X002270Y016022D01*
X002251Y015976D01*
X002228Y015932D01*
X002201Y015889D01*
X002171Y015849D01*
X002139Y015811D01*
X002103Y015776D01*
X002064Y015744D01*
X002023Y015715D01*
X001980Y015689D01*
X001935Y015667D01*
X001889Y015649D01*
X001841Y015634D01*
X001792Y015623D01*
X001743Y015616D01*
X001693Y015613D01*
X001642Y015614D01*
X001593Y015619D01*
X001543Y015628D01*
X001495Y015641D01*
X001448Y015657D01*
X001402Y015678D01*
X001358Y015702D01*
X001316Y015729D01*
X001276Y015759D01*
X001239Y015793D01*
X001205Y015830D01*
X001173Y015869D01*
X001145Y015910D01*
X001120Y015954D01*
X001099Y015999D01*
X001082Y016046D01*
X001068Y016094D01*
X001058Y016143D01*
X001052Y016193D01*
X001050Y016243D01*
X001093Y013684D02*
X001095Y013734D01*
X001101Y013784D01*
X001111Y013833D01*
X001125Y013881D01*
X001142Y013928D01*
X001163Y013973D01*
X001188Y014017D01*
X001216Y014058D01*
X001248Y014097D01*
X001282Y014134D01*
X001319Y014168D01*
X001359Y014198D01*
X001401Y014225D01*
X001445Y014249D01*
X001491Y014270D01*
X001538Y014286D01*
X001586Y014299D01*
X001636Y014308D01*
X001685Y014313D01*
X001736Y014314D01*
X001786Y014311D01*
X001835Y014304D01*
X001884Y014293D01*
X001932Y014278D01*
X001978Y014260D01*
X002023Y014238D01*
X002066Y014212D01*
X002107Y014183D01*
X002146Y014151D01*
X002182Y014116D01*
X002214Y014078D01*
X002244Y014038D01*
X002271Y013995D01*
X002294Y013951D01*
X002313Y013905D01*
X002329Y013857D01*
X002341Y013808D01*
X002349Y013759D01*
X002353Y013709D01*
X002353Y013659D01*
X002349Y013609D01*
X002341Y013560D01*
X002329Y013511D01*
X002313Y013463D01*
X002294Y013417D01*
X002271Y013373D01*
X002244Y013330D01*
X002214Y013290D01*
X002182Y013252D01*
X002146Y013217D01*
X002107Y013185D01*
X002066Y013156D01*
X002023Y013130D01*
X001978Y013108D01*
X001932Y013090D01*
X001884Y013075D01*
X001835Y013064D01*
X001786Y013057D01*
X001736Y013054D01*
X001685Y013055D01*
X001636Y013060D01*
X001586Y013069D01*
X001538Y013082D01*
X001491Y013098D01*
X001445Y013119D01*
X001401Y013143D01*
X001359Y013170D01*
X001319Y013200D01*
X001282Y013234D01*
X001248Y013271D01*
X001216Y013310D01*
X001188Y013351D01*
X001163Y013395D01*
X001142Y013440D01*
X001125Y013487D01*
X001111Y013535D01*
X001101Y013584D01*
X001095Y013634D01*
X001093Y013684D01*
D11*
X000542Y014472D02*
X000544Y014511D01*
X000550Y014549D01*
X000559Y014586D01*
X000572Y014623D01*
X000589Y014658D01*
X000608Y014691D01*
X000631Y014722D01*
X000657Y014751D01*
X000686Y014777D01*
X000717Y014800D01*
X000750Y014819D01*
X000785Y014836D01*
X000822Y014849D01*
X000859Y014858D01*
X000897Y014864D01*
X000936Y014866D01*
X011960Y014866D01*
X011999Y014864D01*
X012037Y014858D01*
X012074Y014849D01*
X012111Y014836D01*
X012146Y014819D01*
X012179Y014800D01*
X012210Y014777D01*
X012239Y014751D01*
X012265Y014722D01*
X012288Y014691D01*
X012307Y014658D01*
X012324Y014623D01*
X012337Y014586D01*
X012346Y014549D01*
X012352Y014511D01*
X012354Y014472D01*
X012353Y014472D02*
X012353Y003448D01*
X012354Y003448D02*
X012352Y003409D01*
X012346Y003371D01*
X012337Y003334D01*
X012324Y003297D01*
X012307Y003262D01*
X012288Y003229D01*
X012265Y003198D01*
X012239Y003169D01*
X012210Y003143D01*
X012179Y003120D01*
X012146Y003101D01*
X012111Y003084D01*
X012074Y003071D01*
X012037Y003062D01*
X011999Y003056D01*
X011960Y003054D01*
X000936Y003054D01*
X000897Y003056D01*
X000859Y003062D01*
X000822Y003071D01*
X000785Y003084D01*
X000750Y003101D01*
X000717Y003120D01*
X000686Y003143D01*
X000657Y003169D01*
X000631Y003198D01*
X000608Y003229D01*
X000589Y003262D01*
X000572Y003297D01*
X000559Y003334D01*
X000550Y003371D01*
X000544Y003409D01*
X000542Y003448D01*
X000542Y014472D01*
X000656Y016243D02*
X000658Y016307D01*
X000664Y016370D01*
X000674Y016433D01*
X000688Y016495D01*
X000705Y016556D01*
X000727Y016616D01*
X000752Y016675D01*
X000780Y016732D01*
X000812Y016787D01*
X000848Y016840D01*
X000887Y016890D01*
X000928Y016938D01*
X000973Y016984D01*
X001020Y017026D01*
X001070Y017066D01*
X001123Y017102D01*
X001177Y017135D01*
X001234Y017165D01*
X001292Y017191D01*
X001351Y017213D01*
X001412Y017231D01*
X001474Y017246D01*
X001537Y017257D01*
X001600Y017264D01*
X001664Y017267D01*
X001728Y017266D01*
X001791Y017261D01*
X001854Y017252D01*
X001917Y017239D01*
X001978Y017223D01*
X002039Y017202D01*
X002097Y017178D01*
X002155Y017150D01*
X002210Y017119D01*
X002264Y017084D01*
X002315Y017046D01*
X002364Y017005D01*
X002410Y016961D01*
X002453Y016915D01*
X002493Y016865D01*
X002530Y016814D01*
X002564Y016760D01*
X002595Y016704D01*
X002621Y016646D01*
X002645Y016587D01*
X002664Y016526D01*
X002680Y016464D01*
X002692Y016402D01*
X002700Y016338D01*
X002704Y016275D01*
X002704Y016211D01*
X002700Y016148D01*
X002692Y016084D01*
X002680Y016022D01*
X002664Y015960D01*
X002645Y015899D01*
X002621Y015840D01*
X002595Y015782D01*
X002564Y015726D01*
X002530Y015672D01*
X002493Y015621D01*
X002453Y015571D01*
X002410Y015525D01*
X002364Y015481D01*
X002315Y015440D01*
X002264Y015402D01*
X002210Y015367D01*
X002155Y015336D01*
X002097Y015308D01*
X002039Y015284D01*
X001978Y015263D01*
X001917Y015247D01*
X001854Y015234D01*
X001791Y015225D01*
X001728Y015220D01*
X001664Y015219D01*
X001600Y015222D01*
X001537Y015229D01*
X001474Y015240D01*
X001412Y015255D01*
X001351Y015273D01*
X001292Y015295D01*
X001234Y015321D01*
X001177Y015351D01*
X001123Y015384D01*
X001070Y015420D01*
X001020Y015460D01*
X000973Y015502D01*
X000928Y015548D01*
X000887Y015596D01*
X000848Y015646D01*
X000812Y015699D01*
X000780Y015754D01*
X000752Y015811D01*
X000727Y015870D01*
X000705Y015930D01*
X000688Y015991D01*
X000674Y016053D01*
X000664Y016116D01*
X000658Y016179D01*
X000656Y016243D01*
X003448Y015560D02*
X003448Y014560D01*
X009448Y014560D01*
X009448Y015560D01*
X003448Y015560D01*
X005064Y013080D02*
X005123Y013080D01*
X005123Y013022D01*
X005064Y013022D01*
X005064Y013080D01*
X005123Y012887D02*
X004772Y012653D01*
X004831Y012519D02*
X004772Y012460D01*
X004772Y012285D01*
X005123Y012285D01*
X005006Y012285D02*
X005006Y012460D01*
X004948Y012519D01*
X004831Y012519D01*
X005006Y012402D02*
X005123Y012519D01*
X005123Y012653D02*
X004772Y012887D01*
X005772Y012887D02*
X006123Y012653D01*
X006123Y012887D02*
X005772Y012653D01*
X005772Y012519D02*
X005772Y012285D01*
X005772Y012402D02*
X006123Y012402D01*
X006123Y013022D02*
X006123Y013080D01*
X006064Y013080D01*
X006064Y013022D01*
X006123Y013022D01*
X004948Y010660D02*
X004948Y010060D01*
X005248Y009960D01*
X004648Y009760D01*
X005248Y009560D01*
X004648Y009360D01*
X005248Y009160D01*
X004648Y008960D01*
X004948Y008860D01*
X004948Y008260D01*
X005948Y006660D02*
X005948Y006060D01*
X006248Y005960D01*
X005648Y005760D01*
X006248Y005560D01*
X005648Y005360D01*
X006248Y005160D01*
X005648Y004960D01*
X005948Y004860D01*
X005948Y004260D01*
X005123Y004885D02*
X005123Y005119D01*
X005123Y005002D02*
X004772Y005002D01*
X004889Y004885D01*
X004772Y005253D02*
X004772Y005428D01*
X004831Y005487D01*
X004948Y005487D01*
X005006Y005428D01*
X005006Y005253D01*
X005123Y005253D02*
X004772Y005253D01*
X004772Y005622D02*
X004772Y005797D01*
X004831Y005855D01*
X004948Y005855D01*
X005006Y005797D01*
X005006Y005622D01*
X005123Y005622D02*
X004772Y005622D01*
X004831Y005990D02*
X004772Y006048D01*
X004772Y006165D01*
X004831Y006223D01*
X004948Y006165D02*
X005006Y006223D01*
X005064Y006223D01*
X005123Y006165D01*
X005123Y006048D01*
X005064Y005990D01*
X004948Y006048D02*
X004948Y006165D01*
X004948Y006048D02*
X004889Y005990D01*
X004831Y005990D01*
X005448Y003360D02*
X003448Y003360D01*
X003448Y002360D01*
X005448Y002360D01*
X005448Y003360D01*
X004141Y002067D02*
X003755Y002067D01*
X003748Y002060D02*
X004148Y002060D01*
X003948Y002260D01*
X003748Y002060D01*
X003803Y002115D02*
X004092Y002115D01*
X004044Y002164D02*
X003852Y002164D01*
X003900Y002212D02*
X003995Y002212D01*
X000656Y001677D02*
X000658Y001741D01*
X000664Y001804D01*
X000674Y001867D01*
X000688Y001929D01*
X000705Y001990D01*
X000727Y002050D01*
X000752Y002109D01*
X000780Y002166D01*
X000812Y002221D01*
X000848Y002274D01*
X000887Y002324D01*
X000928Y002372D01*
X000973Y002418D01*
X001020Y002460D01*
X001070Y002500D01*
X001123Y002536D01*
X001177Y002569D01*
X001234Y002599D01*
X001292Y002625D01*
X001351Y002647D01*
X001412Y002665D01*
X001474Y002680D01*
X001537Y002691D01*
X001600Y002698D01*
X001664Y002701D01*
X001728Y002700D01*
X001791Y002695D01*
X001854Y002686D01*
X001917Y002673D01*
X001978Y002657D01*
X002039Y002636D01*
X002097Y002612D01*
X002155Y002584D01*
X002210Y002553D01*
X002264Y002518D01*
X002315Y002480D01*
X002364Y002439D01*
X002410Y002395D01*
X002453Y002349D01*
X002493Y002299D01*
X002530Y002248D01*
X002564Y002194D01*
X002595Y002138D01*
X002621Y002080D01*
X002645Y002021D01*
X002664Y001960D01*
X002680Y001898D01*
X002692Y001836D01*
X002700Y001772D01*
X002704Y001709D01*
X002704Y001645D01*
X002700Y001582D01*
X002692Y001518D01*
X002680Y001456D01*
X002664Y001394D01*
X002645Y001333D01*
X002621Y001274D01*
X002595Y001216D01*
X002564Y001160D01*
X002530Y001106D01*
X002493Y001055D01*
X002453Y001005D01*
X002410Y000959D01*
X002364Y000915D01*
X002315Y000874D01*
X002264Y000836D01*
X002210Y000801D01*
X002155Y000770D01*
X002097Y000742D01*
X002039Y000718D01*
X001978Y000697D01*
X001917Y000681D01*
X001854Y000668D01*
X001791Y000659D01*
X001728Y000654D01*
X001664Y000653D01*
X001600Y000656D01*
X001537Y000663D01*
X001474Y000674D01*
X001412Y000689D01*
X001351Y000707D01*
X001292Y000729D01*
X001234Y000755D01*
X001177Y000785D01*
X001123Y000818D01*
X001070Y000854D01*
X001020Y000894D01*
X000973Y000936D01*
X000928Y000982D01*
X000887Y001030D01*
X000848Y001080D01*
X000812Y001133D01*
X000780Y001188D01*
X000752Y001245D01*
X000727Y001304D01*
X000705Y001364D01*
X000688Y001425D01*
X000674Y001487D01*
X000664Y001550D01*
X000658Y001613D01*
X000656Y001677D01*
X013148Y003460D02*
X013748Y003660D01*
X013148Y003860D01*
X013748Y004060D01*
X013148Y004260D01*
X013748Y004460D01*
X013448Y004560D01*
X013448Y005160D01*
X014895Y004787D02*
X014895Y013133D01*
X019619Y013133D01*
X019619Y004787D01*
X014895Y004787D01*
X013448Y003360D02*
X013148Y003460D01*
X013448Y003360D02*
X013448Y002760D01*
X017191Y001677D02*
X017193Y001741D01*
X017199Y001804D01*
X017209Y001867D01*
X017223Y001929D01*
X017240Y001990D01*
X017262Y002050D01*
X017287Y002109D01*
X017315Y002166D01*
X017347Y002221D01*
X017383Y002274D01*
X017422Y002324D01*
X017463Y002372D01*
X017508Y002418D01*
X017555Y002460D01*
X017605Y002500D01*
X017658Y002536D01*
X017712Y002569D01*
X017769Y002599D01*
X017827Y002625D01*
X017886Y002647D01*
X017947Y002665D01*
X018009Y002680D01*
X018072Y002691D01*
X018135Y002698D01*
X018199Y002701D01*
X018263Y002700D01*
X018326Y002695D01*
X018389Y002686D01*
X018452Y002673D01*
X018513Y002657D01*
X018574Y002636D01*
X018632Y002612D01*
X018690Y002584D01*
X018745Y002553D01*
X018799Y002518D01*
X018850Y002480D01*
X018899Y002439D01*
X018945Y002395D01*
X018988Y002349D01*
X019028Y002299D01*
X019065Y002248D01*
X019099Y002194D01*
X019130Y002138D01*
X019156Y002080D01*
X019180Y002021D01*
X019199Y001960D01*
X019215Y001898D01*
X019227Y001836D01*
X019235Y001772D01*
X019239Y001709D01*
X019239Y001645D01*
X019235Y001582D01*
X019227Y001518D01*
X019215Y001456D01*
X019199Y001394D01*
X019180Y001333D01*
X019156Y001274D01*
X019130Y001216D01*
X019099Y001160D01*
X019065Y001106D01*
X019028Y001055D01*
X018988Y001005D01*
X018945Y000959D01*
X018899Y000915D01*
X018850Y000874D01*
X018799Y000836D01*
X018745Y000801D01*
X018690Y000770D01*
X018632Y000742D01*
X018574Y000718D01*
X018513Y000697D01*
X018452Y000681D01*
X018389Y000668D01*
X018326Y000659D01*
X018263Y000654D01*
X018199Y000653D01*
X018135Y000656D01*
X018072Y000663D01*
X018009Y000674D01*
X017947Y000689D01*
X017886Y000707D01*
X017827Y000729D01*
X017769Y000755D01*
X017712Y000785D01*
X017658Y000818D01*
X017605Y000854D01*
X017555Y000894D01*
X017508Y000936D01*
X017463Y000982D01*
X017422Y001030D01*
X017383Y001080D01*
X017347Y001133D01*
X017315Y001188D01*
X017287Y001245D01*
X017262Y001304D01*
X017240Y001364D01*
X017223Y001425D01*
X017209Y001487D01*
X017199Y001550D01*
X017193Y001613D01*
X017191Y001677D01*
X018792Y005023D02*
X018792Y012897D01*
X016415Y014518D02*
X016468Y014661D01*
X016500Y014809D01*
X016511Y014960D01*
X016500Y015111D01*
X016468Y015259D01*
X016415Y015402D01*
X016342Y015535D01*
X016251Y015656D01*
X016144Y015763D01*
X016022Y015854D01*
X015889Y015927D01*
X015747Y015980D01*
X015599Y016012D01*
X015448Y016023D01*
X015448Y013897D01*
X015599Y013908D01*
X015747Y013940D01*
X015889Y013993D01*
X016022Y014066D01*
X016144Y014157D01*
X016251Y014264D01*
X016342Y014385D01*
X016415Y014518D01*
X016424Y014542D02*
X015448Y014542D01*
X015448Y014494D02*
X016401Y014494D01*
X016375Y014445D02*
X015448Y014445D01*
X015448Y014397D02*
X016348Y014397D01*
X016314Y014348D02*
X015448Y014348D01*
X015448Y014300D02*
X016278Y014300D01*
X016238Y014251D02*
X015448Y014251D01*
X015448Y014203D02*
X016190Y014203D01*
X016140Y014154D02*
X015448Y014154D01*
X015448Y014106D02*
X016076Y014106D01*
X016006Y014057D02*
X015448Y014057D01*
X015448Y014009D02*
X015918Y014009D01*
X015801Y013960D02*
X015448Y013960D01*
X015448Y013911D02*
X015616Y013911D01*
X015448Y014591D02*
X016442Y014591D01*
X016460Y014640D02*
X015448Y014640D01*
X015448Y014688D02*
X016474Y014688D01*
X016484Y014737D02*
X015448Y014737D01*
X015448Y014785D02*
X016495Y014785D01*
X016502Y014834D02*
X015448Y014834D01*
X015448Y014882D02*
X016505Y014882D01*
X016509Y014931D02*
X015448Y014931D01*
X014385Y014960D02*
X014387Y015025D01*
X014393Y015089D01*
X014403Y015153D01*
X014416Y015217D01*
X014434Y015279D01*
X014455Y015340D01*
X014480Y015400D01*
X014509Y015458D01*
X014541Y015515D01*
X014577Y015569D01*
X014615Y015621D01*
X014657Y015670D01*
X014702Y015717D01*
X014750Y015761D01*
X014800Y015803D01*
X014852Y015840D01*
X014907Y015875D01*
X014964Y015906D01*
X015023Y015934D01*
X015083Y015958D01*
X015144Y015979D01*
X015207Y015995D01*
X015271Y016008D01*
X015335Y016017D01*
X015399Y016022D01*
X015464Y016023D01*
X015529Y016020D01*
X015593Y016013D01*
X015657Y016002D01*
X015721Y015987D01*
X015783Y015969D01*
X015844Y015947D01*
X015903Y015921D01*
X015961Y015891D01*
X016016Y015858D01*
X016070Y015822D01*
X016122Y015782D01*
X016170Y015740D01*
X016217Y015694D01*
X016260Y015646D01*
X016300Y015595D01*
X016337Y015542D01*
X016371Y015487D01*
X016402Y015430D01*
X016429Y015371D01*
X016452Y015310D01*
X016471Y015248D01*
X016487Y015185D01*
X016499Y015121D01*
X016507Y015057D01*
X016511Y014992D01*
X016511Y014928D01*
X016507Y014863D01*
X016499Y014799D01*
X016487Y014735D01*
X016471Y014672D01*
X016452Y014610D01*
X016429Y014549D01*
X016402Y014490D01*
X016371Y014433D01*
X016337Y014378D01*
X016300Y014325D01*
X016260Y014274D01*
X016217Y014226D01*
X016170Y014180D01*
X016122Y014138D01*
X016070Y014098D01*
X016016Y014062D01*
X015961Y014029D01*
X015903Y013999D01*
X015844Y013973D01*
X015783Y013951D01*
X015721Y013933D01*
X015657Y013918D01*
X015593Y013907D01*
X015529Y013900D01*
X015464Y013897D01*
X015399Y013898D01*
X015335Y013903D01*
X015271Y013912D01*
X015207Y013925D01*
X015144Y013941D01*
X015083Y013962D01*
X015023Y013986D01*
X014964Y014014D01*
X014907Y014045D01*
X014852Y014080D01*
X014800Y014117D01*
X014750Y014159D01*
X014702Y014203D01*
X014657Y014250D01*
X014615Y014299D01*
X014577Y014351D01*
X014541Y014405D01*
X014509Y014462D01*
X014480Y014520D01*
X014455Y014580D01*
X014434Y014641D01*
X014416Y014703D01*
X014403Y014767D01*
X014393Y014831D01*
X014387Y014895D01*
X014385Y014960D01*
X013748Y014960D02*
X013148Y014760D01*
X013748Y014560D01*
X013148Y014360D01*
X013748Y014160D01*
X013148Y013960D01*
X013448Y013860D01*
X013448Y013260D01*
X013748Y014960D02*
X013448Y015060D01*
X013448Y015660D01*
X015448Y015659D02*
X016248Y015659D01*
X016285Y015610D02*
X015448Y015610D01*
X015448Y015562D02*
X016322Y015562D01*
X016354Y015513D02*
X015448Y015513D01*
X015448Y015465D02*
X016380Y015465D01*
X016407Y015416D02*
X015448Y015416D01*
X015448Y015368D02*
X016427Y015368D01*
X016445Y015319D02*
X015448Y015319D01*
X015448Y015271D02*
X016463Y015271D01*
X016476Y015222D02*
X015448Y015222D01*
X015448Y015174D02*
X016486Y015174D01*
X016497Y015125D02*
X015448Y015125D01*
X015448Y015076D02*
X016502Y015076D01*
X016506Y015028D02*
X015448Y015028D01*
X015448Y014979D02*
X016509Y014979D01*
X016200Y015708D02*
X015448Y015708D01*
X015448Y015756D02*
X016151Y015756D01*
X016089Y015805D02*
X015448Y015805D01*
X015448Y015853D02*
X016024Y015853D01*
X015936Y015902D02*
X015448Y015902D01*
X015448Y015950D02*
X015827Y015950D01*
X015661Y015999D02*
X015448Y015999D01*
X017191Y016243D02*
X017193Y016307D01*
X017199Y016370D01*
X017209Y016433D01*
X017223Y016495D01*
X017240Y016556D01*
X017262Y016616D01*
X017287Y016675D01*
X017315Y016732D01*
X017347Y016787D01*
X017383Y016840D01*
X017422Y016890D01*
X017463Y016938D01*
X017508Y016984D01*
X017555Y017026D01*
X017605Y017066D01*
X017658Y017102D01*
X017712Y017135D01*
X017769Y017165D01*
X017827Y017191D01*
X017886Y017213D01*
X017947Y017231D01*
X018009Y017246D01*
X018072Y017257D01*
X018135Y017264D01*
X018199Y017267D01*
X018263Y017266D01*
X018326Y017261D01*
X018389Y017252D01*
X018452Y017239D01*
X018513Y017223D01*
X018574Y017202D01*
X018632Y017178D01*
X018690Y017150D01*
X018745Y017119D01*
X018799Y017084D01*
X018850Y017046D01*
X018899Y017005D01*
X018945Y016961D01*
X018988Y016915D01*
X019028Y016865D01*
X019065Y016814D01*
X019099Y016760D01*
X019130Y016704D01*
X019156Y016646D01*
X019180Y016587D01*
X019199Y016526D01*
X019215Y016464D01*
X019227Y016402D01*
X019235Y016338D01*
X019239Y016275D01*
X019239Y016211D01*
X019235Y016148D01*
X019227Y016084D01*
X019215Y016022D01*
X019199Y015960D01*
X019180Y015899D01*
X019156Y015840D01*
X019130Y015782D01*
X019099Y015726D01*
X019065Y015672D01*
X019028Y015621D01*
X018988Y015571D01*
X018945Y015525D01*
X018899Y015481D01*
X018850Y015440D01*
X018799Y015402D01*
X018745Y015367D01*
X018690Y015336D01*
X018632Y015308D01*
X018574Y015284D01*
X018513Y015263D01*
X018452Y015247D01*
X018389Y015234D01*
X018326Y015225D01*
X018263Y015220D01*
X018199Y015219D01*
X018135Y015222D01*
X018072Y015229D01*
X018009Y015240D01*
X017947Y015255D01*
X017886Y015273D01*
X017827Y015295D01*
X017769Y015321D01*
X017712Y015351D01*
X017658Y015384D01*
X017605Y015420D01*
X017555Y015460D01*
X017508Y015502D01*
X017463Y015548D01*
X017422Y015596D01*
X017383Y015646D01*
X017347Y015699D01*
X017315Y015754D01*
X017287Y015811D01*
X017262Y015870D01*
X017240Y015930D01*
X017223Y015991D01*
X017209Y016053D01*
X017199Y016116D01*
X017193Y016179D01*
X017191Y016243D01*
X009148Y015860D02*
X008748Y015860D01*
X008948Y015660D01*
X009148Y015860D01*
X009141Y015853D02*
X008755Y015853D01*
X008803Y015805D02*
X009092Y015805D01*
X009044Y015756D02*
X008852Y015756D01*
X008900Y015708D02*
X008995Y015708D01*
D12*
X014848Y001360D02*
X015248Y000960D01*
X015248Y000560D01*
X015648Y000560D01*
X015248Y000960D01*
X015648Y001360D01*
X015248Y001360D01*
X015248Y000960D01*
X014848Y000560D01*
X014848Y001360D01*
X014848Y001357D02*
X014850Y001357D01*
X014848Y001339D02*
X014869Y001339D01*
X014888Y001320D02*
X014848Y001320D01*
X014848Y001302D02*
X014906Y001302D01*
X014925Y001283D02*
X014848Y001283D01*
X014848Y001265D02*
X014943Y001265D01*
X014962Y001246D02*
X014848Y001246D01*
X014848Y001227D02*
X014980Y001227D01*
X014999Y001209D02*
X014848Y001209D01*
X014848Y001190D02*
X015017Y001190D01*
X015036Y001172D02*
X014848Y001172D01*
X014848Y001153D02*
X015054Y001153D01*
X015073Y001135D02*
X014848Y001135D01*
X014848Y001116D02*
X015092Y001116D01*
X015110Y001098D02*
X014848Y001098D01*
X014848Y001079D02*
X015129Y001079D01*
X015147Y001061D02*
X014848Y001061D01*
X014848Y001042D02*
X015166Y001042D01*
X015184Y001023D02*
X014848Y001023D01*
X014848Y001005D02*
X015203Y001005D01*
X015221Y000986D02*
X014848Y000986D01*
X014848Y000968D02*
X015240Y000968D01*
X015248Y000968D02*
X015256Y000968D01*
X015258Y000949D02*
X015248Y000949D01*
X015237Y000949D02*
X014848Y000949D01*
X014848Y000931D02*
X015218Y000931D01*
X015200Y000912D02*
X014848Y000912D01*
X014848Y000894D02*
X015181Y000894D01*
X015163Y000875D02*
X014848Y000875D01*
X014848Y000857D02*
X015144Y000857D01*
X015126Y000838D02*
X014848Y000838D01*
X014848Y000819D02*
X015107Y000819D01*
X015089Y000801D02*
X014848Y000801D01*
X014848Y000782D02*
X015070Y000782D01*
X015052Y000764D02*
X014848Y000764D01*
X014848Y000745D02*
X015033Y000745D01*
X015014Y000727D02*
X014848Y000727D01*
X014848Y000708D02*
X014996Y000708D01*
X014977Y000690D02*
X014848Y000690D01*
X014848Y000671D02*
X014959Y000671D01*
X014940Y000653D02*
X014848Y000653D01*
X014848Y000634D02*
X014922Y000634D01*
X014903Y000616D02*
X014848Y000616D01*
X014848Y000597D02*
X014885Y000597D01*
X014866Y000578D02*
X014848Y000578D01*
X015248Y000578D02*
X015629Y000578D01*
X015611Y000597D02*
X015248Y000597D01*
X015248Y000616D02*
X015592Y000616D01*
X015574Y000634D02*
X015248Y000634D01*
X015248Y000653D02*
X015555Y000653D01*
X015537Y000671D02*
X015248Y000671D01*
X015248Y000690D02*
X015518Y000690D01*
X015499Y000708D02*
X015248Y000708D01*
X015248Y000727D02*
X015481Y000727D01*
X015462Y000745D02*
X015248Y000745D01*
X015248Y000764D02*
X015444Y000764D01*
X015425Y000782D02*
X015248Y000782D01*
X015248Y000801D02*
X015407Y000801D01*
X015388Y000819D02*
X015248Y000819D01*
X015248Y000838D02*
X015370Y000838D01*
X015351Y000857D02*
X015248Y000857D01*
X015248Y000875D02*
X015333Y000875D01*
X015314Y000894D02*
X015248Y000894D01*
X015248Y000912D02*
X015296Y000912D01*
X015277Y000931D02*
X015248Y000931D01*
X015248Y000986D02*
X015274Y000986D01*
X015293Y001005D02*
X015248Y001005D01*
X015248Y001023D02*
X015311Y001023D01*
X015330Y001042D02*
X015248Y001042D01*
X015248Y001061D02*
X015348Y001061D01*
X015367Y001079D02*
X015248Y001079D01*
X015248Y001098D02*
X015385Y001098D01*
X015404Y001116D02*
X015248Y001116D01*
X015248Y001135D02*
X015422Y001135D01*
X015441Y001153D02*
X015248Y001153D01*
X015248Y001172D02*
X015460Y001172D01*
X015478Y001190D02*
X015248Y001190D01*
X015248Y001209D02*
X015497Y001209D01*
X015515Y001227D02*
X015248Y001227D01*
X015248Y001246D02*
X015534Y001246D01*
X015552Y001265D02*
X015248Y001265D01*
X015248Y001283D02*
X015571Y001283D01*
X015589Y001302D02*
X015248Y001302D01*
X015248Y001320D02*
X015608Y001320D01*
X015626Y001339D02*
X015248Y001339D01*
X015248Y001357D02*
X015645Y001357D01*
X015848Y001360D02*
X016648Y001360D01*
X016248Y000960D01*
X016648Y000560D01*
X015848Y000560D01*
X016248Y000960D01*
X015848Y001360D01*
X015850Y001357D02*
X016645Y001357D01*
X016626Y001339D02*
X015869Y001339D01*
X015888Y001320D02*
X016608Y001320D01*
X016589Y001302D02*
X015906Y001302D01*
X015925Y001283D02*
X016571Y001283D01*
X016552Y001265D02*
X015943Y001265D01*
X015962Y001246D02*
X016534Y001246D01*
X016515Y001227D02*
X015980Y001227D01*
X015999Y001209D02*
X016497Y001209D01*
X016478Y001190D02*
X016017Y001190D01*
X016036Y001172D02*
X016460Y001172D01*
X016441Y001153D02*
X016054Y001153D01*
X016073Y001135D02*
X016422Y001135D01*
X016404Y001116D02*
X016092Y001116D01*
X016110Y001098D02*
X016385Y001098D01*
X016367Y001079D02*
X016129Y001079D01*
X016147Y001061D02*
X016348Y001061D01*
X016330Y001042D02*
X016166Y001042D01*
X016184Y001023D02*
X016311Y001023D01*
X016293Y001005D02*
X016203Y001005D01*
X016221Y000986D02*
X016274Y000986D01*
X016256Y000968D02*
X016240Y000968D01*
X016237Y000949D02*
X016258Y000949D01*
X016277Y000931D02*
X016218Y000931D01*
X016200Y000912D02*
X016296Y000912D01*
X016314Y000894D02*
X016181Y000894D01*
X016163Y000875D02*
X016333Y000875D01*
X016351Y000857D02*
X016144Y000857D01*
X016126Y000838D02*
X016370Y000838D01*
X016388Y000819D02*
X016107Y000819D01*
X016089Y000801D02*
X016407Y000801D01*
X016425Y000782D02*
X016070Y000782D01*
X016052Y000764D02*
X016444Y000764D01*
X016462Y000745D02*
X016033Y000745D01*
X016014Y000727D02*
X016481Y000727D01*
X016499Y000708D02*
X015996Y000708D01*
X015977Y000690D02*
X016518Y000690D01*
X016537Y000671D02*
X015959Y000671D01*
X015940Y000653D02*
X016555Y000653D01*
X016574Y000634D02*
X015922Y000634D01*
X015903Y000616D02*
X016592Y000616D01*
X016611Y000597D02*
X015885Y000597D01*
X015866Y000578D02*
X016629Y000578D01*
D13*
X014318Y003569D02*
X013877Y003569D01*
X013877Y003789D01*
X013951Y003863D01*
X014098Y003863D01*
X014171Y003789D01*
X014171Y003569D01*
X014171Y003716D02*
X014318Y003863D01*
X014318Y004030D02*
X014024Y004323D01*
X013951Y004323D01*
X013877Y004250D01*
X013877Y004103D01*
X013951Y004030D01*
X014318Y004030D02*
X014318Y004323D01*
X006818Y005069D02*
X006377Y005069D01*
X006377Y005289D01*
X006451Y005363D01*
X006598Y005363D01*
X006671Y005289D01*
X006671Y005069D01*
X006671Y005216D02*
X006818Y005363D01*
X006598Y005530D02*
X006598Y005823D01*
X006818Y005750D02*
X006377Y005750D01*
X006598Y005530D01*
X006044Y002904D02*
X005971Y002904D01*
X005898Y002831D01*
X005898Y002757D01*
X005898Y002831D02*
X005824Y002904D01*
X005751Y002904D01*
X005677Y002831D01*
X005677Y002684D01*
X005751Y002611D01*
X005677Y002444D02*
X006118Y002444D01*
X005677Y002150D01*
X006118Y002150D01*
X006044Y001984D02*
X006118Y001910D01*
X006118Y001763D01*
X006044Y001690D01*
X005751Y001690D01*
X005677Y001763D01*
X005677Y001910D01*
X005751Y001984D01*
X006044Y002611D02*
X006118Y002684D01*
X006118Y002831D01*
X006044Y002904D01*
X005818Y009069D02*
X005377Y009069D01*
X005377Y009289D01*
X005451Y009363D01*
X005598Y009363D01*
X005671Y009289D01*
X005671Y009069D01*
X005671Y009216D02*
X005818Y009363D01*
X005744Y009530D02*
X005818Y009603D01*
X005818Y009750D01*
X005744Y009823D01*
X005671Y009823D01*
X005598Y009750D01*
X005598Y009676D01*
X005598Y009750D02*
X005524Y009823D01*
X005451Y009823D01*
X005377Y009750D01*
X005377Y009603D01*
X005451Y009530D01*
X009751Y015009D02*
X010044Y015009D01*
X010118Y015082D01*
X010118Y015229D01*
X010044Y015302D01*
X010118Y015469D02*
X009677Y015469D01*
X010118Y015763D01*
X009677Y015763D01*
X009751Y015930D02*
X009677Y016003D01*
X009677Y016150D01*
X009751Y016223D01*
X009824Y016223D01*
X010118Y015930D01*
X010118Y016223D01*
X009751Y015302D02*
X009677Y015229D01*
X009677Y015082D01*
X009751Y015009D01*
X011478Y015063D02*
X011551Y014990D01*
X011698Y014990D01*
X011771Y015063D01*
X011771Y015430D01*
X011938Y015284D02*
X012085Y015430D01*
X012085Y014990D01*
X011938Y014990D02*
X012232Y014990D01*
X011478Y015063D02*
X011478Y015430D01*
X013877Y013976D02*
X014024Y013830D01*
X013951Y013663D02*
X014098Y013663D01*
X014171Y013589D01*
X014171Y013369D01*
X014318Y013369D02*
X013877Y013369D01*
X013877Y013589D01*
X013951Y013663D01*
X014171Y013516D02*
X014318Y013663D01*
X014318Y013830D02*
X014318Y014123D01*
X014318Y013976D02*
X013877Y013976D01*
X014491Y015747D02*
X014491Y015974D01*
X014378Y015860D02*
X014605Y015860D01*
X016578Y014357D02*
X016578Y014063D01*
X016651Y013990D01*
X016798Y013990D01*
X016871Y014063D01*
X017038Y013990D02*
X017332Y013990D01*
X017185Y013990D02*
X017185Y014430D01*
X017038Y014284D01*
X016871Y014357D02*
X016798Y014430D01*
X016651Y014430D01*
X016578Y014357D01*
X018428Y013657D02*
X018428Y013363D01*
X018501Y013290D01*
X018648Y013290D01*
X018721Y013363D01*
X018888Y013290D02*
X018888Y013730D01*
X019182Y013290D01*
X019182Y013730D01*
X019348Y013584D02*
X019495Y013730D01*
X019495Y013290D01*
X019348Y013290D02*
X019642Y013290D01*
X018721Y013657D02*
X018648Y013730D01*
X018501Y013730D01*
X018428Y013657D01*
D14*
X014698Y012760D03*
M02*
