G75*
G70*
%OFA0B0*%
%FSLAX24Y24*%
%IPPOS*%
%LPD*%
%AMOC8*
5,1,8,0,0,1.08239X$1,22.5*
%
%ADD10C,0.0000*%
%ADD11C,0.0080*%
%ADD12C,0.0660*%
%ADD13C,0.1250*%
%ADD14R,0.1250X0.1250*%
%ADD15C,0.0560*%
%ADD16C,0.0660*%
%ADD17C,0.0400*%
%ADD18C,0.0100*%
%ADD19C,0.0020*%
D10*
X000105Y000102D02*
X000105Y017818D01*
X019790Y017818D01*
X019790Y000102D01*
X000105Y000102D01*
X001050Y001677D02*
X001052Y001727D01*
X001058Y001777D01*
X001068Y001826D01*
X001082Y001874D01*
X001099Y001921D01*
X001120Y001966D01*
X001145Y002010D01*
X001173Y002051D01*
X001205Y002090D01*
X001239Y002127D01*
X001276Y002161D01*
X001316Y002191D01*
X001358Y002218D01*
X001402Y002242D01*
X001448Y002263D01*
X001495Y002279D01*
X001543Y002292D01*
X001593Y002301D01*
X001642Y002306D01*
X001693Y002307D01*
X001743Y002304D01*
X001792Y002297D01*
X001841Y002286D01*
X001889Y002271D01*
X001935Y002253D01*
X001980Y002231D01*
X002023Y002205D01*
X002064Y002176D01*
X002103Y002144D01*
X002139Y002109D01*
X002171Y002071D01*
X002201Y002031D01*
X002228Y001988D01*
X002251Y001944D01*
X002270Y001898D01*
X002286Y001850D01*
X002298Y001801D01*
X002306Y001752D01*
X002310Y001702D01*
X002310Y001652D01*
X002306Y001602D01*
X002298Y001553D01*
X002286Y001504D01*
X002270Y001456D01*
X002251Y001410D01*
X002228Y001366D01*
X002201Y001323D01*
X002171Y001283D01*
X002139Y001245D01*
X002103Y001210D01*
X002064Y001178D01*
X002023Y001149D01*
X001980Y001123D01*
X001935Y001101D01*
X001889Y001083D01*
X001841Y001068D01*
X001792Y001057D01*
X001743Y001050D01*
X001693Y001047D01*
X001642Y001048D01*
X001593Y001053D01*
X001543Y001062D01*
X001495Y001075D01*
X001448Y001091D01*
X001402Y001112D01*
X001358Y001136D01*
X001316Y001163D01*
X001276Y001193D01*
X001239Y001227D01*
X001205Y001264D01*
X001173Y001303D01*
X001145Y001344D01*
X001120Y001388D01*
X001099Y001433D01*
X001082Y001480D01*
X001068Y001528D01*
X001058Y001577D01*
X001052Y001627D01*
X001050Y001677D01*
X001093Y004236D02*
X001095Y004286D01*
X001101Y004336D01*
X001111Y004385D01*
X001125Y004433D01*
X001142Y004480D01*
X001163Y004525D01*
X001188Y004569D01*
X001216Y004610D01*
X001248Y004649D01*
X001282Y004686D01*
X001319Y004720D01*
X001359Y004750D01*
X001401Y004777D01*
X001445Y004801D01*
X001491Y004822D01*
X001538Y004838D01*
X001586Y004851D01*
X001636Y004860D01*
X001685Y004865D01*
X001736Y004866D01*
X001786Y004863D01*
X001835Y004856D01*
X001884Y004845D01*
X001932Y004830D01*
X001978Y004812D01*
X002023Y004790D01*
X002066Y004764D01*
X002107Y004735D01*
X002146Y004703D01*
X002182Y004668D01*
X002214Y004630D01*
X002244Y004590D01*
X002271Y004547D01*
X002294Y004503D01*
X002313Y004457D01*
X002329Y004409D01*
X002341Y004360D01*
X002349Y004311D01*
X002353Y004261D01*
X002353Y004211D01*
X002349Y004161D01*
X002341Y004112D01*
X002329Y004063D01*
X002313Y004015D01*
X002294Y003969D01*
X002271Y003925D01*
X002244Y003882D01*
X002214Y003842D01*
X002182Y003804D01*
X002146Y003769D01*
X002107Y003737D01*
X002066Y003708D01*
X002023Y003682D01*
X001978Y003660D01*
X001932Y003642D01*
X001884Y003627D01*
X001835Y003616D01*
X001786Y003609D01*
X001736Y003606D01*
X001685Y003607D01*
X001636Y003612D01*
X001586Y003621D01*
X001538Y003634D01*
X001491Y003650D01*
X001445Y003671D01*
X001401Y003695D01*
X001359Y003722D01*
X001319Y003752D01*
X001282Y003786D01*
X001248Y003823D01*
X001216Y003862D01*
X001188Y003903D01*
X001163Y003947D01*
X001142Y003992D01*
X001125Y004039D01*
X001111Y004087D01*
X001101Y004136D01*
X001095Y004186D01*
X001093Y004236D01*
X010542Y004236D02*
X010544Y004286D01*
X010550Y004336D01*
X010560Y004385D01*
X010574Y004433D01*
X010591Y004480D01*
X010612Y004525D01*
X010637Y004569D01*
X010665Y004610D01*
X010697Y004649D01*
X010731Y004686D01*
X010768Y004720D01*
X010808Y004750D01*
X010850Y004777D01*
X010894Y004801D01*
X010940Y004822D01*
X010987Y004838D01*
X011035Y004851D01*
X011085Y004860D01*
X011134Y004865D01*
X011185Y004866D01*
X011235Y004863D01*
X011284Y004856D01*
X011333Y004845D01*
X011381Y004830D01*
X011427Y004812D01*
X011472Y004790D01*
X011515Y004764D01*
X011556Y004735D01*
X011595Y004703D01*
X011631Y004668D01*
X011663Y004630D01*
X011693Y004590D01*
X011720Y004547D01*
X011743Y004503D01*
X011762Y004457D01*
X011778Y004409D01*
X011790Y004360D01*
X011798Y004311D01*
X011802Y004261D01*
X011802Y004211D01*
X011798Y004161D01*
X011790Y004112D01*
X011778Y004063D01*
X011762Y004015D01*
X011743Y003969D01*
X011720Y003925D01*
X011693Y003882D01*
X011663Y003842D01*
X011631Y003804D01*
X011595Y003769D01*
X011556Y003737D01*
X011515Y003708D01*
X011472Y003682D01*
X011427Y003660D01*
X011381Y003642D01*
X011333Y003627D01*
X011284Y003616D01*
X011235Y003609D01*
X011185Y003606D01*
X011134Y003607D01*
X011085Y003612D01*
X011035Y003621D01*
X010987Y003634D01*
X010940Y003650D01*
X010894Y003671D01*
X010850Y003695D01*
X010808Y003722D01*
X010768Y003752D01*
X010731Y003786D01*
X010697Y003823D01*
X010665Y003862D01*
X010637Y003903D01*
X010612Y003947D01*
X010591Y003992D01*
X010574Y004039D01*
X010560Y004087D01*
X010550Y004136D01*
X010544Y004186D01*
X010542Y004236D01*
X017585Y001677D02*
X017587Y001727D01*
X017593Y001777D01*
X017603Y001826D01*
X017617Y001874D01*
X017634Y001921D01*
X017655Y001966D01*
X017680Y002010D01*
X017708Y002051D01*
X017740Y002090D01*
X017774Y002127D01*
X017811Y002161D01*
X017851Y002191D01*
X017893Y002218D01*
X017937Y002242D01*
X017983Y002263D01*
X018030Y002279D01*
X018078Y002292D01*
X018128Y002301D01*
X018177Y002306D01*
X018228Y002307D01*
X018278Y002304D01*
X018327Y002297D01*
X018376Y002286D01*
X018424Y002271D01*
X018470Y002253D01*
X018515Y002231D01*
X018558Y002205D01*
X018599Y002176D01*
X018638Y002144D01*
X018674Y002109D01*
X018706Y002071D01*
X018736Y002031D01*
X018763Y001988D01*
X018786Y001944D01*
X018805Y001898D01*
X018821Y001850D01*
X018833Y001801D01*
X018841Y001752D01*
X018845Y001702D01*
X018845Y001652D01*
X018841Y001602D01*
X018833Y001553D01*
X018821Y001504D01*
X018805Y001456D01*
X018786Y001410D01*
X018763Y001366D01*
X018736Y001323D01*
X018706Y001283D01*
X018674Y001245D01*
X018638Y001210D01*
X018599Y001178D01*
X018558Y001149D01*
X018515Y001123D01*
X018470Y001101D01*
X018424Y001083D01*
X018376Y001068D01*
X018327Y001057D01*
X018278Y001050D01*
X018228Y001047D01*
X018177Y001048D01*
X018128Y001053D01*
X018078Y001062D01*
X018030Y001075D01*
X017983Y001091D01*
X017937Y001112D01*
X017893Y001136D01*
X017851Y001163D01*
X017811Y001193D01*
X017774Y001227D01*
X017740Y001264D01*
X017708Y001303D01*
X017680Y001344D01*
X017655Y001388D01*
X017634Y001433D01*
X017617Y001480D01*
X017603Y001528D01*
X017593Y001577D01*
X017587Y001627D01*
X017585Y001677D01*
X010542Y013684D02*
X010544Y013734D01*
X010550Y013784D01*
X010560Y013833D01*
X010574Y013881D01*
X010591Y013928D01*
X010612Y013973D01*
X010637Y014017D01*
X010665Y014058D01*
X010697Y014097D01*
X010731Y014134D01*
X010768Y014168D01*
X010808Y014198D01*
X010850Y014225D01*
X010894Y014249D01*
X010940Y014270D01*
X010987Y014286D01*
X011035Y014299D01*
X011085Y014308D01*
X011134Y014313D01*
X011185Y014314D01*
X011235Y014311D01*
X011284Y014304D01*
X011333Y014293D01*
X011381Y014278D01*
X011427Y014260D01*
X011472Y014238D01*
X011515Y014212D01*
X011556Y014183D01*
X011595Y014151D01*
X011631Y014116D01*
X011663Y014078D01*
X011693Y014038D01*
X011720Y013995D01*
X011743Y013951D01*
X011762Y013905D01*
X011778Y013857D01*
X011790Y013808D01*
X011798Y013759D01*
X011802Y013709D01*
X011802Y013659D01*
X011798Y013609D01*
X011790Y013560D01*
X011778Y013511D01*
X011762Y013463D01*
X011743Y013417D01*
X011720Y013373D01*
X011693Y013330D01*
X011663Y013290D01*
X011631Y013252D01*
X011595Y013217D01*
X011556Y013185D01*
X011515Y013156D01*
X011472Y013130D01*
X011427Y013108D01*
X011381Y013090D01*
X011333Y013075D01*
X011284Y013064D01*
X011235Y013057D01*
X011185Y013054D01*
X011134Y013055D01*
X011085Y013060D01*
X011035Y013069D01*
X010987Y013082D01*
X010940Y013098D01*
X010894Y013119D01*
X010850Y013143D01*
X010808Y013170D01*
X010768Y013200D01*
X010731Y013234D01*
X010697Y013271D01*
X010665Y013310D01*
X010637Y013351D01*
X010612Y013395D01*
X010591Y013440D01*
X010574Y013487D01*
X010560Y013535D01*
X010550Y013584D01*
X010544Y013634D01*
X010542Y013684D01*
X017585Y016243D02*
X017587Y016293D01*
X017593Y016343D01*
X017603Y016392D01*
X017617Y016440D01*
X017634Y016487D01*
X017655Y016532D01*
X017680Y016576D01*
X017708Y016617D01*
X017740Y016656D01*
X017774Y016693D01*
X017811Y016727D01*
X017851Y016757D01*
X017893Y016784D01*
X017937Y016808D01*
X017983Y016829D01*
X018030Y016845D01*
X018078Y016858D01*
X018128Y016867D01*
X018177Y016872D01*
X018228Y016873D01*
X018278Y016870D01*
X018327Y016863D01*
X018376Y016852D01*
X018424Y016837D01*
X018470Y016819D01*
X018515Y016797D01*
X018558Y016771D01*
X018599Y016742D01*
X018638Y016710D01*
X018674Y016675D01*
X018706Y016637D01*
X018736Y016597D01*
X018763Y016554D01*
X018786Y016510D01*
X018805Y016464D01*
X018821Y016416D01*
X018833Y016367D01*
X018841Y016318D01*
X018845Y016268D01*
X018845Y016218D01*
X018841Y016168D01*
X018833Y016119D01*
X018821Y016070D01*
X018805Y016022D01*
X018786Y015976D01*
X018763Y015932D01*
X018736Y015889D01*
X018706Y015849D01*
X018674Y015811D01*
X018638Y015776D01*
X018599Y015744D01*
X018558Y015715D01*
X018515Y015689D01*
X018470Y015667D01*
X018424Y015649D01*
X018376Y015634D01*
X018327Y015623D01*
X018278Y015616D01*
X018228Y015613D01*
X018177Y015614D01*
X018128Y015619D01*
X018078Y015628D01*
X018030Y015641D01*
X017983Y015657D01*
X017937Y015678D01*
X017893Y015702D01*
X017851Y015729D01*
X017811Y015759D01*
X017774Y015793D01*
X017740Y015830D01*
X017708Y015869D01*
X017680Y015910D01*
X017655Y015954D01*
X017634Y015999D01*
X017617Y016046D01*
X017603Y016094D01*
X017593Y016143D01*
X017587Y016193D01*
X017585Y016243D01*
X001050Y016243D02*
X001052Y016293D01*
X001058Y016343D01*
X001068Y016392D01*
X001082Y016440D01*
X001099Y016487D01*
X001120Y016532D01*
X001145Y016576D01*
X001173Y016617D01*
X001205Y016656D01*
X001239Y016693D01*
X001276Y016727D01*
X001316Y016757D01*
X001358Y016784D01*
X001402Y016808D01*
X001448Y016829D01*
X001495Y016845D01*
X001543Y016858D01*
X001593Y016867D01*
X001642Y016872D01*
X001693Y016873D01*
X001743Y016870D01*
X001792Y016863D01*
X001841Y016852D01*
X001889Y016837D01*
X001935Y016819D01*
X001980Y016797D01*
X002023Y016771D01*
X002064Y016742D01*
X002103Y016710D01*
X002139Y016675D01*
X002171Y016637D01*
X002201Y016597D01*
X002228Y016554D01*
X002251Y016510D01*
X002270Y016464D01*
X002286Y016416D01*
X002298Y016367D01*
X002306Y016318D01*
X002310Y016268D01*
X002310Y016218D01*
X002306Y016168D01*
X002298Y016119D01*
X002286Y016070D01*
X002270Y016022D01*
X002251Y015976D01*
X002228Y015932D01*
X002201Y015889D01*
X002171Y015849D01*
X002139Y015811D01*
X002103Y015776D01*
X002064Y015744D01*
X002023Y015715D01*
X001980Y015689D01*
X001935Y015667D01*
X001889Y015649D01*
X001841Y015634D01*
X001792Y015623D01*
X001743Y015616D01*
X001693Y015613D01*
X001642Y015614D01*
X001593Y015619D01*
X001543Y015628D01*
X001495Y015641D01*
X001448Y015657D01*
X001402Y015678D01*
X001358Y015702D01*
X001316Y015729D01*
X001276Y015759D01*
X001239Y015793D01*
X001205Y015830D01*
X001173Y015869D01*
X001145Y015910D01*
X001120Y015954D01*
X001099Y015999D01*
X001082Y016046D01*
X001068Y016094D01*
X001058Y016143D01*
X001052Y016193D01*
X001050Y016243D01*
X001093Y013684D02*
X001095Y013734D01*
X001101Y013784D01*
X001111Y013833D01*
X001125Y013881D01*
X001142Y013928D01*
X001163Y013973D01*
X001188Y014017D01*
X001216Y014058D01*
X001248Y014097D01*
X001282Y014134D01*
X001319Y014168D01*
X001359Y014198D01*
X001401Y014225D01*
X001445Y014249D01*
X001491Y014270D01*
X001538Y014286D01*
X001586Y014299D01*
X001636Y014308D01*
X001685Y014313D01*
X001736Y014314D01*
X001786Y014311D01*
X001835Y014304D01*
X001884Y014293D01*
X001932Y014278D01*
X001978Y014260D01*
X002023Y014238D01*
X002066Y014212D01*
X002107Y014183D01*
X002146Y014151D01*
X002182Y014116D01*
X002214Y014078D01*
X002244Y014038D01*
X002271Y013995D01*
X002294Y013951D01*
X002313Y013905D01*
X002329Y013857D01*
X002341Y013808D01*
X002349Y013759D01*
X002353Y013709D01*
X002353Y013659D01*
X002349Y013609D01*
X002341Y013560D01*
X002329Y013511D01*
X002313Y013463D01*
X002294Y013417D01*
X002271Y013373D01*
X002244Y013330D01*
X002214Y013290D01*
X002182Y013252D01*
X002146Y013217D01*
X002107Y013185D01*
X002066Y013156D01*
X002023Y013130D01*
X001978Y013108D01*
X001932Y013090D01*
X001884Y013075D01*
X001835Y013064D01*
X001786Y013057D01*
X001736Y013054D01*
X001685Y013055D01*
X001636Y013060D01*
X001586Y013069D01*
X001538Y013082D01*
X001491Y013098D01*
X001445Y013119D01*
X001401Y013143D01*
X001359Y013170D01*
X001319Y013200D01*
X001282Y013234D01*
X001248Y013271D01*
X001216Y013310D01*
X001188Y013351D01*
X001163Y013395D01*
X001142Y013440D01*
X001125Y013487D01*
X001111Y013535D01*
X001101Y013584D01*
X001095Y013634D01*
X001093Y013684D01*
D11*
X003385Y016800D02*
X003385Y017220D01*
X003175Y017220D01*
X003105Y017150D01*
X003105Y017010D01*
X003175Y016940D01*
X003385Y016940D01*
X003565Y016870D02*
X003565Y017010D01*
X003705Y017010D01*
X003565Y016870D02*
X003635Y016800D01*
X003776Y016800D01*
X003846Y016870D01*
X003846Y017150D01*
X003776Y017220D01*
X003635Y017220D01*
X003565Y017150D01*
X004026Y016800D02*
X004306Y016800D01*
X004306Y017220D01*
X004486Y017150D02*
X004556Y017220D01*
X004696Y017220D01*
X004766Y017150D01*
X004766Y016870D01*
X004696Y016800D01*
X004556Y016800D01*
X004486Y016870D01*
X004946Y017010D02*
X005227Y017010D01*
X005407Y016870D02*
X005407Y017220D01*
X005687Y017220D02*
X005687Y016870D01*
X005617Y016800D01*
X005477Y016800D01*
X005407Y016870D01*
X005867Y016800D02*
X006147Y017220D01*
X006327Y017220D02*
X006608Y016940D01*
X006538Y017010D02*
X006327Y016800D01*
X006147Y016800D02*
X005867Y017220D01*
X006608Y017220D02*
X006608Y016800D01*
X004608Y001720D02*
X004468Y001580D01*
X004327Y001720D01*
X004327Y001300D01*
X004147Y001370D02*
X004077Y001440D01*
X003867Y001440D01*
X003867Y001510D02*
X003867Y001300D01*
X004077Y001300D01*
X004147Y001370D01*
X004077Y001580D02*
X003937Y001580D01*
X003867Y001510D01*
X003687Y001580D02*
X003687Y001370D01*
X003617Y001300D01*
X003407Y001300D01*
X003407Y001230D02*
X003477Y001160D01*
X003547Y001160D01*
X003547Y001020D02*
X003547Y000600D01*
X003687Y000600D02*
X003407Y000600D01*
X003227Y000670D02*
X003227Y000740D01*
X003157Y000810D01*
X003016Y000810D01*
X002946Y000740D01*
X002946Y000670D01*
X003016Y000600D01*
X003157Y000600D01*
X003227Y000670D01*
X003157Y000810D02*
X003227Y000880D01*
X003227Y000950D01*
X003157Y001020D01*
X003016Y001020D01*
X002946Y000950D01*
X002946Y000880D01*
X003016Y000810D01*
X003547Y001020D02*
X003687Y000880D01*
X003867Y000950D02*
X003867Y000670D01*
X003937Y000600D01*
X004077Y000600D01*
X004147Y000670D01*
X003867Y000950D01*
X003937Y001020D01*
X004077Y001020D01*
X004147Y000950D01*
X004147Y000670D01*
X004327Y000600D02*
X004608Y000600D01*
X004327Y000880D01*
X004327Y000950D01*
X004398Y001020D01*
X004538Y001020D01*
X004608Y000950D01*
X004608Y001300D02*
X004608Y001720D01*
X003407Y001580D02*
X003407Y001230D01*
D12*
X005948Y003960D03*
X005948Y006960D03*
X004948Y007960D03*
X004948Y010960D03*
X011763Y010960D03*
X011763Y009960D03*
X011763Y008960D03*
X011763Y007960D03*
X011763Y006960D03*
X013448Y005460D03*
X013448Y002460D03*
X013448Y012960D03*
X013448Y015960D03*
D13*
X014698Y011913D03*
X013713Y010929D03*
X014698Y008960D03*
X013713Y006991D03*
X014698Y006007D03*
D14*
X018595Y006991D03*
X018595Y010929D03*
D15*
X015841Y014960D03*
X015054Y014960D03*
D16*
X008948Y014290D02*
X008948Y013630D01*
X007948Y013630D02*
X007948Y014290D01*
X006948Y014290D02*
X006948Y013630D01*
X005948Y013630D02*
X005948Y014290D01*
X004948Y014290D02*
X004948Y013630D01*
X003948Y013630D02*
X003948Y014290D01*
X003948Y004290D02*
X003948Y003630D01*
X004948Y003630D02*
X004948Y004290D01*
D17*
X004948Y003960D02*
X005948Y003960D01*
X005948Y006960D02*
X011763Y006960D01*
X012698Y007710D02*
X012698Y005210D01*
X013448Y004460D01*
X013448Y002460D01*
X013448Y005460D02*
X013448Y006726D01*
X013713Y006991D01*
X012698Y007710D02*
X012448Y007960D01*
X011763Y007960D01*
X004948Y007960D01*
X005948Y009460D02*
X006448Y008960D01*
X011763Y008960D01*
X013198Y009960D02*
X014198Y009960D01*
X014698Y010460D01*
X014698Y011913D01*
X014698Y014960D01*
X015054Y014960D01*
X014698Y014960D02*
X014698Y015460D01*
X014198Y015960D01*
X013448Y015960D01*
X013448Y012960D02*
X013448Y011194D01*
X013713Y010929D01*
X013198Y009960D02*
X012198Y010960D01*
X011763Y010960D01*
X005948Y009460D02*
X005948Y013960D01*
X004948Y013960D02*
X004948Y010960D01*
D18*
X004618Y011280D02*
X004558Y011221D01*
X004488Y011051D01*
X004488Y010868D01*
X004558Y010699D01*
X004687Y010570D01*
X004856Y010500D01*
X005039Y010500D01*
X005208Y010570D01*
X005338Y010699D01*
X005408Y010868D01*
X005408Y011051D01*
X005338Y011221D01*
X005278Y011280D01*
X005278Y013309D01*
X005338Y013369D01*
X005408Y013538D01*
X005408Y014381D01*
X005338Y014551D01*
X005208Y014680D01*
X005039Y014750D01*
X004856Y014750D01*
X004687Y014680D01*
X004558Y014551D01*
X004488Y014381D01*
X004488Y013538D01*
X004558Y013369D01*
X004618Y013309D01*
X004618Y011280D01*
X004618Y011325D02*
X000555Y011325D01*
X000555Y011226D02*
X004564Y011226D01*
X004519Y011128D02*
X000555Y011128D01*
X000555Y011029D02*
X004488Y011029D01*
X004488Y010931D02*
X000555Y010931D01*
X000555Y010832D02*
X004503Y010832D01*
X004544Y010734D02*
X000555Y010734D01*
X000555Y010635D02*
X004622Y010635D01*
X004768Y010537D02*
X000555Y010537D01*
X000555Y010438D02*
X005618Y010438D01*
X005618Y010340D02*
X000555Y010340D01*
X000555Y010241D02*
X005618Y010241D01*
X005618Y010143D02*
X000555Y010143D01*
X000555Y010044D02*
X005618Y010044D01*
X005618Y009945D02*
X000555Y009945D01*
X000555Y009847D02*
X005618Y009847D01*
X005618Y009748D02*
X000555Y009748D01*
X000555Y009650D02*
X005618Y009650D01*
X005618Y009551D02*
X000555Y009551D01*
X000555Y009453D02*
X005618Y009453D01*
X005618Y009394D02*
X005668Y009273D01*
X005761Y009180D01*
X006168Y008773D01*
X006261Y008680D01*
X006382Y008630D01*
X011442Y008630D01*
X011502Y008570D01*
X011671Y008500D01*
X011854Y008500D01*
X012023Y008570D01*
X012153Y008699D01*
X012223Y008868D01*
X012223Y009051D01*
X012153Y009221D01*
X012023Y009350D01*
X011854Y009420D01*
X011671Y009420D01*
X011502Y009350D01*
X011442Y009290D01*
X006584Y009290D01*
X006278Y009597D01*
X006278Y013309D01*
X006338Y013369D01*
X006408Y013538D01*
X006408Y014381D01*
X006338Y014551D01*
X006208Y014680D01*
X006039Y014750D01*
X005856Y014750D01*
X005687Y014680D01*
X005558Y014551D01*
X005488Y014381D01*
X005488Y013538D01*
X005558Y013369D01*
X005618Y013309D01*
X005618Y009394D01*
X005634Y009354D02*
X000555Y009354D01*
X000555Y009256D02*
X005685Y009256D01*
X005761Y009180D02*
X005761Y009180D01*
X005784Y009157D02*
X000555Y009157D01*
X000555Y009059D02*
X005883Y009059D01*
X005981Y008960D02*
X000555Y008960D01*
X000555Y008861D02*
X006080Y008861D01*
X006168Y008773D02*
X006168Y008773D01*
X006178Y008763D02*
X000555Y008763D01*
X000555Y008664D02*
X006299Y008664D01*
X006520Y009354D02*
X011512Y009354D01*
X011578Y009515D02*
X011650Y009492D01*
X011724Y009480D01*
X011724Y009921D01*
X011801Y009921D01*
X011801Y009480D01*
X011875Y009492D01*
X011947Y009515D01*
X012014Y009549D01*
X012075Y009594D01*
X012129Y009647D01*
X012173Y009708D01*
X012207Y009776D01*
X012231Y009848D01*
X012242Y009921D01*
X011801Y009921D01*
X011801Y009999D01*
X011724Y009999D01*
X011724Y010440D01*
X011650Y010428D01*
X011578Y010405D01*
X011511Y010371D01*
X011450Y010326D01*
X011397Y010273D01*
X011352Y010212D01*
X011318Y010144D01*
X011294Y010072D01*
X011283Y009999D01*
X011724Y009999D01*
X011724Y009921D01*
X011283Y009921D01*
X011294Y009848D01*
X011318Y009776D01*
X011352Y009708D01*
X011397Y009647D01*
X011450Y009594D01*
X011511Y009549D01*
X011578Y009515D01*
X011509Y009551D02*
X006323Y009551D01*
X006278Y009650D02*
X011395Y009650D01*
X011332Y009748D02*
X006278Y009748D01*
X006278Y009847D02*
X011295Y009847D01*
X011290Y010044D02*
X006278Y010044D01*
X006278Y010143D02*
X011317Y010143D01*
X011374Y010241D02*
X006278Y010241D01*
X006278Y010340D02*
X011469Y010340D01*
X011583Y010537D02*
X006278Y010537D01*
X006278Y010635D02*
X011437Y010635D01*
X011373Y010699D02*
X011303Y010868D01*
X011303Y011051D01*
X011373Y011221D01*
X011502Y011350D01*
X011671Y011420D01*
X011854Y011420D01*
X012023Y011350D01*
X012083Y011290D01*
X012132Y011290D01*
X012263Y011290D01*
X012385Y011240D01*
X013038Y010586D01*
X012958Y010778D01*
X012958Y011079D01*
X013073Y011356D01*
X013118Y011400D01*
X013118Y012639D01*
X013058Y012699D01*
X012988Y012868D01*
X012988Y013051D01*
X013058Y013221D01*
X013187Y013350D01*
X013356Y013420D01*
X013539Y013420D01*
X013708Y013350D01*
X013838Y013221D01*
X013908Y013051D01*
X013908Y012868D01*
X013838Y012699D01*
X013778Y012639D01*
X013778Y011683D01*
X013864Y011683D01*
X013999Y011628D01*
X013943Y011763D01*
X013943Y012063D01*
X014058Y012340D01*
X014270Y012553D01*
X014368Y012593D01*
X014368Y015026D01*
X014368Y015323D01*
X014061Y015630D01*
X013768Y015630D01*
X013708Y015570D01*
X013539Y015500D01*
X013356Y015500D01*
X013187Y015570D01*
X013058Y015699D01*
X012988Y015868D01*
X012988Y016051D01*
X013058Y016221D01*
X013187Y016350D01*
X013356Y016420D01*
X013539Y016420D01*
X013708Y016350D01*
X013768Y016290D01*
X014132Y016290D01*
X014263Y016290D01*
X014385Y016240D01*
X014977Y015647D01*
X015028Y015526D01*
X015028Y015394D01*
X015028Y015370D01*
X015136Y015370D01*
X015286Y015308D01*
X015402Y015192D01*
X015437Y015107D01*
X015443Y015125D01*
X015474Y015185D01*
X015513Y015240D01*
X015561Y015288D01*
X015616Y015328D01*
X015676Y015358D01*
X015741Y015379D01*
X015808Y015390D01*
X015813Y015390D01*
X015813Y014989D01*
X015870Y014989D01*
X015870Y015390D01*
X015875Y015390D01*
X015942Y015379D01*
X016006Y015358D01*
X016067Y015328D01*
X016122Y015288D01*
X016169Y015240D01*
X016209Y015185D01*
X016240Y015125D01*
X016261Y015061D01*
X016271Y014994D01*
X016271Y014989D01*
X015870Y014989D01*
X015870Y014931D01*
X015870Y014530D01*
X015875Y014530D01*
X015942Y014541D01*
X016006Y014561D01*
X016067Y014592D01*
X016122Y014632D01*
X016169Y014680D01*
X016209Y014735D01*
X016240Y014795D01*
X016261Y014859D01*
X016271Y014926D01*
X016271Y014931D01*
X015870Y014931D01*
X015813Y014931D01*
X015813Y014530D01*
X015808Y014530D01*
X015741Y014541D01*
X015676Y014561D01*
X015616Y014592D01*
X015561Y014632D01*
X015513Y014680D01*
X015474Y014735D01*
X015443Y014795D01*
X015437Y014813D01*
X015402Y014728D01*
X015286Y014612D01*
X015136Y014550D01*
X015028Y014550D01*
X015028Y012593D01*
X015125Y012553D01*
X015338Y012340D01*
X015453Y012063D01*
X015453Y011763D01*
X015338Y011485D01*
X015125Y011273D01*
X015028Y011232D01*
X015028Y010394D01*
X014977Y010273D01*
X014885Y010180D01*
X014385Y009680D01*
X014263Y009630D01*
X014132Y009630D01*
X013132Y009630D01*
X013011Y009680D01*
X012918Y009773D01*
X012072Y010619D01*
X012023Y010570D01*
X011854Y010500D01*
X011671Y010500D01*
X011502Y010570D01*
X011373Y010699D01*
X011358Y010734D02*
X006278Y010734D01*
X006278Y010832D02*
X011318Y010832D01*
X011303Y010931D02*
X006278Y010931D01*
X006278Y011029D02*
X011303Y011029D01*
X011334Y011128D02*
X006278Y011128D01*
X006278Y011226D02*
X011379Y011226D01*
X011477Y011325D02*
X006278Y011325D01*
X006278Y011424D02*
X013118Y011424D01*
X013118Y011522D02*
X006278Y011522D01*
X006278Y011621D02*
X013118Y011621D01*
X013118Y011719D02*
X006278Y011719D01*
X006278Y011818D02*
X013118Y011818D01*
X013118Y011916D02*
X006278Y011916D01*
X006278Y012015D02*
X013118Y012015D01*
X013118Y012113D02*
X006278Y012113D01*
X006278Y012212D02*
X013118Y012212D01*
X013118Y012310D02*
X006278Y012310D01*
X006278Y012409D02*
X010871Y012409D01*
X011000Y012375D02*
X011345Y012375D01*
X011678Y012464D01*
X011976Y012636D01*
X012220Y012880D01*
X012393Y013179D01*
X012482Y013512D01*
X012482Y013857D01*
X012393Y014190D01*
X012220Y014489D01*
X011976Y014733D01*
X011678Y014905D01*
X011345Y014994D01*
X011000Y014994D01*
X010667Y014905D01*
X010368Y014733D01*
X010124Y014489D01*
X009952Y014190D01*
X009862Y013857D01*
X009862Y013512D01*
X009952Y013179D01*
X010124Y012880D01*
X010368Y012636D01*
X010667Y012464D01*
X011000Y012375D01*
X010591Y012508D02*
X006278Y012508D01*
X006278Y012606D02*
X010420Y012606D01*
X010299Y012705D02*
X006278Y012705D01*
X006278Y012803D02*
X010201Y012803D01*
X010111Y012902D02*
X006278Y012902D01*
X006278Y013000D02*
X010055Y013000D01*
X009998Y013099D02*
X006278Y013099D01*
X006278Y013197D02*
X006790Y013197D01*
X006856Y013170D02*
X006687Y013240D01*
X006558Y013369D01*
X006488Y013538D01*
X006488Y014381D01*
X006558Y014551D01*
X006687Y014680D01*
X006856Y014750D01*
X007039Y014750D01*
X007208Y014680D01*
X007338Y014551D01*
X007408Y014381D01*
X007408Y013538D01*
X007338Y013369D01*
X007208Y013240D01*
X007039Y013170D01*
X006856Y013170D01*
X007105Y013197D02*
X007790Y013197D01*
X007856Y013170D02*
X007687Y013240D01*
X007558Y013369D01*
X007488Y013538D01*
X007488Y014381D01*
X007558Y014551D01*
X007687Y014680D01*
X007856Y014750D01*
X008039Y014750D01*
X008208Y014680D01*
X008338Y014551D01*
X008408Y014381D01*
X008408Y013538D01*
X008338Y013369D01*
X008208Y013240D01*
X008039Y013170D01*
X007856Y013170D01*
X008105Y013197D02*
X008739Y013197D01*
X008763Y013185D02*
X008835Y013162D01*
X008909Y013150D01*
X008909Y013921D01*
X008986Y013921D01*
X008986Y013150D01*
X009060Y013162D01*
X009132Y013185D01*
X009199Y013219D01*
X009260Y013264D01*
X009314Y013317D01*
X009358Y013378D01*
X009393Y013446D01*
X009416Y013518D01*
X009428Y013592D01*
X009428Y013921D01*
X008987Y013921D01*
X008987Y013999D01*
X009428Y013999D01*
X009428Y014328D01*
X009416Y014402D01*
X009393Y014474D01*
X009358Y014542D01*
X009314Y014603D01*
X009260Y014656D01*
X009199Y014701D01*
X009132Y014735D01*
X009060Y014758D01*
X008986Y014770D01*
X008986Y013999D01*
X008909Y013999D01*
X008909Y014770D01*
X008835Y014758D01*
X008763Y014735D01*
X008696Y014701D01*
X008635Y014656D01*
X008582Y014603D01*
X008537Y014542D01*
X008503Y014474D01*
X008480Y014402D01*
X008468Y014328D01*
X008468Y013999D01*
X008909Y013999D01*
X008909Y013921D01*
X008468Y013921D01*
X008468Y013592D01*
X008480Y013518D01*
X008503Y013446D01*
X008537Y013378D01*
X008582Y013317D01*
X008635Y013264D01*
X008696Y013219D01*
X008763Y013185D01*
X008909Y013197D02*
X008986Y013197D01*
X008986Y013296D02*
X008909Y013296D01*
X008909Y013394D02*
X008986Y013394D01*
X008986Y013493D02*
X008909Y013493D01*
X008909Y013592D02*
X008986Y013592D01*
X008986Y013690D02*
X008909Y013690D01*
X008909Y013789D02*
X008986Y013789D01*
X008986Y013887D02*
X008909Y013887D01*
X008909Y013986D02*
X008408Y013986D01*
X008408Y014084D02*
X008468Y014084D01*
X008468Y014183D02*
X008408Y014183D01*
X008408Y014281D02*
X008468Y014281D01*
X008476Y014380D02*
X008408Y014380D01*
X008368Y014478D02*
X008505Y014478D01*
X008563Y014577D02*
X008311Y014577D01*
X008213Y014676D02*
X008662Y014676D01*
X008909Y014676D02*
X008986Y014676D01*
X008986Y014577D02*
X008909Y014577D01*
X008909Y014478D02*
X008986Y014478D01*
X008986Y014380D02*
X008909Y014380D01*
X008909Y014281D02*
X008986Y014281D01*
X008986Y014183D02*
X008909Y014183D01*
X008909Y014084D02*
X008986Y014084D01*
X008987Y013986D02*
X009897Y013986D01*
X009923Y014084D02*
X009428Y014084D01*
X009428Y014183D02*
X009950Y014183D01*
X010004Y014281D02*
X009428Y014281D01*
X009419Y014380D02*
X010061Y014380D01*
X010118Y014478D02*
X009390Y014478D01*
X009333Y014577D02*
X010212Y014577D01*
X010311Y014676D02*
X009234Y014676D01*
X009428Y013887D02*
X009870Y013887D01*
X009862Y013789D02*
X009428Y013789D01*
X009428Y013690D02*
X009862Y013690D01*
X009862Y013592D02*
X009428Y013592D01*
X009408Y013493D02*
X009867Y013493D01*
X009894Y013394D02*
X009366Y013394D01*
X009292Y013296D02*
X009920Y013296D01*
X009947Y013197D02*
X009156Y013197D01*
X008603Y013296D02*
X008264Y013296D01*
X008348Y013394D02*
X008529Y013394D01*
X008487Y013493D02*
X008389Y013493D01*
X008408Y013592D02*
X008468Y013592D01*
X008468Y013690D02*
X008408Y013690D01*
X008408Y013789D02*
X008468Y013789D01*
X008468Y013887D02*
X008408Y013887D01*
X007631Y013296D02*
X007264Y013296D01*
X007348Y013394D02*
X007547Y013394D01*
X007507Y013493D02*
X007389Y013493D01*
X007408Y013592D02*
X007488Y013592D01*
X007488Y013690D02*
X007408Y013690D01*
X007408Y013789D02*
X007488Y013789D01*
X007488Y013887D02*
X007408Y013887D01*
X007408Y013986D02*
X007488Y013986D01*
X007488Y014084D02*
X007408Y014084D01*
X007408Y014183D02*
X007488Y014183D01*
X007488Y014281D02*
X007408Y014281D01*
X007408Y014380D02*
X007488Y014380D01*
X007528Y014478D02*
X007368Y014478D01*
X007311Y014577D02*
X007584Y014577D01*
X007683Y014676D02*
X007213Y014676D01*
X006683Y014676D02*
X006213Y014676D01*
X006311Y014577D02*
X006584Y014577D01*
X006528Y014478D02*
X006368Y014478D01*
X006408Y014380D02*
X006488Y014380D01*
X006488Y014281D02*
X006408Y014281D01*
X006408Y014183D02*
X006488Y014183D01*
X006488Y014084D02*
X006408Y014084D01*
X006408Y013986D02*
X006488Y013986D01*
X006488Y013887D02*
X006408Y013887D01*
X006408Y013789D02*
X006488Y013789D01*
X006488Y013690D02*
X006408Y013690D01*
X006408Y013592D02*
X006488Y013592D01*
X006507Y013493D02*
X006389Y013493D01*
X006348Y013394D02*
X006547Y013394D01*
X006631Y013296D02*
X006278Y013296D01*
X005618Y013296D02*
X005278Y013296D01*
X005278Y013197D02*
X005618Y013197D01*
X005618Y013099D02*
X005278Y013099D01*
X005278Y013000D02*
X005618Y013000D01*
X005618Y012902D02*
X005278Y012902D01*
X005278Y012803D02*
X005618Y012803D01*
X005618Y012705D02*
X005278Y012705D01*
X005278Y012606D02*
X005618Y012606D01*
X005618Y012508D02*
X005278Y012508D01*
X005278Y012409D02*
X005618Y012409D01*
X005618Y012310D02*
X005278Y012310D01*
X005278Y012212D02*
X005618Y012212D01*
X005618Y012113D02*
X005278Y012113D01*
X005278Y012015D02*
X005618Y012015D01*
X005618Y011916D02*
X005278Y011916D01*
X005278Y011818D02*
X005618Y011818D01*
X005618Y011719D02*
X005278Y011719D01*
X005278Y011621D02*
X005618Y011621D01*
X005618Y011522D02*
X005278Y011522D01*
X005278Y011424D02*
X005618Y011424D01*
X005618Y011325D02*
X005278Y011325D01*
X005332Y011226D02*
X005618Y011226D01*
X005618Y011128D02*
X005376Y011128D01*
X005408Y011029D02*
X005618Y011029D01*
X005618Y010931D02*
X005408Y010931D01*
X005393Y010832D02*
X005618Y010832D01*
X005618Y010734D02*
X005352Y010734D01*
X005273Y010635D02*
X005618Y010635D01*
X005618Y010537D02*
X005128Y010537D01*
X004618Y011424D02*
X000555Y011424D01*
X000555Y011522D02*
X004618Y011522D01*
X004618Y011621D02*
X000555Y011621D01*
X000555Y011719D02*
X004618Y011719D01*
X004618Y011818D02*
X000555Y011818D01*
X000555Y011916D02*
X004618Y011916D01*
X004618Y012015D02*
X000555Y012015D01*
X000555Y012113D02*
X004618Y012113D01*
X004618Y012212D02*
X000555Y012212D01*
X000555Y012310D02*
X004618Y012310D01*
X004618Y012409D02*
X002024Y012409D01*
X001896Y012375D02*
X002229Y012464D01*
X002528Y012636D01*
X002771Y012880D01*
X002944Y013179D01*
X003033Y013512D01*
X003033Y013857D01*
X002944Y014190D01*
X002771Y014489D01*
X002528Y014733D01*
X002229Y014905D01*
X002025Y014960D01*
X002193Y015005D01*
X002496Y015180D01*
X002744Y015427D01*
X002919Y015730D01*
X003009Y016068D01*
X003009Y016419D01*
X002919Y016757D01*
X002744Y017060D01*
X002496Y017307D01*
X002391Y017368D01*
X003083Y017368D01*
X003035Y017320D01*
X002935Y017221D01*
X002935Y017081D01*
X002935Y017035D01*
X002935Y016940D01*
X003035Y016840D01*
X003102Y016773D01*
X003105Y016770D01*
X003174Y016770D01*
X003215Y016770D01*
X003215Y016730D01*
X003315Y016630D01*
X003456Y016630D01*
X003510Y016685D01*
X003565Y016630D01*
X003636Y016630D01*
X003846Y016630D01*
X003901Y016685D01*
X003955Y016630D01*
X004376Y016630D01*
X004431Y016685D01*
X004486Y016630D01*
X004557Y016630D01*
X004767Y016630D01*
X004866Y016730D01*
X004936Y016800D01*
X004936Y016840D01*
X005237Y016840D01*
X005237Y016800D01*
X005336Y016700D01*
X005336Y016700D01*
X005406Y016630D01*
X005478Y016630D01*
X005687Y016630D01*
X005739Y016681D01*
X005831Y016619D01*
X005969Y016647D01*
X006007Y016704D01*
X006045Y016647D01*
X006183Y016619D01*
X006234Y016653D01*
X006257Y016630D01*
X006398Y016630D01*
X006468Y016700D01*
X006537Y016630D01*
X006678Y016630D01*
X006778Y016730D01*
X006778Y016870D01*
X006778Y017011D01*
X006778Y017291D01*
X006700Y017368D01*
X017505Y017368D01*
X017399Y017307D01*
X017152Y017060D01*
X016976Y016757D01*
X016886Y016419D01*
X016886Y016068D01*
X016976Y015730D01*
X017152Y015427D01*
X017399Y015180D01*
X017702Y015005D01*
X018040Y014914D01*
X018390Y014914D01*
X018729Y015005D01*
X019032Y015180D01*
X019279Y015427D01*
X019340Y015533D01*
X019340Y011646D01*
X019312Y011674D01*
X019278Y011693D01*
X019240Y011703D01*
X018645Y011703D01*
X018645Y010979D01*
X018545Y010979D01*
X018545Y011703D01*
X017951Y011703D01*
X017912Y011693D01*
X017878Y011674D01*
X017850Y011646D01*
X017831Y011611D01*
X017820Y011573D01*
X017820Y010978D01*
X018545Y010978D01*
X018545Y010879D01*
X017820Y010879D01*
X017820Y010284D01*
X017831Y010246D01*
X017850Y010211D01*
X017878Y010183D01*
X017912Y010164D01*
X017951Y010154D01*
X018545Y010154D01*
X018545Y010878D01*
X018645Y010878D01*
X018645Y010154D01*
X019240Y010154D01*
X019278Y010164D01*
X019312Y010183D01*
X019340Y010211D01*
X019340Y007709D01*
X019312Y007736D01*
X019278Y007756D01*
X019240Y007766D01*
X018645Y007766D01*
X018645Y007042D01*
X018545Y007042D01*
X018545Y007766D01*
X017951Y007766D01*
X017912Y007756D01*
X017878Y007736D01*
X017850Y007709D01*
X017831Y007674D01*
X017820Y007636D01*
X017820Y007041D01*
X018545Y007041D01*
X018545Y006941D01*
X018645Y006941D01*
X018645Y006216D01*
X019240Y006216D01*
X019278Y006227D01*
X019312Y006246D01*
X019340Y006274D01*
X019340Y002387D01*
X019279Y002493D01*
X019032Y002740D01*
X018729Y002915D01*
X018390Y003006D01*
X018040Y003006D01*
X017702Y002915D01*
X017399Y002740D01*
X017152Y002493D01*
X016976Y002190D01*
X016886Y001852D01*
X016886Y001501D01*
X016976Y001163D01*
X017152Y000860D01*
X017399Y000613D01*
X017505Y000552D01*
X006388Y000552D01*
X006388Y000618D01*
X006388Y001218D01*
X006306Y001300D01*
X006190Y001300D01*
X006108Y001218D01*
X006088Y001198D01*
X006088Y001218D01*
X006006Y001300D01*
X005590Y001300D01*
X005490Y001300D01*
X004890Y001300D01*
X004808Y001218D01*
X004808Y001102D01*
X004890Y001020D01*
X005050Y000860D01*
X004808Y000618D01*
X004808Y000552D01*
X004778Y000552D01*
X004778Y000670D01*
X004668Y000780D01*
X004678Y000780D01*
X004778Y000880D01*
X004778Y001021D01*
X004708Y001091D01*
X004668Y001130D01*
X004678Y001130D01*
X004778Y001230D01*
X004778Y001650D01*
X004778Y001791D01*
X004678Y001890D01*
X004537Y001890D01*
X004468Y001821D01*
X004398Y001890D01*
X004257Y001890D01*
X004157Y001791D01*
X004157Y001740D01*
X004148Y001750D01*
X004008Y001750D01*
X003867Y001750D01*
X003812Y001695D01*
X003757Y001750D01*
X003617Y001750D01*
X003547Y001680D01*
X003477Y001750D01*
X003336Y001750D01*
X003237Y001651D01*
X003237Y001300D01*
X003237Y001181D01*
X003227Y001190D01*
X003156Y001190D01*
X003086Y001190D01*
X002946Y001190D01*
X002919Y001163D01*
X003009Y001501D01*
X003009Y001852D01*
X002919Y002190D01*
X002744Y002493D01*
X002496Y002740D01*
X002193Y002915D01*
X002025Y002960D01*
X002229Y003015D01*
X002528Y003187D01*
X002771Y003431D01*
X002944Y003730D01*
X003033Y004063D01*
X003033Y004408D01*
X002944Y004741D01*
X002771Y005040D01*
X002528Y005284D01*
X002229Y005456D01*
X001896Y005545D01*
X001551Y005545D01*
X001218Y005456D01*
X000919Y005284D01*
X000675Y005040D01*
X000555Y004832D01*
X000555Y013088D01*
X000675Y012880D01*
X000919Y012636D01*
X001218Y012464D01*
X001551Y012375D01*
X001896Y012375D01*
X002305Y012508D02*
X004618Y012508D01*
X004618Y012606D02*
X002475Y012606D01*
X002596Y012705D02*
X004618Y012705D01*
X004618Y012803D02*
X002694Y012803D01*
X002784Y012902D02*
X004618Y012902D01*
X004618Y013000D02*
X002841Y013000D01*
X002898Y013099D02*
X004618Y013099D01*
X004618Y013197D02*
X004105Y013197D01*
X004039Y013170D02*
X004208Y013240D01*
X004338Y013369D01*
X004408Y013538D01*
X004408Y014381D01*
X004338Y014551D01*
X004208Y014680D01*
X004039Y014750D01*
X003856Y014750D01*
X003687Y014680D01*
X003558Y014551D01*
X003488Y014381D01*
X003488Y013538D01*
X003558Y013369D01*
X003687Y013240D01*
X003856Y013170D01*
X004039Y013170D01*
X004264Y013296D02*
X004618Y013296D01*
X004547Y013394D02*
X004348Y013394D01*
X004389Y013493D02*
X004507Y013493D01*
X004488Y013592D02*
X004408Y013592D01*
X004408Y013690D02*
X004488Y013690D01*
X004488Y013789D02*
X004408Y013789D01*
X004408Y013887D02*
X004488Y013887D01*
X004488Y013986D02*
X004408Y013986D01*
X004408Y014084D02*
X004488Y014084D01*
X004488Y014183D02*
X004408Y014183D01*
X004408Y014281D02*
X004488Y014281D01*
X004488Y014380D02*
X004408Y014380D01*
X004368Y014478D02*
X004528Y014478D01*
X004584Y014577D02*
X004311Y014577D01*
X004213Y014676D02*
X004683Y014676D01*
X005213Y014676D02*
X005683Y014676D01*
X005584Y014577D02*
X005311Y014577D01*
X005368Y014478D02*
X005528Y014478D01*
X005488Y014380D02*
X005408Y014380D01*
X005408Y014281D02*
X005488Y014281D01*
X005488Y014183D02*
X005408Y014183D01*
X005408Y014084D02*
X005488Y014084D01*
X005488Y013986D02*
X005408Y013986D01*
X005408Y013887D02*
X005488Y013887D01*
X005488Y013789D02*
X005408Y013789D01*
X005408Y013690D02*
X005488Y013690D01*
X005488Y013592D02*
X005408Y013592D01*
X005389Y013493D02*
X005507Y013493D01*
X005547Y013394D02*
X005348Y013394D01*
X003790Y013197D02*
X002949Y013197D01*
X002975Y013296D02*
X003631Y013296D01*
X003547Y013394D02*
X003002Y013394D01*
X003028Y013493D02*
X003507Y013493D01*
X003488Y013592D02*
X003033Y013592D01*
X003033Y013690D02*
X003488Y013690D01*
X003488Y013789D02*
X003033Y013789D01*
X003025Y013887D02*
X003488Y013887D01*
X003488Y013986D02*
X002999Y013986D01*
X002972Y014084D02*
X003488Y014084D01*
X003488Y014183D02*
X002946Y014183D01*
X002891Y014281D02*
X003488Y014281D01*
X003488Y014380D02*
X002834Y014380D01*
X002777Y014478D02*
X003528Y014478D01*
X003584Y014577D02*
X002683Y014577D01*
X002585Y014676D02*
X003683Y014676D01*
X002765Y015464D02*
X014227Y015464D01*
X014129Y015562D02*
X013690Y015562D01*
X013206Y015562D02*
X002822Y015562D01*
X002879Y015661D02*
X013096Y015661D01*
X013033Y015759D02*
X002927Y015759D01*
X002953Y015858D02*
X012992Y015858D01*
X012988Y015957D02*
X002980Y015957D01*
X003006Y016055D02*
X012989Y016055D01*
X013030Y016154D02*
X003009Y016154D01*
X003009Y016252D02*
X013089Y016252D01*
X013189Y016351D02*
X003009Y016351D01*
X003001Y016449D02*
X016894Y016449D01*
X016886Y016351D02*
X013706Y016351D01*
X014354Y016252D02*
X016886Y016252D01*
X016886Y016154D02*
X014471Y016154D01*
X014569Y016055D02*
X016889Y016055D01*
X016916Y015957D02*
X014668Y015957D01*
X014766Y015858D02*
X016942Y015858D01*
X016969Y015759D02*
X014865Y015759D01*
X014963Y015661D02*
X017016Y015661D01*
X017073Y015562D02*
X015012Y015562D01*
X015028Y015464D02*
X017130Y015464D01*
X017213Y015365D02*
X015985Y015365D01*
X015870Y015365D02*
X015813Y015365D01*
X015813Y015267D02*
X015870Y015267D01*
X015870Y015168D02*
X015813Y015168D01*
X015813Y015070D02*
X015870Y015070D01*
X015870Y014971D02*
X017827Y014971D01*
X017589Y015070D02*
X016258Y015070D01*
X016218Y015168D02*
X017419Y015168D01*
X017312Y015267D02*
X016143Y015267D01*
X016263Y014873D02*
X019340Y014873D01*
X019340Y014971D02*
X018604Y014971D01*
X018841Y015070D02*
X019340Y015070D01*
X019340Y015168D02*
X019012Y015168D01*
X019119Y015267D02*
X019340Y015267D01*
X019340Y015365D02*
X019218Y015365D01*
X019300Y015464D02*
X019340Y015464D01*
X019340Y014774D02*
X016229Y014774D01*
X016165Y014676D02*
X019340Y014676D01*
X019340Y014577D02*
X016037Y014577D01*
X015870Y014577D02*
X015813Y014577D01*
X015813Y014676D02*
X015870Y014676D01*
X015870Y014774D02*
X015813Y014774D01*
X015813Y014873D02*
X015870Y014873D01*
X015646Y014577D02*
X015201Y014577D01*
X015349Y014676D02*
X015518Y014676D01*
X015454Y014774D02*
X015421Y014774D01*
X015412Y015168D02*
X015465Y015168D01*
X015540Y015267D02*
X015327Y015267D01*
X015147Y015365D02*
X015697Y015365D01*
X015028Y014478D02*
X019340Y014478D01*
X019340Y014380D02*
X015028Y014380D01*
X015028Y014281D02*
X019340Y014281D01*
X019340Y014183D02*
X015028Y014183D01*
X015028Y014084D02*
X019340Y014084D01*
X019340Y013986D02*
X015028Y013986D01*
X015028Y013887D02*
X019340Y013887D01*
X019340Y013789D02*
X015028Y013789D01*
X015028Y013690D02*
X019340Y013690D01*
X019340Y013592D02*
X015028Y013592D01*
X015028Y013493D02*
X019340Y013493D01*
X019340Y013394D02*
X015028Y013394D01*
X015028Y013296D02*
X019340Y013296D01*
X019340Y013197D02*
X015028Y013197D01*
X015028Y013099D02*
X019340Y013099D01*
X019340Y013000D02*
X015028Y013000D01*
X015028Y012902D02*
X019340Y012902D01*
X019340Y012803D02*
X015028Y012803D01*
X015028Y012705D02*
X019340Y012705D01*
X019340Y012606D02*
X015028Y012606D01*
X015171Y012508D02*
X019340Y012508D01*
X019340Y012409D02*
X015269Y012409D01*
X015350Y012310D02*
X019340Y012310D01*
X019340Y012212D02*
X015391Y012212D01*
X015432Y012113D02*
X019340Y012113D01*
X019340Y012015D02*
X015453Y012015D01*
X015453Y011916D02*
X019340Y011916D01*
X019340Y011818D02*
X015453Y011818D01*
X015435Y011719D02*
X019340Y011719D01*
X018645Y011621D02*
X018545Y011621D01*
X018545Y011522D02*
X018645Y011522D01*
X018645Y011424D02*
X018545Y011424D01*
X018545Y011325D02*
X018645Y011325D01*
X018645Y011226D02*
X018545Y011226D01*
X018545Y011128D02*
X018645Y011128D01*
X018645Y011029D02*
X018545Y011029D01*
X018545Y010931D02*
X015028Y010931D01*
X015028Y011029D02*
X017820Y011029D01*
X017820Y011128D02*
X015028Y011128D01*
X015028Y011226D02*
X017820Y011226D01*
X017820Y011325D02*
X015178Y011325D01*
X015276Y011424D02*
X017820Y011424D01*
X017820Y011522D02*
X015353Y011522D01*
X015394Y011621D02*
X017836Y011621D01*
X017820Y010832D02*
X015028Y010832D01*
X015028Y010734D02*
X017820Y010734D01*
X017820Y010635D02*
X015028Y010635D01*
X015028Y010537D02*
X017820Y010537D01*
X017820Y010438D02*
X015028Y010438D01*
X015005Y010340D02*
X017820Y010340D01*
X017833Y010241D02*
X014945Y010241D01*
X014847Y010143D02*
X019340Y010143D01*
X019340Y010044D02*
X014748Y010044D01*
X014650Y009945D02*
X019340Y009945D01*
X019340Y009847D02*
X014551Y009847D01*
X014546Y009722D02*
X014448Y009695D01*
X014354Y009657D01*
X014266Y009606D01*
X014186Y009544D01*
X014114Y009472D01*
X014052Y009391D01*
X014001Y009304D01*
X013962Y009210D01*
X013936Y009111D01*
X013923Y009011D01*
X013923Y009010D01*
X014648Y009010D01*
X014648Y009735D01*
X014647Y009735D01*
X014546Y009722D01*
X014453Y009748D02*
X019340Y009748D01*
X019340Y009650D02*
X015053Y009650D01*
X015041Y009657D02*
X014947Y009695D01*
X014849Y009722D01*
X014749Y009735D01*
X014748Y009735D01*
X014748Y009010D01*
X015473Y009010D01*
X015473Y009011D01*
X015459Y009111D01*
X015433Y009210D01*
X015394Y009304D01*
X015343Y009391D01*
X015282Y009472D01*
X015210Y009544D01*
X015129Y009606D01*
X015041Y009657D01*
X015200Y009551D02*
X019340Y009551D01*
X019340Y009453D02*
X015296Y009453D01*
X015365Y009354D02*
X019340Y009354D01*
X019340Y009256D02*
X015414Y009256D01*
X015447Y009157D02*
X019340Y009157D01*
X019340Y009059D02*
X015466Y009059D01*
X015473Y008910D02*
X014748Y008910D01*
X014748Y009010D01*
X014648Y009010D01*
X014648Y008910D01*
X014748Y008910D01*
X014748Y008185D01*
X014749Y008185D01*
X014849Y008198D01*
X014947Y008225D01*
X015041Y008263D01*
X015129Y008314D01*
X015210Y008376D01*
X015282Y008448D01*
X015343Y008529D01*
X015394Y008616D01*
X015433Y008710D01*
X015459Y008808D01*
X015473Y008909D01*
X015473Y008910D01*
X015466Y008861D02*
X019340Y008861D01*
X019340Y008763D02*
X015447Y008763D01*
X015414Y008664D02*
X019340Y008664D01*
X019340Y008566D02*
X015365Y008566D01*
X015296Y008467D02*
X019340Y008467D01*
X019340Y008369D02*
X015200Y008369D01*
X015053Y008270D02*
X019340Y008270D01*
X019340Y008172D02*
X012703Y008172D01*
X012635Y008240D02*
X012513Y008290D01*
X012382Y008290D01*
X012083Y008290D01*
X012023Y008350D01*
X011854Y008420D01*
X011671Y008420D01*
X011502Y008350D01*
X011442Y008290D01*
X005268Y008290D01*
X005208Y008350D01*
X005039Y008420D01*
X004856Y008420D01*
X004687Y008350D01*
X004558Y008221D01*
X004488Y008051D01*
X004488Y007868D01*
X004558Y007699D01*
X004687Y007570D01*
X004856Y007500D01*
X005039Y007500D01*
X005208Y007570D01*
X005268Y007630D01*
X011442Y007630D01*
X011502Y007570D01*
X011671Y007500D01*
X011854Y007500D01*
X012023Y007570D01*
X012083Y007630D01*
X012311Y007630D01*
X012368Y007573D01*
X012368Y005276D01*
X012368Y005144D01*
X012418Y005023D01*
X013118Y004323D01*
X013118Y002781D01*
X013058Y002721D01*
X012988Y002551D01*
X012988Y002368D01*
X013058Y002199D01*
X013187Y002070D01*
X013356Y002000D01*
X013539Y002000D01*
X013708Y002070D01*
X013838Y002199D01*
X013908Y002368D01*
X013908Y002551D01*
X013838Y002721D01*
X013778Y002781D01*
X013778Y004526D01*
X013727Y004647D01*
X013635Y004740D01*
X013374Y005000D01*
X013539Y005000D01*
X013708Y005070D01*
X013838Y005199D01*
X013908Y005368D01*
X013908Y005551D01*
X013838Y005721D01*
X013778Y005781D01*
X013778Y006236D01*
X013864Y006236D01*
X013999Y006292D01*
X013943Y006157D01*
X013943Y005857D01*
X014058Y005580D01*
X014270Y005367D01*
X014548Y005252D01*
X014848Y005252D01*
X015125Y005367D01*
X015338Y005580D01*
X015453Y005857D01*
X015453Y006157D01*
X015338Y006435D01*
X015125Y006647D01*
X014848Y006762D01*
X014548Y006762D01*
X014412Y006706D01*
X014468Y006841D01*
X014468Y007142D01*
X014354Y007419D01*
X014141Y007632D01*
X013864Y007746D01*
X013563Y007746D01*
X013286Y007632D01*
X013073Y007419D01*
X013028Y007309D01*
X013028Y007776D01*
X012977Y007897D01*
X012885Y007990D01*
X012635Y008240D01*
X012561Y008270D02*
X014342Y008270D01*
X014354Y008263D02*
X014448Y008225D01*
X014546Y008198D01*
X014647Y008185D01*
X014648Y008185D01*
X014648Y008910D01*
X013923Y008910D01*
X013923Y008909D01*
X013936Y008808D01*
X013962Y008710D01*
X014001Y008616D01*
X014052Y008529D01*
X014114Y008448D01*
X014186Y008376D01*
X014266Y008314D01*
X014354Y008263D01*
X014195Y008369D02*
X011978Y008369D01*
X012013Y008566D02*
X014030Y008566D01*
X013981Y008664D02*
X012118Y008664D01*
X012179Y008763D02*
X013948Y008763D01*
X013929Y008861D02*
X012220Y008861D01*
X012223Y008960D02*
X014648Y008960D01*
X014648Y009059D02*
X014748Y009059D01*
X014748Y009157D02*
X014648Y009157D01*
X014648Y009256D02*
X014748Y009256D01*
X014748Y009354D02*
X014648Y009354D01*
X014648Y009453D02*
X014748Y009453D01*
X014748Y009551D02*
X014648Y009551D01*
X014648Y009650D02*
X014748Y009650D01*
X014343Y009650D02*
X014311Y009650D01*
X014195Y009551D02*
X012017Y009551D01*
X012131Y009650D02*
X013084Y009650D01*
X012943Y009748D02*
X012194Y009748D01*
X012231Y009847D02*
X012844Y009847D01*
X012746Y009945D02*
X011801Y009945D01*
X011801Y009999D02*
X012242Y009999D01*
X012231Y010072D01*
X012207Y010144D01*
X012173Y010212D01*
X012129Y010273D01*
X012075Y010326D01*
X012014Y010371D01*
X011947Y010405D01*
X011875Y010428D01*
X011801Y010440D01*
X011801Y009999D01*
X011801Y010044D02*
X011724Y010044D01*
X011724Y010143D02*
X011801Y010143D01*
X011801Y010241D02*
X011724Y010241D01*
X011724Y010340D02*
X011801Y010340D01*
X011801Y010438D02*
X011724Y010438D01*
X011714Y010438D02*
X006278Y010438D01*
X006278Y009945D02*
X011724Y009945D01*
X011724Y009847D02*
X011801Y009847D01*
X011801Y009748D02*
X011724Y009748D01*
X011724Y009650D02*
X011801Y009650D01*
X011801Y009551D02*
X011724Y009551D01*
X012013Y009354D02*
X014030Y009354D01*
X013981Y009256D02*
X012118Y009256D01*
X012179Y009157D02*
X013948Y009157D01*
X013929Y009059D02*
X012220Y009059D01*
X011512Y008566D02*
X000555Y008566D01*
X000555Y008467D02*
X014099Y008467D01*
X014648Y008467D02*
X014748Y008467D01*
X014748Y008369D02*
X014648Y008369D01*
X014648Y008270D02*
X014748Y008270D01*
X014748Y008566D02*
X014648Y008566D01*
X014648Y008664D02*
X014748Y008664D01*
X014748Y008763D02*
X014648Y008763D01*
X014648Y008861D02*
X014748Y008861D01*
X014748Y008960D02*
X019340Y008960D01*
X019340Y008073D02*
X012801Y008073D01*
X012900Y007975D02*
X019340Y007975D01*
X019340Y007876D02*
X012986Y007876D01*
X013027Y007777D02*
X019340Y007777D01*
X018645Y007679D02*
X018545Y007679D01*
X018545Y007580D02*
X018645Y007580D01*
X018645Y007482D02*
X018545Y007482D01*
X018545Y007383D02*
X018645Y007383D01*
X018645Y007285D02*
X018545Y007285D01*
X018545Y007186D02*
X018645Y007186D01*
X018645Y007088D02*
X018545Y007088D01*
X018545Y006989D02*
X014468Y006989D01*
X014468Y006891D02*
X017820Y006891D01*
X017820Y006941D02*
X017820Y006347D01*
X017831Y006309D01*
X017850Y006274D01*
X017878Y006246D01*
X017912Y006227D01*
X017951Y006216D01*
X018545Y006216D01*
X018545Y006941D01*
X017820Y006941D01*
X017820Y007088D02*
X014468Y007088D01*
X014450Y007186D02*
X017820Y007186D01*
X017820Y007285D02*
X014409Y007285D01*
X014368Y007383D02*
X017820Y007383D01*
X017820Y007482D02*
X014291Y007482D01*
X014192Y007580D02*
X017820Y007580D01*
X017833Y007679D02*
X014027Y007679D01*
X013400Y007679D02*
X013028Y007679D01*
X013028Y007580D02*
X013235Y007580D01*
X013136Y007482D02*
X013028Y007482D01*
X013028Y007383D02*
X013059Y007383D01*
X012368Y007383D02*
X011943Y007383D01*
X012023Y007350D02*
X011854Y007420D01*
X011671Y007420D01*
X011502Y007350D01*
X011442Y007290D01*
X006268Y007290D01*
X006208Y007350D01*
X006039Y007420D01*
X005856Y007420D01*
X005687Y007350D01*
X005558Y007221D01*
X005488Y007051D01*
X005488Y006868D01*
X005558Y006699D01*
X005687Y006570D01*
X005856Y006500D01*
X006039Y006500D01*
X006208Y006570D01*
X006268Y006630D01*
X011442Y006630D01*
X011502Y006570D01*
X011671Y006500D01*
X011854Y006500D01*
X012023Y006570D01*
X012153Y006699D01*
X012223Y006868D01*
X012223Y007051D01*
X012153Y007221D01*
X012023Y007350D01*
X012088Y007285D02*
X012368Y007285D01*
X012368Y007186D02*
X012167Y007186D01*
X012208Y007088D02*
X012368Y007088D01*
X012368Y006989D02*
X012223Y006989D01*
X012223Y006891D02*
X012368Y006891D01*
X012368Y006792D02*
X012191Y006792D01*
X012147Y006694D02*
X012368Y006694D01*
X012368Y006595D02*
X012048Y006595D01*
X012368Y006496D02*
X000555Y006496D01*
X000555Y006398D02*
X012368Y006398D01*
X012368Y006299D02*
X000555Y006299D01*
X000555Y006201D02*
X012368Y006201D01*
X012368Y006102D02*
X000555Y006102D01*
X000555Y006004D02*
X012368Y006004D01*
X012368Y005905D02*
X000555Y005905D01*
X000555Y005807D02*
X012368Y005807D01*
X012368Y005708D02*
X000555Y005708D01*
X000555Y005610D02*
X012368Y005610D01*
X012368Y005511D02*
X011473Y005511D01*
X011345Y005545D02*
X011000Y005545D01*
X010667Y005456D01*
X010368Y005284D01*
X010124Y005040D01*
X009952Y004741D01*
X009862Y004408D01*
X009862Y004063D01*
X009952Y003730D01*
X010124Y003431D01*
X010368Y003187D01*
X010667Y003015D01*
X011000Y002926D01*
X011345Y002926D01*
X011678Y003015D01*
X011976Y003187D01*
X012220Y003431D01*
X012393Y003730D01*
X012482Y004063D01*
X012482Y004408D01*
X012393Y004741D01*
X012220Y005040D01*
X011976Y005284D01*
X011678Y005456D01*
X011345Y005545D01*
X011753Y005412D02*
X012368Y005412D01*
X012368Y005314D02*
X011924Y005314D01*
X012045Y005215D02*
X012368Y005215D01*
X012379Y005117D02*
X012143Y005117D01*
X012233Y005018D02*
X012423Y005018D01*
X012521Y004920D02*
X012290Y004920D01*
X012346Y004821D02*
X012620Y004821D01*
X012718Y004723D02*
X012398Y004723D01*
X012424Y004624D02*
X012817Y004624D01*
X012915Y004526D02*
X012450Y004526D01*
X012477Y004427D02*
X013014Y004427D01*
X013113Y004328D02*
X012482Y004328D01*
X012482Y004230D02*
X013118Y004230D01*
X013118Y004131D02*
X012482Y004131D01*
X012474Y004033D02*
X013118Y004033D01*
X013118Y003934D02*
X012447Y003934D01*
X012421Y003836D02*
X013118Y003836D01*
X013118Y003737D02*
X012395Y003737D01*
X012340Y003639D02*
X013118Y003639D01*
X013118Y003540D02*
X012283Y003540D01*
X012226Y003442D02*
X013118Y003442D01*
X013118Y003343D02*
X012132Y003343D01*
X012033Y003244D02*
X013118Y003244D01*
X013118Y003146D02*
X011904Y003146D01*
X011734Y003047D02*
X013118Y003047D01*
X013118Y002949D02*
X011431Y002949D01*
X010913Y002949D02*
X002068Y002949D01*
X002285Y003047D02*
X010610Y003047D01*
X010440Y003146D02*
X002456Y003146D01*
X002585Y003244D02*
X003662Y003244D01*
X003635Y003264D02*
X003696Y003219D01*
X003763Y003185D01*
X003835Y003162D01*
X003909Y003150D01*
X003909Y003921D01*
X003986Y003921D01*
X003986Y003150D01*
X004060Y003162D01*
X004132Y003185D01*
X004199Y003219D01*
X004260Y003264D01*
X004314Y003317D01*
X004358Y003378D01*
X004393Y003446D01*
X004416Y003518D01*
X004428Y003592D01*
X004428Y003921D01*
X003987Y003921D01*
X003987Y003999D01*
X004428Y003999D01*
X004428Y004328D01*
X004416Y004402D01*
X004393Y004474D01*
X004358Y004542D01*
X004314Y004603D01*
X004260Y004656D01*
X004199Y004701D01*
X004132Y004735D01*
X004060Y004758D01*
X003986Y004770D01*
X003986Y003999D01*
X003909Y003999D01*
X003909Y004770D01*
X003835Y004758D01*
X003763Y004735D01*
X003696Y004701D01*
X003635Y004656D01*
X003582Y004603D01*
X003537Y004542D01*
X003503Y004474D01*
X003480Y004402D01*
X003468Y004328D01*
X003468Y003999D01*
X003909Y003999D01*
X003909Y003921D01*
X003468Y003921D01*
X003468Y003592D01*
X003480Y003518D01*
X003503Y003446D01*
X003537Y003378D01*
X003582Y003317D01*
X003635Y003264D01*
X003563Y003343D02*
X002683Y003343D01*
X002777Y003442D02*
X003505Y003442D01*
X003476Y003540D02*
X002834Y003540D01*
X002891Y003639D02*
X003468Y003639D01*
X003468Y003737D02*
X002946Y003737D01*
X002972Y003836D02*
X003468Y003836D01*
X003468Y004033D02*
X003025Y004033D01*
X003033Y004131D02*
X003468Y004131D01*
X003468Y004230D02*
X003033Y004230D01*
X003033Y004328D02*
X003468Y004328D01*
X003488Y004427D02*
X003028Y004427D01*
X003002Y004526D02*
X003529Y004526D01*
X003603Y004624D02*
X002975Y004624D01*
X002949Y004723D02*
X003740Y004723D01*
X003909Y004723D02*
X003986Y004723D01*
X003986Y004624D02*
X003909Y004624D01*
X003909Y004526D02*
X003986Y004526D01*
X003986Y004427D02*
X003909Y004427D01*
X003909Y004328D02*
X003986Y004328D01*
X003986Y004230D02*
X003909Y004230D01*
X003909Y004131D02*
X003986Y004131D01*
X003986Y004033D02*
X003909Y004033D01*
X003909Y003934D02*
X002999Y003934D01*
X002898Y004821D02*
X009998Y004821D01*
X009947Y004723D02*
X005105Y004723D01*
X005039Y004750D02*
X004856Y004750D01*
X004687Y004680D01*
X004558Y004551D01*
X004488Y004381D01*
X004488Y003538D01*
X004558Y003369D01*
X004687Y003240D01*
X004856Y003170D01*
X005039Y003170D01*
X005208Y003240D01*
X005338Y003369D01*
X005408Y003538D01*
X005408Y003630D01*
X005627Y003630D01*
X005687Y003570D01*
X005856Y003500D01*
X006039Y003500D01*
X006208Y003570D01*
X006338Y003699D01*
X006408Y003868D01*
X006408Y004051D01*
X006338Y004221D01*
X006208Y004350D01*
X006039Y004420D01*
X005856Y004420D01*
X005687Y004350D01*
X005627Y004290D01*
X005408Y004290D01*
X005408Y004381D01*
X005338Y004551D01*
X005208Y004680D01*
X005039Y004750D01*
X005264Y004624D02*
X009920Y004624D01*
X009894Y004526D02*
X005348Y004526D01*
X005389Y004427D02*
X009867Y004427D01*
X009862Y004328D02*
X006230Y004328D01*
X006328Y004230D02*
X009862Y004230D01*
X009862Y004131D02*
X006375Y004131D01*
X006408Y004033D02*
X009870Y004033D01*
X009897Y003934D02*
X006408Y003934D01*
X006394Y003836D02*
X009923Y003836D01*
X009950Y003737D02*
X006353Y003737D01*
X006277Y003639D02*
X010004Y003639D01*
X010061Y003540D02*
X006136Y003540D01*
X005759Y003540D02*
X005408Y003540D01*
X005368Y003442D02*
X010118Y003442D01*
X010212Y003343D02*
X005311Y003343D01*
X005213Y003244D02*
X010311Y003244D01*
X010055Y004920D02*
X002841Y004920D01*
X002784Y005018D02*
X010112Y005018D01*
X010201Y005117D02*
X002694Y005117D01*
X002596Y005215D02*
X010299Y005215D01*
X010420Y005314D02*
X002475Y005314D01*
X002305Y005412D02*
X010591Y005412D01*
X010871Y005511D02*
X002024Y005511D01*
X001422Y005511D02*
X000555Y005511D01*
X000555Y005412D02*
X001142Y005412D01*
X000971Y005314D02*
X000555Y005314D01*
X000555Y005215D02*
X000851Y005215D01*
X000752Y005117D02*
X000555Y005117D01*
X000555Y005018D02*
X000663Y005018D01*
X000606Y004920D02*
X000555Y004920D01*
X000555Y006595D02*
X005662Y006595D01*
X005564Y006694D02*
X000555Y006694D01*
X000555Y006792D02*
X005519Y006792D01*
X005488Y006891D02*
X000555Y006891D01*
X000555Y006989D02*
X005488Y006989D01*
X005503Y007088D02*
X000555Y007088D01*
X000555Y007186D02*
X005544Y007186D01*
X005622Y007285D02*
X000555Y007285D01*
X000555Y007383D02*
X005768Y007383D01*
X006128Y007383D02*
X011583Y007383D01*
X011492Y007580D02*
X005219Y007580D01*
X004677Y007580D02*
X000555Y007580D01*
X000555Y007482D02*
X012368Y007482D01*
X012361Y007580D02*
X012034Y007580D01*
X011548Y008369D02*
X005163Y008369D01*
X004733Y008369D02*
X000555Y008369D01*
X000555Y008270D02*
X004607Y008270D01*
X004538Y008172D02*
X000555Y008172D01*
X000555Y008073D02*
X004497Y008073D01*
X004488Y007975D02*
X000555Y007975D01*
X000555Y007876D02*
X004488Y007876D01*
X004525Y007777D02*
X000555Y007777D01*
X000555Y007679D02*
X004578Y007679D01*
X006233Y006595D02*
X011477Y006595D01*
X013455Y004920D02*
X019340Y004920D01*
X019340Y005018D02*
X013583Y005018D01*
X013755Y005117D02*
X019340Y005117D01*
X019340Y005215D02*
X013844Y005215D01*
X013885Y005314D02*
X014399Y005314D01*
X014225Y005412D02*
X013908Y005412D01*
X013908Y005511D02*
X014126Y005511D01*
X014045Y005610D02*
X013884Y005610D01*
X013843Y005708D02*
X014004Y005708D01*
X013964Y005807D02*
X013778Y005807D01*
X013778Y005905D02*
X013943Y005905D01*
X013943Y006004D02*
X013778Y006004D01*
X013778Y006102D02*
X013943Y006102D01*
X013961Y006201D02*
X013778Y006201D01*
X014448Y006792D02*
X017820Y006792D01*
X017820Y006694D02*
X015014Y006694D01*
X015178Y006595D02*
X017820Y006595D01*
X017820Y006496D02*
X015276Y006496D01*
X015353Y006398D02*
X017820Y006398D01*
X017836Y006299D02*
X015394Y006299D01*
X015435Y006201D02*
X019340Y006201D01*
X019340Y006102D02*
X015453Y006102D01*
X015453Y006004D02*
X019340Y006004D01*
X019340Y005905D02*
X015453Y005905D01*
X015432Y005807D02*
X019340Y005807D01*
X019340Y005708D02*
X015391Y005708D01*
X015350Y005610D02*
X019340Y005610D01*
X019340Y005511D02*
X015269Y005511D01*
X015171Y005412D02*
X019340Y005412D01*
X019340Y005314D02*
X014997Y005314D01*
X013737Y004624D02*
X019340Y004624D01*
X019340Y004526D02*
X013778Y004526D01*
X013778Y004427D02*
X019340Y004427D01*
X019340Y004328D02*
X013778Y004328D01*
X013778Y004230D02*
X019340Y004230D01*
X019340Y004131D02*
X013778Y004131D01*
X013778Y004033D02*
X019340Y004033D01*
X019340Y003934D02*
X013778Y003934D01*
X013778Y003836D02*
X019340Y003836D01*
X019340Y003737D02*
X013778Y003737D01*
X013778Y003639D02*
X019340Y003639D01*
X019340Y003540D02*
X013778Y003540D01*
X013778Y003442D02*
X019340Y003442D01*
X019340Y003343D02*
X013778Y003343D01*
X013778Y003244D02*
X019340Y003244D01*
X019340Y003146D02*
X013778Y003146D01*
X013778Y003047D02*
X019340Y003047D01*
X019340Y002949D02*
X018604Y002949D01*
X018841Y002850D02*
X019340Y002850D01*
X019340Y002752D02*
X019012Y002752D01*
X019119Y002653D02*
X019340Y002653D01*
X019340Y002555D02*
X019217Y002555D01*
X019301Y002456D02*
X019340Y002456D01*
X017827Y002949D02*
X013778Y002949D01*
X013778Y002850D02*
X017589Y002850D01*
X017419Y002752D02*
X013806Y002752D01*
X013866Y002653D02*
X017312Y002653D01*
X017213Y002555D02*
X013906Y002555D01*
X013908Y002456D02*
X017130Y002456D01*
X017073Y002358D02*
X013903Y002358D01*
X013862Y002259D02*
X017017Y002259D01*
X016969Y002161D02*
X013799Y002161D01*
X013689Y002062D02*
X016942Y002062D01*
X016916Y001963D02*
X002980Y001963D01*
X003006Y001865D02*
X004232Y001865D01*
X004157Y001766D02*
X003009Y001766D01*
X003009Y001668D02*
X003254Y001668D01*
X003237Y001569D02*
X003009Y001569D01*
X003001Y001471D02*
X003237Y001471D01*
X003237Y001372D02*
X002975Y001372D01*
X002948Y001274D02*
X003237Y001274D01*
X003086Y001190D02*
X003086Y001190D01*
X002931Y001175D02*
X002922Y001175D01*
X002919Y001163D02*
X002919Y001163D01*
X002953Y002062D02*
X013207Y002062D01*
X013097Y002161D02*
X002927Y002161D01*
X002879Y002259D02*
X013033Y002259D01*
X012992Y002358D02*
X002822Y002358D01*
X002765Y002456D02*
X012988Y002456D01*
X012989Y002555D02*
X002682Y002555D01*
X002584Y002653D02*
X013030Y002653D01*
X013089Y002752D02*
X002477Y002752D01*
X002306Y002850D02*
X013118Y002850D01*
X013652Y004723D02*
X019340Y004723D01*
X019340Y004821D02*
X013553Y004821D01*
X016889Y001865D02*
X004704Y001865D01*
X004778Y001766D02*
X016886Y001766D01*
X016886Y001668D02*
X004778Y001668D01*
X004778Y001569D02*
X016886Y001569D01*
X016894Y001471D02*
X004778Y001471D01*
X004778Y001372D02*
X016921Y001372D01*
X016947Y001274D02*
X006332Y001274D01*
X006388Y001175D02*
X016973Y001175D01*
X017027Y001077D02*
X006388Y001077D01*
X006388Y000978D02*
X017084Y000978D01*
X017140Y000879D02*
X006388Y000879D01*
X006388Y000781D02*
X017231Y000781D01*
X017329Y000682D02*
X006388Y000682D01*
X006388Y000584D02*
X017449Y000584D01*
X018545Y006299D02*
X018645Y006299D01*
X018645Y006398D02*
X018545Y006398D01*
X018545Y006496D02*
X018645Y006496D01*
X018645Y006595D02*
X018545Y006595D01*
X018545Y006694D02*
X018645Y006694D01*
X018645Y006792D02*
X018545Y006792D01*
X018545Y006891D02*
X018645Y006891D01*
X018645Y010241D02*
X018545Y010241D01*
X018545Y010340D02*
X018645Y010340D01*
X018645Y010438D02*
X018545Y010438D01*
X018545Y010537D02*
X018645Y010537D01*
X018645Y010635D02*
X018545Y010635D01*
X018545Y010734D02*
X018645Y010734D01*
X018645Y010832D02*
X018545Y010832D01*
X014368Y012606D02*
X013778Y012606D01*
X013778Y012508D02*
X014225Y012508D01*
X014126Y012409D02*
X013778Y012409D01*
X013778Y012310D02*
X014045Y012310D01*
X014004Y012212D02*
X013778Y012212D01*
X013778Y012113D02*
X013964Y012113D01*
X013943Y012015D02*
X013778Y012015D01*
X013778Y011916D02*
X013943Y011916D01*
X013943Y011818D02*
X013778Y011818D01*
X013778Y011719D02*
X013961Y011719D01*
X013061Y011325D02*
X012048Y011325D01*
X012398Y011226D02*
X013020Y011226D01*
X012979Y011128D02*
X012496Y011128D01*
X012595Y011029D02*
X012958Y011029D01*
X012958Y010931D02*
X012693Y010931D01*
X012792Y010832D02*
X012958Y010832D01*
X012977Y010734D02*
X012891Y010734D01*
X012989Y010635D02*
X013018Y010635D01*
X012450Y010241D02*
X012152Y010241D01*
X012208Y010143D02*
X012549Y010143D01*
X012647Y010044D02*
X012235Y010044D01*
X012351Y010340D02*
X012057Y010340D01*
X012253Y010438D02*
X011812Y010438D01*
X011943Y010537D02*
X012154Y010537D01*
X014099Y009453D02*
X006422Y009453D01*
X001422Y012409D02*
X000555Y012409D01*
X000555Y012508D02*
X001142Y012508D01*
X000971Y012606D02*
X000555Y012606D01*
X000555Y012705D02*
X000851Y012705D01*
X000752Y012803D02*
X000555Y012803D01*
X000555Y012902D02*
X000663Y012902D01*
X000606Y013000D02*
X000555Y013000D01*
X002456Y014774D02*
X010440Y014774D01*
X010611Y014873D02*
X002285Y014873D01*
X002306Y015070D02*
X014368Y015070D01*
X014368Y015168D02*
X002477Y015168D01*
X002584Y015267D02*
X014368Y015267D01*
X014326Y015365D02*
X002682Y015365D01*
X002069Y014971D02*
X010914Y014971D01*
X011431Y014971D02*
X014368Y014971D01*
X014368Y014873D02*
X011734Y014873D01*
X011904Y014774D02*
X014368Y014774D01*
X014368Y014676D02*
X012033Y014676D01*
X012132Y014577D02*
X014368Y014577D01*
X014368Y014478D02*
X012226Y014478D01*
X012283Y014380D02*
X014368Y014380D01*
X014368Y014281D02*
X012340Y014281D01*
X012395Y014183D02*
X014368Y014183D01*
X014368Y014084D02*
X012421Y014084D01*
X012447Y013986D02*
X014368Y013986D01*
X014368Y013887D02*
X012474Y013887D01*
X012482Y013789D02*
X014368Y013789D01*
X014368Y013690D02*
X012482Y013690D01*
X012482Y013592D02*
X014368Y013592D01*
X014368Y013493D02*
X012477Y013493D01*
X012450Y013394D02*
X013295Y013394D01*
X013133Y013296D02*
X012424Y013296D01*
X012398Y013197D02*
X013048Y013197D01*
X013007Y013099D02*
X012346Y013099D01*
X012290Y013000D02*
X012988Y013000D01*
X012988Y012902D02*
X012233Y012902D01*
X012143Y012803D02*
X013015Y012803D01*
X013056Y012705D02*
X012045Y012705D01*
X011924Y012606D02*
X013118Y012606D01*
X013118Y012508D02*
X011753Y012508D01*
X011473Y012409D02*
X013118Y012409D01*
X013840Y012705D02*
X014368Y012705D01*
X014368Y012803D02*
X013881Y012803D01*
X013908Y012902D02*
X014368Y012902D01*
X014368Y013000D02*
X013908Y013000D01*
X013888Y013099D02*
X014368Y013099D01*
X014368Y013197D02*
X013847Y013197D01*
X013762Y013296D02*
X014368Y013296D01*
X014368Y013394D02*
X013601Y013394D01*
X016921Y016548D02*
X002975Y016548D01*
X002948Y016646D02*
X003298Y016646D01*
X003215Y016745D02*
X002922Y016745D01*
X002869Y016843D02*
X003031Y016843D01*
X003035Y016840D02*
X003035Y016840D01*
X003105Y016770D02*
X003105Y016770D01*
X003105Y016770D01*
X002935Y016942D02*
X002812Y016942D01*
X002755Y017041D02*
X002935Y017041D01*
X002935Y017081D02*
X002935Y017081D01*
X002935Y017139D02*
X002665Y017139D01*
X002566Y017238D02*
X002952Y017238D01*
X003051Y017336D02*
X002446Y017336D01*
X003472Y016646D02*
X003549Y016646D01*
X003862Y016646D02*
X003939Y016646D01*
X004393Y016646D02*
X004469Y016646D01*
X004783Y016646D02*
X005390Y016646D01*
X005291Y016745D02*
X004882Y016745D01*
X005704Y016646D02*
X005791Y016646D01*
X005966Y016646D02*
X006049Y016646D01*
X006223Y016646D02*
X006241Y016646D01*
X006414Y016646D02*
X006521Y016646D01*
X006694Y016646D02*
X016947Y016646D01*
X016973Y016745D02*
X006778Y016745D01*
X006778Y016843D02*
X017027Y016843D01*
X017084Y016942D02*
X006778Y016942D01*
X006778Y017041D02*
X017140Y017041D01*
X017231Y017139D02*
X006778Y017139D01*
X006778Y017238D02*
X017329Y017238D01*
X017449Y017336D02*
X006732Y017336D01*
X004790Y004723D02*
X004156Y004723D01*
X004292Y004624D02*
X004631Y004624D01*
X004547Y004526D02*
X004366Y004526D01*
X004408Y004427D02*
X004507Y004427D01*
X004488Y004328D02*
X004428Y004328D01*
X004428Y004230D02*
X004488Y004230D01*
X004488Y004131D02*
X004428Y004131D01*
X004428Y004033D02*
X004488Y004033D01*
X004488Y003934D02*
X003987Y003934D01*
X003986Y003836D02*
X003909Y003836D01*
X003909Y003737D02*
X003986Y003737D01*
X003986Y003639D02*
X003909Y003639D01*
X003909Y003540D02*
X003986Y003540D01*
X003986Y003442D02*
X003909Y003442D01*
X003909Y003343D02*
X003986Y003343D01*
X003986Y003244D02*
X003909Y003244D01*
X004234Y003244D02*
X004683Y003244D01*
X004584Y003343D02*
X004333Y003343D01*
X004390Y003442D02*
X004528Y003442D01*
X004488Y003540D02*
X004419Y003540D01*
X004428Y003639D02*
X004488Y003639D01*
X004488Y003737D02*
X004428Y003737D01*
X004428Y003836D02*
X004488Y003836D01*
X005408Y004328D02*
X005666Y004328D01*
X004512Y001865D02*
X004423Y001865D01*
X004778Y001274D02*
X004863Y001274D01*
X004808Y001175D02*
X004723Y001175D01*
X004708Y001091D02*
X004708Y001091D01*
X004722Y001077D02*
X004833Y001077D01*
X004778Y000978D02*
X004932Y000978D01*
X005030Y000879D02*
X004777Y000879D01*
X004679Y000781D02*
X004971Y000781D01*
X004872Y000682D02*
X004766Y000682D01*
X004778Y000584D02*
X004808Y000584D01*
X006032Y001274D02*
X006163Y001274D01*
D19*
X006248Y001160D02*
X005948Y000860D01*
X006248Y000560D01*
X006248Y001160D01*
X006248Y001153D02*
X006241Y001153D01*
X006248Y001135D02*
X006222Y001135D01*
X006204Y001116D02*
X006248Y001116D01*
X006248Y001098D02*
X006185Y001098D01*
X006167Y001079D02*
X006248Y001079D01*
X006248Y001061D02*
X006148Y001061D01*
X006130Y001042D02*
X006248Y001042D01*
X006248Y001023D02*
X006111Y001023D01*
X006093Y001005D02*
X006248Y001005D01*
X006248Y000986D02*
X006074Y000986D01*
X006056Y000968D02*
X006248Y000968D01*
X006248Y000949D02*
X006037Y000949D01*
X006018Y000931D02*
X006248Y000931D01*
X006248Y000912D02*
X006000Y000912D01*
X005981Y000894D02*
X006248Y000894D01*
X006248Y000875D02*
X005963Y000875D01*
X005948Y000875D02*
X005933Y000875D01*
X005948Y000860D02*
X005948Y000560D01*
X005648Y000560D01*
X005948Y000860D01*
X005948Y001160D01*
X005648Y001160D01*
X005948Y000860D01*
X005948Y000857D02*
X005944Y000857D01*
X005951Y000857D02*
X006248Y000857D01*
X006248Y000838D02*
X005970Y000838D01*
X005948Y000838D02*
X005926Y000838D01*
X005907Y000819D02*
X005948Y000819D01*
X005948Y000801D02*
X005889Y000801D01*
X005870Y000782D02*
X005948Y000782D01*
X005948Y000764D02*
X005852Y000764D01*
X005833Y000745D02*
X005948Y000745D01*
X005948Y000727D02*
X005814Y000727D01*
X005796Y000708D02*
X005948Y000708D01*
X005948Y000690D02*
X005777Y000690D01*
X005759Y000671D02*
X005948Y000671D01*
X005948Y000653D02*
X005740Y000653D01*
X005722Y000634D02*
X005948Y000634D01*
X005948Y000616D02*
X005703Y000616D01*
X005685Y000597D02*
X005948Y000597D01*
X005948Y000578D02*
X005666Y000578D01*
X005548Y000560D02*
X005248Y000860D01*
X004948Y001160D01*
X005548Y001160D01*
X005248Y000860D01*
X004948Y000560D01*
X005548Y000560D01*
X005529Y000578D02*
X004966Y000578D01*
X004985Y000597D02*
X005511Y000597D01*
X005492Y000616D02*
X005003Y000616D01*
X005022Y000634D02*
X005474Y000634D01*
X005455Y000653D02*
X005040Y000653D01*
X005059Y000671D02*
X005437Y000671D01*
X005418Y000690D02*
X005077Y000690D01*
X005096Y000708D02*
X005399Y000708D01*
X005381Y000727D02*
X005114Y000727D01*
X005133Y000745D02*
X005362Y000745D01*
X005344Y000764D02*
X005152Y000764D01*
X005170Y000782D02*
X005325Y000782D01*
X005307Y000801D02*
X005189Y000801D01*
X005207Y000819D02*
X005288Y000819D01*
X005270Y000838D02*
X005226Y000838D01*
X005244Y000857D02*
X005251Y000857D01*
X005263Y000875D02*
X005233Y000875D01*
X005214Y000894D02*
X005281Y000894D01*
X005300Y000912D02*
X005196Y000912D01*
X005177Y000931D02*
X005318Y000931D01*
X005337Y000949D02*
X005158Y000949D01*
X005140Y000968D02*
X005356Y000968D01*
X005374Y000986D02*
X005121Y000986D01*
X005103Y001005D02*
X005393Y001005D01*
X005411Y001023D02*
X005084Y001023D01*
X005066Y001042D02*
X005430Y001042D01*
X005448Y001061D02*
X005047Y001061D01*
X005029Y001079D02*
X005467Y001079D01*
X005485Y001098D02*
X005010Y001098D01*
X004992Y001116D02*
X005504Y001116D01*
X005522Y001135D02*
X004973Y001135D01*
X004954Y001153D02*
X005541Y001153D01*
X005654Y001153D02*
X005948Y001153D01*
X005948Y001135D02*
X005673Y001135D01*
X005692Y001116D02*
X005948Y001116D01*
X005948Y001098D02*
X005710Y001098D01*
X005729Y001079D02*
X005948Y001079D01*
X005948Y001061D02*
X005747Y001061D01*
X005766Y001042D02*
X005948Y001042D01*
X005948Y001023D02*
X005784Y001023D01*
X005803Y001005D02*
X005948Y001005D01*
X005948Y000986D02*
X005821Y000986D01*
X005840Y000968D02*
X005948Y000968D01*
X005948Y000949D02*
X005858Y000949D01*
X005877Y000931D02*
X005948Y000931D01*
X005948Y000912D02*
X005896Y000912D01*
X005914Y000894D02*
X005948Y000894D01*
X005988Y000819D02*
X006248Y000819D01*
X006248Y000801D02*
X006007Y000801D01*
X006025Y000782D02*
X006248Y000782D01*
X006248Y000764D02*
X006044Y000764D01*
X006062Y000745D02*
X006248Y000745D01*
X006248Y000727D02*
X006081Y000727D01*
X006099Y000708D02*
X006248Y000708D01*
X006248Y000690D02*
X006118Y000690D01*
X006137Y000671D02*
X006248Y000671D01*
X006248Y000653D02*
X006155Y000653D01*
X006174Y000634D02*
X006248Y000634D01*
X006248Y000616D02*
X006192Y000616D01*
X006211Y000597D02*
X006248Y000597D01*
X006248Y000578D02*
X006229Y000578D01*
M02*
